<?xml version="1.0" encoding="utf-8"?>
<!-- Generator: Adobe Illustrator 27.8.0, SVG Export Plug-In . SVG Version: 6.00 Build 0)  -->
<svg version="1.1" id="Layer_1" xmlns="http://www.w3.org/2000/svg" xmlns:xlink="http://www.w3.org/1999/xlink" x="0px" y="0px"
	 viewBox="0 0 539 74.2" style="enable-background:new 0 0 539 74.2;" xml:space="preserve">
<style type="text/css">
	.st0{clip-path:url(#SVGID_00000174566387862096333360000017663114135968248766_);enable-background:new    ;}
	.st1{fill:#00535E;}
</style>
<g>
	<defs>
		<rect id="SVGID_1_" width="539" height="74.2"/>
	</defs>
	<clipPath id="SVGID_00000155833416786854719070000003737143705904333754_">
		<use xlink:href="#SVGID_1_"  style="overflow:visible;"/>
	</clipPath>
	<g style="clip-path:url(#SVGID_00000155833416786854719070000003737143705904333754_);enable-background:new    ;">
		<path class="st1" d="M11,31V4.2H0.9V0.7h24.5v3.6H15.2V31H11z"/>
		<path class="st1" d="M33.6,0.7v13H48v-13h4.2V31H48V17.3H33.6V31h-4.2V0.7H33.6z"/>
		<path class="st1" d="M59.2,0.7h19v3.6H63.4v9.5h14.1v3.5H63.4v10.1h15.2V31H59.2V0.7z"/>
		<path class="st1" d="M97.1,0.7h7.4l8.6,25l8.8-25h6.9V31h-4.1V3.7l-10,27.3h-4l-9.6-27.1V31H97L97.1,0.7L97.1,0.7z"/>
		<path class="st1" d="M136.2,0.7h19v3.6h-14.8v9.5h14.1v3.5h-14.1v10.1h15.2V31h-19.4V0.7z"/>
		<path class="st1" d="M162.2,0.7H173c1.6,0,4.7,0,7,1.4s3.4,3.7,3.4,6.2c0,2.1-0.8,4-2.1,5.4c-1.3,1.3-2.6,1.7-3.6,2
			c2.9,0.8,4.2,2.1,4.6,5.8c0.4,3.6,0.7,6.2,1.9,9.5h-4.5c-0.7-2-1.1-5.7-1.4-8c-0.5-4.4-1.6-5.7-6.6-5.7h-5.3V31h-4.2L162.2,0.7
			L162.2,0.7z M166.3,13.7h6.6c0.5,0,2.9,0,4-0.7c0.6-0.3,2.1-1.4,2.1-3.9c0-4.9-4.4-4.9-6-4.9h-6.6v9.5H166.3z"/>
		<path class="st1" d="M208.6,8.9c-0.2-1.1-0.7-5.3-6.6-5.3c-7.3,0-8.6,7.5-8.6,12.5c0,5.7,1.6,11.9,8.6,11.9c1.8,0,3.6-0.5,4.9-1.8
			c1.1-1.2,1.3-2.5,1.5-3.2h4.6c-0.6,6-6.1,8.4-11.3,8.4C191,31.4,189,22,189,16.1c0-6.4,2.5-15.9,13.3-15.9
			c4.3,0,10.3,1.7,10.9,8.6h-4.6V8.9z"/>
		<path class="st1" d="M218.6,0.7h4.2V14l12.6-13.3h5.8l-13.6,13.6l15,16.8h-5.9l-14-16.1v16h-4.2L218.6,0.7L218.6,0.7z"/>
	</g>
	<g style="clip-path:url(#SVGID_00000155833416786854719070000003737143705904333754_);enable-background:new    ;">
		<path class="st1" d="M13.4,39.6h4.4h4.4L34.6,73h-3.7h-3.7l-2.4-7.1H10.7L8.3,73H4.7H1L13.4,39.6z M12.4,60.7h10.7l-5.4-15.8l0,0
			L12.4,60.7z"/>
		<path class="st1" d="M67.5,62c0.2,3.3-1.1,6.1-3.8,8.3c-2.7,2.2-6,3.4-10.1,3.4c-4.9,0-8.6-1.5-11.2-4.4
			c-2.5-2.9-3.8-7.2-3.8-12.9s1.3-10,3.9-12.9c2.6-3,6.5-4.4,11.5-4.4c3.9,0,7.1,1.1,9.7,3.3c2.4,2.1,3.6,4.6,3.6,7.6v0.5h-6.8
			c-0.2-2-0.9-3.5-2.1-4.6c-1.2-1.1-2.8-1.6-4.8-1.6c-2.7,0-4.7,1-6.1,3.1c-1.4,2.1-2.1,5.1-2.1,9.1s0.7,7,2.1,9.1
			c1.4,2.1,3.5,3.1,6.2,3.1c2.1,0,3.7-0.6,4.9-1.7s1.9-2.7,2-4.8h6.9V62z"/>
		<path class="st1" d="M101.5,62c0.2,3.3-1.1,6.1-3.8,8.3c-2.7,2.2-6,3.4-10.1,3.4c-4.9,0-8.6-1.5-11.2-4.4
			c-2.5-2.9-3.8-7.2-3.8-12.9s1.3-10,3.9-12.9c2.6-3,6.5-4.4,11.5-4.4c3.9,0,7.1,1.1,9.7,3.3c2.4,2.1,3.6,4.6,3.6,7.6v0.5h-6.8
			c-0.2-2-0.9-3.5-2.1-4.6s-2.8-1.6-4.8-1.6c-2.7,0-4.7,1-6.1,3.1s-2.1,5.1-2.1,9.1s0.7,7,2.1,9.1s3.5,3.1,6.2,3.1
			c2.1,0,3.7-0.6,4.9-1.7c1.2-1.1,1.9-2.7,2-4.8h6.9V62z"/>
		<path class="st1" d="M107.1,73V39.6h22v2.6v2.6H114v8.3h14.2v2.6v2.6H114v9.6h15.6v2.6V73H107.1z"/>
		<path class="st1" d="M152.5,49c0-1.5-0.5-2.7-1.5-3.6c-1-0.9-2.3-1.3-3.9-1.3c-1.6,0-2.8,0.4-3.9,1.2c-1,0.8-1.5,1.8-1.5,3
			c0,1,0.5,1.9,1.4,2.6c0.9,0.7,2.7,1.4,5.2,2.2l4.3,1.3c2.9,0.9,4.9,2,6.1,3.3c1.2,1.3,1.8,3.1,1.8,5.4c0,3.1-1.2,5.6-3.7,7.6
			s-5.7,2.9-9.5,2.9c-4.5,0-7.8-0.9-10-2.8c-2.1-1.8-3.2-4.6-3.2-8.2v-0.3h6.8c-0.1,2,0.4,3.5,1.6,4.6c1.1,1.1,2.8,1.6,4.9,1.6
			c1.9,0,3.4-0.4,4.6-1.3c1.2-0.9,1.8-2,1.8-3.3c0-0.9-0.4-1.6-1.1-2.2c-0.8-0.6-2.1-1.2-4.1-1.8l-4.3-1.3c-3.3-1-5.7-2.2-7.1-3.6
			c-1.4-1.3-2.1-3.1-2.1-5.4c0-3.1,1.1-5.7,3.4-7.7c2.3-2,5.2-3,8.8-3c4,0,7.1,0.9,9.3,2.7c2,1.6,3,3.8,3,6.6v0.7h-7.1V49z"/>
		<path class="st1" d="M183.8,49c0-1.5-0.5-2.7-1.5-3.6c-1-0.9-2.3-1.3-3.9-1.3c-1.6,0-2.8,0.4-3.9,1.2c-1,0.8-1.5,1.8-1.5,3
			c0,1,0.5,1.9,1.4,2.6c0.9,0.7,2.7,1.4,5.2,2.2l4.3,1.3c2.9,0.9,4.9,2,6.1,3.3c1.2,1.3,1.8,3.1,1.8,5.4c0,3.1-1.2,5.6-3.7,7.6
			s-5.7,2.9-9.5,2.9c-4.5,0-7.8-0.9-10-2.8c-2.1-1.8-3.2-4.6-3.2-8.2v-0.3h6.8c-0.1,2,0.4,3.5,1.6,4.6c1.1,1.1,2.8,1.6,4.9,1.6
			c1.9,0,3.4-0.4,4.6-1.3c1.2-0.9,1.8-2,1.8-3.3c0-0.9-0.4-1.6-1.1-2.2c-0.8-0.6-2.1-1.2-4.1-1.8l-4.3-1.3c-3.3-1-5.7-2.2-7.1-3.6
			c-1.4-1.3-2.1-3.1-2.1-5.4c0-3.1,1.1-5.7,3.4-7.7c2.3-2,5.2-3,8.8-3c4,0,7.1,0.9,9.3,2.7c2,1.6,3,3.8,3,6.6v0.7h-7.1V49z"/>
		<path class="st1" d="M213.7,39.6h3.4h9.4c3.7,0,6.5,0.9,8.5,2.7s2.9,4.3,2.9,7.7s-1,5.9-3.1,7.7s-5.2,2.6-9.3,2.6h-4.9V73h-3.4
			h-3.4L213.7,39.6L213.7,39.6z M220.6,55.1h3.8c2.2,0,3.8-0.4,5-1.3c1.2-0.9,1.7-2.1,1.7-3.8s-0.5-2.9-1.5-3.8
			c-1-0.9-2.5-1.3-4.4-1.3h-4.6V55.1z"/>
		<path class="st1" d="M242.3,39.6h3.4h10c3.9,0,6.9,0.7,9,2.2s3.1,3.6,3.1,6.4c0,2.8-1.1,5-3.4,6.4c-1.1,0.7-2.4,1.2-4,1.6
			c1.3,0.2,2.4,0.5,3.1,0.9c1.6,0.8,2.6,2.3,2.8,4.4c0.2,2.2,0.5,4.1,0.8,5.7l0.1,0.5c0.2,1.2,0.5,2.2,0.7,3s0.5,1.5,0.7,2.2H265
			h-3.6c-0.2-0.4-0.3-1-0.4-1.8s-0.3-1.9-0.5-3.4l-0.3-3c-0.3-2.2-0.7-3.7-1.3-4.4c-0.6-0.7-1.9-1-3.8-1h-5.9V73h-3.4h-3.4V39.6
			H242.3z M249.2,54.2h4.3c2.5,0,4.3-0.4,5.7-1.2c1.3-0.8,2-2,2-3.5s-0.6-2.7-1.7-3.5c-1.2-0.8-2.8-1.2-4.9-1.2h-5.2v9.4H249.2z"/>
		<path class="st1" d="M276.9,69.2c-2.6-2.9-3.9-7.2-3.9-12.9s1.3-10,3.9-12.9c2.6-3,6.5-4.4,11.5-4.4c5.1,0,8.9,1.5,11.5,4.4
			c2.6,3,3.9,7.3,3.9,12.9s-1.3,10-3.9,12.9s-6.5,4.4-11.5,4.4C283.4,73.7,279.5,72.2,276.9,69.2z M294.8,65.4
			c1.5-2.1,2.2-5.1,2.2-9.1s-0.7-7-2.2-9.1s-3.6-3.1-6.4-3.1s-5,1-6.4,3.1s-2.2,5.1-2.2,9.1s0.7,7,2.2,9.1s3.6,3.1,6.4,3.1
			C291.2,68.5,293.4,67.5,294.8,65.4z"/>
		<path class="st1" d="M327.1,73.7c-5.7,0-10.1-1.5-13.1-4.4s-4.5-7.2-4.5-12.9c0-5.3,1.5-9.5,4.5-12.7s7-4.7,12-4.7
			c4.4,0,7.7,1,9.9,2.9c2.2,1.9,3.4,4.7,3.4,8.5h-6.8c0-2.2-0.6-3.7-1.6-4.7s-2.7-1.5-5-1.5c-3.1,0-5.5,1.1-7.2,3.2
			c-1.7,2.1-2.5,5.1-2.5,9c0,4,0.9,7,2.6,9.1s4.3,3.1,7.6,3.1c1.7,0,3.6-0.3,5.7-0.8v-7.4h-6.5v-5.2h13.3v16.7
			C335.1,73,331.1,73.7,327.1,73.7z"/>
		<path class="st1" d="M346.1,39.6h3.4h10c3.9,0,6.9,0.7,9,2.2s3.1,3.6,3.1,6.4c0,2.8-1.1,5-3.4,6.4c-1.1,0.7-2.4,1.2-4,1.6
			c1.3,0.2,2.4,0.5,3.1,0.9c1.6,0.8,2.6,2.3,2.8,4.4c0.2,2.2,0.5,4.1,0.8,5.7l0.1,0.5c0.2,1.2,0.5,2.2,0.7,3s0.5,1.5,0.7,2.2h-3.6
			h-3.6c-0.2-0.4-0.3-1-0.4-1.8s-0.3-1.9-0.5-3.4l-0.3-3c-0.3-2.2-0.7-3.7-1.3-4.4c-0.6-0.7-1.9-1-3.8-1H353V73h-3.4h-3.4V39.6
			H346.1z M353,54.2h4.3c2.5,0,4.3-0.4,5.7-1.2c1.3-0.8,2-2,2-3.5s-0.6-2.7-1.7-3.5c-1.2-0.8-2.8-1.2-4.9-1.2H353V54.2z"/>
		<path class="st1" d="M387.3,39.6h4.4h4.4L408.5,73h-3.7h-3.7l-2.4-7.1h-14.1l-2.3,7.1h-3.7h-3.7L387.3,39.6z M386.3,60.7H397
			l-5.4-15.8l0,0L386.3,60.7z"/>
		<path class="st1" d="M419.4,73h-3.1h-3.2V39.6h5.7h5.7l7,26.5l0,0l6.9-26.5h5.7h5.7V73h-3.2h-3.1V42.1l0,0L435.1,73h-3.6h-3.6
			l-8.4-30.6l0,0V73H419.4z"/>
	</g>
</g>
</svg>
