<svg id="Layer_1" data-name="Layer 1" xmlns="http://www.w3.org/2000/svg" viewBox="0 0 406.63 118.6"><defs><style>.cls-1{fill:#455560;}.cls-2{fill:#00837b;}</style></defs><rect class="cls-1" x="355.91" y="29.67" width="13.06" height="59.67"/><path class="cls-1" d="M350.11,32a33.53,33.53,0,0,0-14.91-3.45c-19.59,0-33,14.91-33,31.79,0,16.4,13.92,30.81,32.78,30.81a39.44,39.44,0,0,0,15.15-3.45V73.9a21.13,21.13,0,0,1-14.78,6c-12.2,0-19.59-9.84-19.59-19.82,0-10.23,7.14-20.18,19.71-20.18,5.54,0,11.09,2.06,14.66,6V32"/><polygon class="cls-1" points="251.95 40.08 251.95 29.66 217.07 29.66 217.07 89.34 251.95 89.34 251.95 79.08 230.25 79.08 230.25 64.2 251.09 64.2 251.09 53.78 230.25 53.78 230.25 40.08 251.95 40.08"/><polygon class="cls-1" points="369.46 56.77 391.47 89.33 406.63 89.33 384.25 56.77 403.8 29.67 388.71 29.67 369.46 56.77"/><path class="cls-1" d="M270.69,39.38s7.86,0,8.37,0a8.66,8.66,0,0,1-.91,17.27H278c-.57,0-3.18,0-3.78,0h-1.59l-1.5,0,21.76,32.63h14.8L289.51,63.6C297,61,300.16,54.68,300.16,47.38a17.72,17.72,0,0,0-17.67-17.72H257.63V89.33h13.06Z"/><polygon class="cls-1" points="178.94 89.98 197.4 47 197.4 89.34 210.25 89.34 210.25 29.66 191.17 29.66 178.94 60.25 166.7 29.66 147.64 29.66 147.64 89.34 160.48 89.34 160.48 47 178.94 89.98 178.94 89.98"/><path class="cls-2" d="M89,29.65a29.66,29.66,0,0,0-59.31,0Z"/><path class="cls-2" d="M89,89a29.66,29.66,0,0,1-59.31,0Z"/><path class="cls-2" d="M56.49,59.44A29.65,29.65,0,0,0,29.65,89a29.66,29.66,0,0,1,0-59.31A29.66,29.66,0,0,0,56.49,59.17Z"/><path class="cls-2" d="M62.13,59.44A29.65,29.65,0,0,1,89,89a29.66,29.66,0,0,0,0-59.31A29.66,29.66,0,0,1,62.13,59.17Z"/></svg>