<svg id="Group_308" data-name="Group 308" xmlns="http://www.w3.org/2000/svg" width="405.567" height="66.936" viewBox="0 0 405.567 66.936">
  <g id="Group_306" data-name="Group 306" transform="translate(0.006)">
    <path id="Path_173" data-name="Path 173" d="M34.061,253.95H25.439v-2.22H44.976v2.22H36.5l-.038,24.5H34.1Z" transform="translate(-25.439 -251.176)" fill="#1a1818"/>
    <path id="Path_174" data-name="Path 174" d="M66.463,278.446V251.73h2.406v11.73H83.447V251.73h2.406v26.716H83.447V265.68H68.869v12.766Z" transform="translate(-42.745 -251.176)" fill="#1a1818"/>
    <path id="Path_175" data-name="Path 175" d="M112.862,278.446V251.73h15.874v2.22H115.267v9.584h12.951v2.22H115.267v10.472h14.024v2.22Z" transform="translate(-62.318 -251.176)" fill="#1a1818"/>
    <path id="Path_176" data-name="Path 176" d="M169.438,278.446V251.73h3.848L183.314,275l10.25-23.274h3.663v26.716h-2.405v-24.68h-.074l-10.213,24.68H182.13l-10.213-24.57h-.074v24.57Z" transform="translate(-86.184 -251.176)" fill="#1a1818"/>
    <path id="Path_177" data-name="Path 177" d="M230.173,278.446V251.73h15.874v2.22H232.578v9.584h12.951v2.22H232.578v10.472H246.6v2.22Z" transform="translate(-111.804 -251.176)" fill="#1a1818"/>
    <path id="Path_178" data-name="Path 178" d="M271.745,278.446H269.34V251.73h8.733a20.847,20.847,0,0,1,3.256.241,8.363,8.363,0,0,1,3.034,1.166,5.221,5.221,0,0,1,2.072,2.257,7.715,7.715,0,0,1,.666,3.33,5.112,5.112,0,0,1-1.406,3.663,7.588,7.588,0,0,1-3.737,2.072v.075a5.7,5.7,0,0,1,2.072.739,4.252,4.252,0,0,1,1.314,1.3,5.745,5.745,0,0,1,.74,1.776,15.616,15.616,0,0,1,.351,2.146q.185,1.629.278,2.849t.2,2.146a10.841,10.841,0,0,0,.315,1.647,4.392,4.392,0,0,0,.611,1.314h-2.775a12.281,12.281,0,0,1-.648-2.738q-.166-1.406-.277-2.813-.222-2.294-.463-3.7a5.129,5.129,0,0,0-.814-2.183,2.766,2.766,0,0,0-1.628-1.036,12.532,12.532,0,0,0-2.868-.26h-6.624Zm5.144-14.949q1.257,0,2.609-.11a8.062,8.062,0,0,0,2.461-.574,4.006,4.006,0,0,0,2.553-4.089,4.532,4.532,0,0,0-.8-2.9,4.484,4.484,0,0,0-1.924-1.406,7.074,7.074,0,0,0-2.406-.444q-1.276-.018-2.239-.019h-5.4V263.5Z" transform="translate(-128.326 -251.176)" fill="#1a1818"/>
    <path id="Path_179" data-name="Path 179" d="M325.86,257.579a5.167,5.167,0,0,0-.759-2.091,4.9,4.9,0,0,0-1.425-1.425,6.119,6.119,0,0,0-1.906-.814,9.187,9.187,0,0,0-2.2-.26,8.044,8.044,0,0,0-4.274,1.055,8.228,8.228,0,0,0-2.756,2.738,11.52,11.52,0,0,0-1.462,3.774,20.3,20.3,0,0,0,0,8.27,11.5,11.5,0,0,0,1.462,3.756,8.224,8.224,0,0,0,2.756,2.738,8.039,8.039,0,0,0,4.274,1.055,8.687,8.687,0,0,0,2.183-.278,6.369,6.369,0,0,0,1.961-.87,5.886,5.886,0,0,0,1.536-1.5,5.619,5.619,0,0,0,.907-2.165h2.59a7.819,7.819,0,0,1-1.166,2.979,8.6,8.6,0,0,1-2.109,2.22,9.117,9.117,0,0,1-2.775,1.37,10.809,10.809,0,0,1-3.127.462,11.225,11.225,0,0,1-5.217-1.129,9.957,9.957,0,0,1-3.57-3.053,13.327,13.327,0,0,1-2.054-4.44,21.221,21.221,0,0,1,0-10.546,13.143,13.143,0,0,1,2.072-4.44,10.388,10.388,0,0,1,3.571-3.071,10.976,10.976,0,0,1,5.2-1.146,12.849,12.849,0,0,1,3.164.388,8.59,8.59,0,0,1,2.757,1.222,7,7,0,0,1,2.017,2.109,6.809,6.809,0,0,1,.944,3.09Z" transform="translate(-144.661 -250.771)" fill="#1a1818"/>
    <path id="Path_180" data-name="Path 180" d="M353.629,278.446V251.73h2.405l.037,11.767,11.951-11.767h3.034l-12.321,12.063,13.431,14.653h-3.293l-12.8-13.949-.037,13.949Z" transform="translate(-163.883 -251.176)" fill="#1a1818"/>
  </g>
  <g id="Group_307" data-name="Group 307" transform="translate(0 37.096)">
    <path id="Path_181" data-name="Path 181" d="M36.633,316.293h9.593l11.2,28.386H48.545l-1.966-5.7H35.217l-1.926,5.7H25.428Zm8.138,17.456-3.656-11.912H41l-3.931,11.912Z" transform="translate(-25.428 -315.507)" fill="#1a1818"/>
    <path id="Path_182" data-name="Path 182" d="M100.41,324.787a4.061,4.061,0,0,0-1.592-3.047,5.269,5.269,0,0,0-3.008-.884,5.4,5.4,0,0,0-2.968.767,5.717,5.717,0,0,0-1.926,2.063,9.375,9.375,0,0,0-1.022,3.047,22.1,22.1,0,0,0-.295,3.675q0,.434.039,1.259a16.49,16.49,0,0,0,.2,1.808,11.265,11.265,0,0,0,.531,2.025,6.363,6.363,0,0,0,1.061,1.887,5.285,5.285,0,0,0,1.73,1.376,5.626,5.626,0,0,0,2.575.531,5.222,5.222,0,0,0,2.477-.491,4.162,4.162,0,0,0,1.4-1.16,3.674,3.674,0,0,0,.649-1.357q.157-.687.236-1.12h8.177a9.288,9.288,0,0,1-.708,3.793,8.339,8.339,0,0,1-1.808,2.654,8.736,8.736,0,0,1-2.5,1.691,15.5,15.5,0,0,1-2.811.963,17.751,17.751,0,0,1-2.732.432q-1.317.1-2.221.1-1.023,0-2.4-.118a15.576,15.576,0,0,1-2.85-.531,15.909,15.909,0,0,1-2.909-1.141,9.379,9.379,0,0,1-2.614-1.985,10.442,10.442,0,0,1-1.887-2.653,16.1,16.1,0,0,1-1.1-2.87,17.1,17.1,0,0,1-.531-2.791,24.5,24.5,0,0,1-.138-2.457,21.066,21.066,0,0,1,.786-5.741,12.921,12.921,0,0,1,2.791-5.072,10.919,10.919,0,0,1,4.934-3.322,21.332,21.332,0,0,1,11.893,0,10.163,10.163,0,0,1,4.285,2.615,7.828,7.828,0,0,1,1.337,1.828,8.979,8.979,0,0,1,.689,1.73,8.813,8.813,0,0,1,.275,1.455q.059.649.059,1.041Z" transform="translate(-49.065 -315.077)" fill="#1a1818"/>
    <path id="Path_183" data-name="Path 183" d="M152.974,324.787a4.061,4.061,0,0,0-1.592-3.047,5.269,5.269,0,0,0-3.008-.884,5.4,5.4,0,0,0-2.968.767,5.718,5.718,0,0,0-1.926,2.063,9.376,9.376,0,0,0-1.022,3.047,22.1,22.1,0,0,0-.295,3.675q0,.434.039,1.259a16.481,16.481,0,0,0,.2,1.808,11.265,11.265,0,0,0,.531,2.025,6.363,6.363,0,0,0,1.062,1.887,5.285,5.285,0,0,0,1.73,1.376,5.626,5.626,0,0,0,2.575.531,5.222,5.222,0,0,0,2.477-.491,4.162,4.162,0,0,0,1.4-1.16,3.674,3.674,0,0,0,.649-1.357q.157-.687.236-1.12h8.177a9.288,9.288,0,0,1-.708,3.793,8.339,8.339,0,0,1-1.809,2.654,8.744,8.744,0,0,1-2.5,1.691,15.5,15.5,0,0,1-2.811.963,17.751,17.751,0,0,1-2.732.432q-1.317.1-2.221.1-1.023,0-2.4-.118a15.576,15.576,0,0,1-2.85-.531,15.909,15.909,0,0,1-2.909-1.141,9.378,9.378,0,0,1-2.614-1.985,10.442,10.442,0,0,1-1.887-2.653,16.1,16.1,0,0,1-1.1-2.87,17.1,17.1,0,0,1-.531-2.791,24.5,24.5,0,0,1-.138-2.457,21.066,21.066,0,0,1,.786-5.741,12.921,12.921,0,0,1,2.791-5.072,10.916,10.916,0,0,1,4.934-3.322,21.332,21.332,0,0,1,11.893,0,10.163,10.163,0,0,1,4.285,2.615,7.828,7.828,0,0,1,1.337,1.828,8.976,8.976,0,0,1,.688,1.73,8.762,8.762,0,0,1,.275,1.455q.059.649.059,1.041Z" transform="translate(-71.238 -315.077)" fill="#1a1818"/>
    <path id="Path_184" data-name="Path 184" d="M188.288,316.293H209.6v5.5H196.072v5.9H208.81v5.425H196.072v6.055h13.839v5.5H188.288Z" transform="translate(-94.129 -315.507)" fill="#1a1818"/>
    <path id="Path_185" data-name="Path 185" d="M239.37,335.12a9.485,9.485,0,0,0,.1,1.179,3.535,3.535,0,0,0,.55,1.455,3.8,3.8,0,0,0,1.415,1.238,5.733,5.733,0,0,0,2.732.531q.236,0,.924-.058a4.9,4.9,0,0,0,1.415-.354,3.441,3.441,0,0,0,1.3-.943,2.75,2.75,0,0,0,.57-1.868,2.706,2.706,0,0,0-.511-1.691,3.586,3.586,0,0,0-1.926-1.061l-6.959-1.809q-.748-.2-1.926-.589a8.06,8.06,0,0,1-2.32-1.259,7.626,7.626,0,0,1-1.966-2.28,7.193,7.193,0,0,1-.826-3.656,8.487,8.487,0,0,1,.668-3.323,7.536,7.536,0,0,1,2.123-2.831,10.98,10.98,0,0,1,3.715-1.985,17.484,17.484,0,0,1,5.445-.747,21.01,21.01,0,0,1,4.718.453,11.216,11.216,0,0,1,3.2,1.218,6.968,6.968,0,0,1,2.005,1.73,7.8,7.8,0,0,1,1.1,1.966,7.971,7.971,0,0,1,.472,1.965q.1.964.1,1.71h-7.981q0-.314-.059-.982a3.555,3.555,0,0,0-.393-1.318,3.033,3.033,0,0,0-1.1-1.14,4.888,4.888,0,0,0-4.914.373,2.7,2.7,0,0,0-1,2.123,2.568,2.568,0,0,0,.295,1.3,2.612,2.612,0,0,0,.727.826,3.663,3.663,0,0,0,.924.492q.491.177.924.294l5.307,1.376q1.415.354,2.89.845a9.6,9.6,0,0,1,2.654,1.357,6.721,6.721,0,0,1,1.946,2.3,7.771,7.771,0,0,1,.767,3.677,8.275,8.275,0,0,1-.963,4.088,8.192,8.192,0,0,1-2.634,2.851,12.133,12.133,0,0,1-3.971,1.67,21.326,21.326,0,0,1-4.973.551q-1.1,0-2.477-.118a17.672,17.672,0,0,1-2.791-.472,12.893,12.893,0,0,1-2.732-1.022,7.755,7.755,0,0,1-2.3-1.769,7.346,7.346,0,0,1-1.219-1.77,8.4,8.4,0,0,1-.629-1.769,11.425,11.425,0,0,1-.256-1.573q-.059-.707-.059-1.179Z" transform="translate(-112.344 -314.991)" fill="#1a1818"/>
    <path id="Path_186" data-name="Path 186" d="M288.125,335.12a9.475,9.475,0,0,0,.1,1.179,3.528,3.528,0,0,0,.551,1.455,3.794,3.794,0,0,0,1.415,1.238,5.729,5.729,0,0,0,2.732.531c.157,0,.464-.02.924-.058a4.893,4.893,0,0,0,1.415-.354,3.447,3.447,0,0,0,1.3-.943,2.75,2.75,0,0,0,.57-1.868,2.7,2.7,0,0,0-.512-1.691,3.583,3.583,0,0,0-1.926-1.061l-6.958-1.809q-.747-.2-1.926-.589a8.059,8.059,0,0,1-2.32-1.259,7.617,7.617,0,0,1-1.966-2.28,7.193,7.193,0,0,1-.826-3.656,8.487,8.487,0,0,1,.668-3.323,7.536,7.536,0,0,1,2.123-2.831,10.974,10.974,0,0,1,3.715-1.985,17.482,17.482,0,0,1,5.445-.747,21.01,21.01,0,0,1,4.718.453,11.2,11.2,0,0,1,3.2,1.218,6.971,6.971,0,0,1,2.006,1.73,7.8,7.8,0,0,1,1.1,1.966,8.028,8.028,0,0,1,.472,1.965c.064.642.1,1.213.1,1.71h-7.981q0-.314-.059-.982a3.576,3.576,0,0,0-.393-1.318,3.043,3.043,0,0,0-1.1-1.14,4.888,4.888,0,0,0-4.914.373,2.7,2.7,0,0,0-1,2.123,2.569,2.569,0,0,0,.295,1.3,2.6,2.6,0,0,0,.727.826,3.684,3.684,0,0,0,.924.492q.492.177.924.294l5.308,1.376q1.414.354,2.89.845a9.607,9.607,0,0,1,2.654,1.357,6.727,6.727,0,0,1,1.946,2.3,7.771,7.771,0,0,1,.767,3.677,8.281,8.281,0,0,1-.963,4.088,8.182,8.182,0,0,1-2.635,2.851,12.119,12.119,0,0,1-3.97,1.67,21.326,21.326,0,0,1-4.973.551q-1.1,0-2.477-.118a17.7,17.7,0,0,1-2.791-.472,12.9,12.9,0,0,1-2.732-1.022,7.746,7.746,0,0,1-2.3-1.769,7.365,7.365,0,0,1-1.219-1.77,8.4,8.4,0,0,1-.628-1.769,11.443,11.443,0,0,1-.256-1.573q-.059-.707-.059-1.179Z" transform="translate(-132.911 -314.991)" fill="#1a1818"/>
    <path id="Path_187" data-name="Path 187" d="M353.389,316.293h13.053q.826,0,1.749.02a15.843,15.843,0,0,1,1.887.158A12.749,12.749,0,0,1,372,316.9a7.462,7.462,0,0,1,1.828.845,8.33,8.33,0,0,1,2.909,3.008,10.563,10.563,0,0,1,.59,7.941,8.851,8.851,0,0,1-1.219,2.28,7.169,7.169,0,0,1-1.434,1.455q-.728.531-1.121.767a6.805,6.805,0,0,1-1.828.708,17.941,17.941,0,0,1-2,.353q-1,.119-1.867.138t-1.455.02l-5.11.039v10.222h-7.9Zm7.9,12.738h3.5q.709,0,1.593-.058a4.668,4.668,0,0,0,1.651-.413,3.037,3.037,0,0,0,1.278-1.141,4.024,4.024,0,0,0,.51-2.2,3.7,3.7,0,0,0-.471-2.024,3.083,3.083,0,0,0-1.219-1.1,4.541,4.541,0,0,0-1.632-.452q-.884-.078-1.749-.079h-3.46Z" transform="translate(-163.775 -315.507)" fill="#1a1818"/>
    <path id="Path_188" data-name="Path 188" d="M401.606,316.293h13.131q1.926,0,3.284.079a15.808,15.808,0,0,1,2.366.294,6.186,6.186,0,0,1,1.739.629,6.416,6.416,0,0,1,1.364,1.042,7.566,7.566,0,0,1,.671.786,5.813,5.813,0,0,1,.652,1.14,7.434,7.434,0,0,1,.474,1.553,10.335,10.335,0,0,1,.179,2.025,8.238,8.238,0,0,1-.217,2.025,6.036,6.036,0,0,1-.573,1.474,3.915,3.915,0,0,1-.83,1.042,7.251,7.251,0,0,1-.988.727,8.182,8.182,0,0,1-2.568,1.12q-1.186.256-1.778.335v.157a10.077,10.077,0,0,1,3.241.55,4.1,4.1,0,0,1,1.837,1.357,5.371,5.371,0,0,1,.909,2.142q.256,1.259.494,2.909.117.709.237,1.612t.275,1.848q.158.943.375,1.867t.452,1.672h-8.567a20.426,20.426,0,0,1-.55-2.91q-.2-1.611-.394-3.5-.118-1.3-.275-2.183a3.7,3.7,0,0,0-.531-1.434,2.14,2.14,0,0,0-1.12-.807,6.712,6.712,0,0,0-2.084-.255h-3.3v11.087h-7.9Zm7.9,12.188h2.949q1.3,0,2.025-.019a3.765,3.765,0,0,0,1.238-.216,2.493,2.493,0,0,0,1.041-.61,3.385,3.385,0,0,0,.649-.884,3.337,3.337,0,0,0,.314-.924,4.72,4.72,0,0,0,.079-.805,3.48,3.48,0,0,0-.511-2.025,2.866,2.866,0,0,0-1.3-1.042,5.591,5.591,0,0,0-1.729-.373q-.944-.059-1.808-.058H409.5Z" transform="translate(-184.115 -315.507)" fill="#1a1818"/>
    <path id="Path_189" data-name="Path 189" d="M448.654,330.03q0-.708.1-2.025a17.7,17.7,0,0,1,.492-2.909,16.529,16.529,0,0,1,1.179-3.224,11.413,11.413,0,0,1,2.123-3.008,10.926,10.926,0,0,1,2.948-2.122,17.491,17.491,0,0,1,3.165-1.2,15.854,15.854,0,0,1,2.87-.51q1.316-.1,2.1-.1a15.761,15.761,0,0,1,7.018,1.375,12.27,12.27,0,0,1,4.424,3.559,13.053,13.053,0,0,1,2.3,4.855,22.29,22.29,0,0,1,.649,5.269,16.463,16.463,0,0,1-1.356,7.1,12.688,12.688,0,0,1-3.5,4.561,12.989,12.989,0,0,1-4.777,2.417,19.788,19.788,0,0,1-5.15.708,18.158,18.158,0,0,1-5.465-.826,12.828,12.828,0,0,1-4.659-2.594,12.656,12.656,0,0,1-3.243-4.561A16.835,16.835,0,0,1,448.654,330.03Zm8.1-.039a18.307,18.307,0,0,0,.3,3.3,9.109,9.109,0,0,0,1.022,2.89,5.559,5.559,0,0,0,2.005,2.044,6.228,6.228,0,0,0,3.244.767,5.56,5.56,0,0,0,5.386-3.087,9.286,9.286,0,0,0,.944-2.949,21.13,21.13,0,0,0,.236-3.086,19.607,19.607,0,0,0-.157-2.634,13.24,13.24,0,0,0-.413-1.986,8.335,8.335,0,0,0-.59-1.474q-.335-.628-.649-1.1a4.363,4.363,0,0,0-2.142-1.612,8,8,0,0,0-2.575-.432,5.625,5.625,0,0,0-5.249,2.871,8.785,8.785,0,0,0-1.061,2.988A20.33,20.33,0,0,0,456.753,329.992Z" transform="translate(-203.962 -314.934)" fill="#1a1818"/>
    <path id="Path_190" data-name="Path 190" d="M525.413,324.269a4.338,4.338,0,0,0-.649-1.828,4.1,4.1,0,0,0-1.161-1.16,4.453,4.453,0,0,0-1.474-.609,7.589,7.589,0,0,0-1.631-.178,6.809,6.809,0,0,0-3.42.807,6.5,6.5,0,0,0-2.281,2.143,9.43,9.43,0,0,0-1.257,3.046,15.43,15.43,0,0,0-.394,3.48,12.541,12.541,0,0,0,.649,4.266,8.193,8.193,0,0,0,1.77,2.948,6.639,6.639,0,0,0,2.673,1.691,10.2,10.2,0,0,0,3.322.531,17.239,17.239,0,0,0,2.181-.137q1.08-.138,2.182-.334v-5.5h-6.016v-5.386h13.407v15.176a60.762,60.762,0,0,1-6.232,1.16,48.235,48.235,0,0,1-6.31.413q-1.141,0-2.477-.118a20.536,20.536,0,0,1-2.732-.433,17.506,17.506,0,0,1-2.792-.885,11.08,11.08,0,0,1-2.614-1.514,12.084,12.084,0,0,1-3.99-5.169,17.13,17.13,0,0,1-1.278-6.547,19.1,19.1,0,0,1,.216-2.772,18.146,18.146,0,0,1,.707-2.988,15.774,15.774,0,0,1,1.3-2.929,11.533,11.533,0,0,1,2.025-2.594,11.407,11.407,0,0,1,2.772-1.926,16.25,16.25,0,0,1,3.086-1.16,18.843,18.843,0,0,1,3.086-.55q1.513-.138,2.811-.138a21.61,21.61,0,0,1,6,.767,9.8,9.8,0,0,1,4.384,2.535,8.124,8.124,0,0,1,1.179,1.652,7.447,7.447,0,0,1,.628,1.592,8.863,8.863,0,0,1,.256,1.454q.059.689.059,1.2Z" transform="translate(-227.685 -314.991)" fill="#1a1818"/>
    <path id="Path_191" data-name="Path 191" d="M562.969,316.293H576.1q1.925,0,3.284.079a15.8,15.8,0,0,1,2.366.294,6.186,6.186,0,0,1,1.739.629,6.4,6.4,0,0,1,1.364,1.042,7.486,7.486,0,0,1,.671.786,5.746,5.746,0,0,1,.652,1.14,7.43,7.43,0,0,1,.475,1.553,10.329,10.329,0,0,1,.178,2.025,8.238,8.238,0,0,1-.217,2.025,6.039,6.039,0,0,1-.574,1.474,3.923,3.923,0,0,1-.829,1.042,7.293,7.293,0,0,1-.988.727,8.19,8.19,0,0,1-2.569,1.12q-1.186.256-1.778.335v.157a10.078,10.078,0,0,1,3.241.55,4.094,4.094,0,0,1,1.837,1.357,5.36,5.36,0,0,1,.909,2.142q.256,1.259.494,2.909.118.709.237,1.612t.276,1.848q.157.943.374,1.867t.452,1.672h-8.567a20.486,20.486,0,0,1-.55-2.91q-.2-1.611-.394-3.5-.118-1.3-.275-2.183a3.716,3.716,0,0,0-.531-1.434,2.144,2.144,0,0,0-1.121-.807,6.708,6.708,0,0,0-2.083-.255h-3.3v11.087h-7.9Zm7.9,12.188h2.949q1.3,0,2.025-.019a3.765,3.765,0,0,0,1.238-.216,2.494,2.494,0,0,0,1.042-.61,3.4,3.4,0,0,0,.649-.884,3.366,3.366,0,0,0,.315-.924,4.731,4.731,0,0,0,.079-.805,3.48,3.48,0,0,0-.511-2.025,2.871,2.871,0,0,0-1.3-1.042,5.6,5.6,0,0,0-1.73-.373q-.944-.059-1.808-.058h-2.949Z" transform="translate(-252.184 -315.507)" fill="#1a1818"/>
    <path id="Path_192" data-name="Path 192" d="M619.046,316.293h9.592l11.205,28.386h-8.885l-1.966-5.7H617.63l-1.926,5.7h-7.863Zm8.138,17.456-3.656-11.912h-.118l-3.931,11.912Z" transform="translate(-271.113 -315.507)" fill="#1a1818"/>
    <path id="Path_193" data-name="Path 193" d="M668.156,316.293H680.54l4.718,19.225,4.482-19.225h12.384v28.386h-7.43l.354-23.825-6.723,23.825h-7.077l-6.487-24.021.2,24.021h-6.8Z" transform="translate(-296.557 -315.507)" fill="#1a1818"/>
  </g>
</svg>
