<?xml version="1.0" encoding="UTF-8"?>
<svg xmlns="http://www.w3.org/2000/svg" xmlns:xlink="http://www.w3.org/1999/xlink" version="1.2" >
<font id="Univers LT Std 45 Light">
<font-face  font-family="Univers LT Std" units-per-em="1000" ascent="724" descent="-276" font-style="normal" font-weight="300" font-stretch="normal" cap-height="724" x-height="498" underline-position="-75" underline-thickness="50" />
<missing-glyph  horiz-adv-x="500" d="M0 700 L500 700 L500 0 L0 0 L0 700 Z M420 650 L80 650 L250 395 L420 650 Z M450 95 L450 605 L280 350 L450 95 Z M420 50 L250 305 L80 50 L420 50 Z M50 95 L220 350 L50 605 L50 95 Z " />
<glyph glyph-name="null" d="" />
<glyph glyph-name="nonmarkingreturn" unicode="&#xd;" horiz-adv-x="250" d="" />
<glyph glyph-name="space" unicode="&#x20;" horiz-adv-x="278" d="" />
<glyph glyph-name="exclam" unicode="&#x21;" horiz-adv-x="389" d="M167 171 L154 722 L236 722 L223 171 L167 171 Z M235 86 L235 0 L155 0 L155 86 L235 86 Z " />
<glyph glyph-name="quotedbl" unicode="&#x22;" horiz-adv-x="278" d="M58 722 L110 722 L110 496 L58 496 L58 722 Z M168 722 L220 722 L220 496 L168 496 L168 722 Z " />
<glyph glyph-name="numbersign" unicode="&#x23;" horiz-adv-x="556" d="M226 423 L204 286 L341 286 L361 423 L226 423 Z M527 423 L420 423 L400 286 L501 286 L501 226 L391 226 L360 0 L301 0 L332 226 L196 226 L162 0 L104 0 L138 226 L29 226 L29 286 L147 286 L167 423 L56 423 L56 483 L175 483 L207 692 L266 692 L235 483 L370 483 L400 692 L459 692 L428 483 L527 483 L527 423 Z " />
<glyph glyph-name="dollar" unicode="&#x24;" horiz-adv-x="556" d="M301 45 Q327 47 352.5 56 Q378 65 398.5 81.5 Q419 98 432 121.5 Q445 145 445 176 Q445 209 431.5 230.5 Q418 252 397 266.5 Q376 281 350.5 290.5 Q325 300 301 309 L301 45 Z M301 -68 L251 -68 L251 -15 Q212 -14 173.5 -2.5 Q135 9 105 32.5 Q75 56 57.5 91.5 Q40 127 42 176 L112 176 Q110 143 120.5 119 Q131 95 150.5 79 Q170 63 196 55 Q222 47 251 45 L251 320 Q232 328 198.5 339 Q165 350 133.5 370.5 Q102 391 78.5 425.5 Q55 460 55 515 Q55 555 72.5 590 Q90 625 118 651 Q146 677 181 692 Q216 707 251 707 L251 755 L301 755 L301 707 Q338 707 373 695.5 Q408 684 436 662 Q464 640 482 607 Q500 574 503 532 L433 532 Q433 564 420.5 586 Q408 608 389 621.5 Q370 635 347 641.5 Q324 648 301 649 L301 374 Q340 362 378.5 348 Q417 334 447 312.5 Q477 291 496 258 Q515 225 515 174 Q515 125 496.5 89.5 Q478 54 447.5 31 Q417 8 378.5 -3.5 Q340 -15 301 -15 L301 -68 Z M251 647 Q227 647 204 637.5 Q181 628 163.5 611 Q146 594 135.5 570 Q125 546 125 516 Q125 487 136 466 Q147 445 165 430.5 Q183 416 205.5 406 Q228 396 251 389 L251 647 Z " />
<glyph glyph-name="percent" unicode="&#x25;" horiz-adv-x="1000" d="M277 662 Q248 662 228 648.5 Q208 635 196 614 Q184 593 178.5 567.5 Q173 542 173 518 Q173 494 178.5 468.5 Q184 443 196 422 Q208 401 228 387.5 Q248 374 277 374 Q306 374 326 387.5 Q346 401 358 422 Q370 443 375.5 468.5 Q381 494 381 518 Q381 542 375.5 567.5 Q370 593 358 614 Q346 635 326 648.5 Q306 662 277 662 Z M711 707 L321 0 L263 0 L653 707 L711 707 Z M277 707 Q315 707 344.5 691.5 Q374 676 394.5 649.5 Q415 623 425.5 589 Q436 555 436 518 Q436 481 425.5 447 Q415 413 394.5 386.5 Q374 360 344.5 344.5 Q315 329 277 329 Q239 329 209.5 344.5 Q180 360 159.5 386.5 Q139 413 128.5 447 Q118 481 118 518 Q118 555 128.5 589 Q139 623 159.5 649.5 Q180 676 209.5 691.5 Q239 707 277 707 Z M723 363 Q761 363 790.5 347.5 Q820 332 840.5 305.5 Q861 279 871.5 245 Q882 211 882 174 Q882 137 871.5 103 Q861 69 840.5 42.5 Q820 16 790.5 0.5 Q761 -15 723 -15 Q685 -15 655.5 0.5 Q626 16 605.5 42.5 Q585 69 574.5 103 Q564 137 564 174 Q564 211 574.5 245 Q585 279 605.5 305.5 Q626 332 655.5 347.5 Q685 363 723 363 Z M723 318 Q694 318 674 304.5 Q654 291 642 270 Q630 249 624.5 223.5 Q619 198 619 174 Q619 150 624.5 124.5 Q630 99 642 78 Q654 57 674 43.5 Q694 30 723 30 Q752 30 772 43.5 Q792 57 804 78 Q816 99 821.5 124.5 Q827 150 827 174 Q827 198 821.5 223.5 Q816 249 804 270 Q792 291 772 304.5 Q752 318 723 318 Z " />
<glyph glyph-name="ampersand" unicode="&#x26;" horiz-adv-x="722" d="M275 381 Q257 369 231 350 Q205 331 181.5 308.5 Q158 286 141 261 Q124 236 124 212 Q124 173 139.5 142 Q155 111 181.5 89.5 Q208 68 242 56.5 Q276 45 312 45 Q373 45 416.5 70 Q460 95 501 138 L275 381 Z M287 461 Q302 476 320 491.5 Q338 507 353 524.5 Q368 542 378 561.5 Q388 581 388 605 Q388 642 360.5 659.5 Q333 677 300 677 Q265 677 237 660.5 Q209 644 209 605 Q209 586 216.5 566 Q224 546 235.5 527 Q247 508 261 491.5 Q275 475 287 461 Z M230 422 Q231 424 232 424.5 Q233 425 234 426 Q218 445 201 465.5 Q184 486 170 508 Q156 530 147.5 554.5 Q139 579 139 606 Q139 639 152.5 664 Q166 689 188.5 705 Q211 721 239 729 Q267 737 297 737 Q326 737 355 729.5 Q384 722 407 706.5 Q430 691 444 666.5 Q458 642 458 609 Q458 577 446 550 Q434 523 415.5 500 Q397 477 373.5 457 Q350 437 326 419 L537 194 Q549 222 558.5 256 Q568 290 574 325.5 Q580 361 582.5 396 Q585 431 583 461 L653 461 Q649 422 645 381 Q641 340 633.5 300.5 Q626 261 614 222.5 Q602 184 581 149 L718 0 L625 0 L539 96 Q494 42 441 13.5 Q388 -15 318 -15 Q263 -15 215 -0.5 Q167 14 131 42 Q95 70 74.5 109.5 Q54 149 54 198 Q54 239 70 271.5 Q86 304 111.5 331 Q137 358 168.5 380 Q200 402 230 422 Z " />
<glyph glyph-name="quotesingle" unicode="&#x27;" horiz-adv-x="278" d="M113 722 L165 722 L165 496 L113 496 L113 722 Z " />
<glyph glyph-name="parenleft" unicode="&#x28;" horiz-adv-x="278" d="M183 -96 Q165 -47 146 3 Q127 53 111.5 104 Q96 155 86 207 Q76 259 76 313 Q76 366 85.5 418 Q95 470 110.5 521.5 Q126 573 145.5 623 Q165 673 184 722 L234 722 Q194 620 170 515 Q146 410 146 313 Q146 262 153.5 208 Q161 154 173 101.5 Q185 49 201 -1.5 Q217 -52 234 -96 L183 -96 Z " />
<glyph glyph-name="parenright" unicode="&#x29;" horiz-adv-x="278" d="M44 -96 Q61 -52 77 -1.5 Q93 49 105 101.5 Q117 154 124.5 208 Q132 262 132 313 Q132 410 108 515 Q84 620 44 722 L94 722 Q113 673 132.5 623 Q152 573 167.5 521.5 Q183 470 192.5 418 Q202 366 202 313 Q202 259 192 207 Q182 155 166.5 104 Q151 53 132 3 Q113 -47 95 -96 L44 -96 Z " />
<glyph glyph-name="asterisk" unicode="&#x2a;" horiz-adv-x="556" d="M279 586 L346 722 L397 694 L309 567 L452 579 L452 521 L310 532 L396 403 L344 376 L279 514 L211 374 L161 403 L248 531 L104 521 L104 579 L249 567 L158 693 L211 722 L279 586 Z " />
<glyph glyph-name="plus" unicode="&#x2b;" horiz-adv-x="660" d="M300 502 L360 502 L360 281 L580 281 L580 221 L360 221 L360 0 L300 0 L300 221 L80 221 L80 281 L300 281 L300 502 Z " />
<glyph glyph-name="comma" unicode="&#x2c;" horiz-adv-x="278" d="M183 81 L111 -124 L59 -124 L102 81 L183 81 Z " />
<glyph glyph-name="hyphen" unicode="&#x2d;" horiz-adv-x="278" d="M13 297 L265 297 L265 237 L13 237 L13 297 Z " />
<glyph glyph-name="period" unicode="&#x2e;" horiz-adv-x="278" d="M99 0 L99 86 L179 86 L179 0 L99 0 Z " />
<glyph glyph-name="slash" unicode="&#x2f;" horiz-adv-x="278" d="M236 722 L301 722 L40 -96 L-23 -96 L236 722 Z " />
<glyph glyph-name="zero" unicode="0" horiz-adv-x="556" d="M278 647 Q223 647 191 614.5 Q159 582 143 535 Q127 488 122.5 436.5 Q118 385 118 346 Q118 307 122.5 255.5 Q127 204 143 157 Q159 110 191 77.5 Q223 45 278 45 Q333 45 365 77.5 Q397 110 413 157 Q429 204 433.5 255.5 Q438 307 438 346 Q438 385 433.5 436.5 Q429 488 413 535 Q397 582 365 614.5 Q333 647 278 647 Z M278 707 Q349 707 393.5 675.5 Q438 644 463.5 592.5 Q489 541 498.5 476.5 Q508 412 508 346 Q508 280 498.5 215.5 Q489 151 463.5 99.5 Q438 48 393.5 16.5 Q349 -15 278 -15 Q207 -15 162.5 16.5 Q118 48 92.5 99.5 Q67 151 57.5 215.5 Q48 280 48 346 Q48 412 57.5 476.5 Q67 541 92.5 592.5 Q118 644 162.5 675.5 Q207 707 278 707 Z " />
<glyph glyph-name="one" unicode="1" horiz-adv-x="556" d="M116 583 Q161 601 201 629.5 Q241 658 275 692 L337 692 L337 0 L272 0 L272 622 Q237 589 197.5 563.5 Q158 538 116 518 L116 583 Z " />
<glyph glyph-name="two" unicode="2" horiz-adv-x="556" d="M50 0 L50 68 Q73 88 108 121 Q143 154 182.5 194.5 Q222 235 262 280 Q302 325 334 369 Q366 413 386 453 Q406 493 406 524 Q406 554 395 577 Q384 600 365 615.5 Q346 631 320.5 639 Q295 647 267 647 Q204 647 165.5 608.5 Q127 570 127 509 L57 509 Q57 555 73.5 591.5 Q90 628 118.5 653.5 Q147 679 185.5 693 Q224 707 269 707 Q311 707 348.5 696 Q386 685 414.5 662.5 Q443 640 459.5 606.5 Q476 573 476 528 Q476 488 457.5 444.5 Q439 401 409.5 357.5 Q380 314 342 272 Q304 230 265.5 191.5 Q227 153 191 119.5 Q155 86 128 60 L485 60 L485 0 L50 0 Z " />
<glyph glyph-name="three" unicode="3" horiz-adv-x="556" d="M225 392 Q258 388 292 393.5 Q326 399 353.5 414.5 Q381 430 398.5 456.5 Q416 483 416 522 Q416 552 403.5 575.5 Q391 599 370 614.5 Q349 630 321 638.5 Q293 647 263 647 Q197 647 158 614 Q119 581 112 521 L42 521 Q42 565 60 599.5 Q78 634 107.5 658 Q137 682 175.5 694.5 Q214 707 254 707 Q298 707 339.5 696.5 Q381 686 413.5 663 Q446 640 466 604 Q486 568 486 518 Q486 487 475 460.5 Q464 434 444.5 414.5 Q425 395 399.5 381.5 Q374 368 345 362 L345 360 Q411 346 454 300.5 Q497 255 497 185 Q497 136 476.5 99 Q456 62 422 36.5 Q388 11 346 -2 Q304 -15 260 -15 Q214 -15 173.5 -2.5 Q133 10 102 34.5 Q71 59 52.5 96.5 Q34 134 32 183 L102 183 Q102 151 115.5 125.5 Q129 100 151 82 Q173 64 201 54.5 Q229 45 259 45 Q294 45 324.5 54 Q355 63 377.5 81.5 Q400 100 413.5 128 Q427 156 427 193 Q427 235 409 263 Q391 291 362 307.5 Q333 324 297 329 Q261 334 225 329 L225 392 Z " />
<glyph glyph-name="four" unicode="4" horiz-adv-x="556" d="M347 161 L22 161 L22 224 L326 692 L412 692 L412 215 L523 215 L523 161 L412 161 L412 0 L347 0 L347 161 Z M347 627 L345 627 L77 215 L347 215 L347 627 Z " />
<glyph glyph-name="five" unicode="5" horiz-adv-x="556" d="M92 692 L473 692 L473 632 L154 632 L143 385 L145 383 Q174 417 212 436.5 Q250 456 297 456 Q346 456 385 437.5 Q424 419 451.5 387 Q479 355 493.5 313.5 Q508 272 508 225 Q508 175 492.5 131.5 Q477 88 448.5 55.5 Q420 23 378.5 4 Q337 -15 286 -15 Q242 -15 202 -4.5 Q162 6 131.5 28.5 Q101 51 82.5 86 Q64 121 62 170 L132 170 Q135 108 177.5 76.5 Q220 45 279 45 Q320 45 349.5 59.5 Q379 74 399 99 Q419 124 428.5 157.5 Q438 191 438 228 Q438 303 399.5 349.5 Q361 396 283 396 Q233 396 193.5 368 Q154 340 143 291 L76 291 L92 692 Z " />
<glyph glyph-name="six" unicode="6" horiz-adv-x="556" d="M296 394 Q255 394 223.5 380 Q192 366 170.5 341 Q149 316 138 283 Q127 250 127 211 Q127 178 138.5 148 Q150 118 171 95 Q192 72 220.5 58.5 Q249 45 283 45 Q321 45 350.5 58 Q380 71 400 94 Q420 117 430.5 148 Q441 179 441 216 Q441 250 433 282 Q425 314 407.5 339 Q390 364 362.5 379 Q335 394 296 394 Z M297 707 Q339 707 376 696 Q413 685 441 663.5 Q469 642 485 608.5 Q501 575 502 530 L432 530 Q431 557 420 578.5 Q409 600 391.5 615.5 Q374 631 350.5 639 Q327 647 300 647 Q238 647 201 616.5 Q164 586 145 540 Q126 494 120.5 439.5 Q115 385 115 336 L117 336 Q140 393 189 421 Q238 449 299 449 Q350 449 389.5 432 Q429 415 456 384 Q483 353 497 311.5 Q511 270 511 220 Q511 171 496 128 Q481 85 453 53 Q425 21 384.5 3 Q344 -15 293 -15 Q221 -15 173 12.5 Q125 40 96.5 85.5 Q68 131 56.5 190 Q45 249 45 311 Q45 377 53 447.5 Q61 518 87 575.5 Q113 633 163 670 Q213 707 297 707 Z " />
<glyph glyph-name="seven" unicode="7" horiz-adv-x="556" d="M492 634 L223 0 L147 0 L424 632 L51 632 L51 692 L492 692 L492 634 Z " />
<glyph glyph-name="eight" unicode="8" horiz-adv-x="556" d="M194 361 Q164 364 138 378 Q112 392 93 413.5 Q74 435 63.5 462.5 Q53 490 53 521 Q53 569 72.5 604 Q92 639 124 662 Q156 685 196 696 Q236 707 278 707 Q320 707 360 696 Q400 685 432 662 Q464 639 483.5 604 Q503 569 503 521 Q503 458 463.5 416.5 Q424 375 364 361 L364 360 Q433 342 473 299.5 Q513 257 513 188 Q513 136 492.5 97.5 Q472 59 439 34 Q406 9 364 -3 Q322 -15 278 -15 Q235 -15 192.5 -3 Q150 9 117 34 Q84 59 63.5 97.5 Q43 136 43 188 Q42 255 84 300 Q126 345 194 359 L194 361 Z M118 521 Q118 457 163.5 424 Q209 391 278 391 Q347 391 392.5 424 Q438 457 438 521 Q438 556 424 581 Q410 606 387 621.5 Q364 637 335.5 644.5 Q307 652 278 652 Q249 652 220.5 644.5 Q192 637 169 621.5 Q146 606 132 581 Q118 556 118 521 Z M113 188 Q113 151 126.5 124 Q140 97 163 79.5 Q186 62 216 53.5 Q246 45 278 45 Q310 45 340 53.5 Q370 62 393 79.5 Q416 97 429.5 124 Q443 151 443 188 Q443 225 429.5 252 Q416 279 393 296.5 Q370 314 340 322.5 Q310 331 278 331 Q246 331 216 322.5 Q186 314 163 296.5 Q140 279 126.5 252 Q113 225 113 188 Z " />
<glyph glyph-name="nine" unicode="9" horiz-adv-x="556" d="M267 647 Q228 647 199.5 634 Q171 621 152.5 597.5 Q134 574 124.5 543 Q115 512 115 476 Q115 407 154.5 364 Q194 321 263 321 Q299 321 329.5 333 Q360 345 382.5 367 Q405 389 417.5 419 Q430 449 430 485 Q430 521 418 550.5 Q406 580 384 601.5 Q362 623 332.5 635 Q303 647 267 647 Z M117 170 Q119 102 161 73.5 Q203 45 267 45 Q326 45 361 81.5 Q396 118 414 169.5 Q432 221 437 277 Q442 333 442 372 L440 372 Q414 321 365.5 293.5 Q317 266 257 266 Q210 266 171 282 Q132 298 104 327 Q76 356 60.5 395.5 Q45 435 45 481 Q45 531 60.5 572.5 Q76 614 105 644 Q134 674 175 690.5 Q216 707 266 707 Q341 707 389 678 Q437 649 464.5 601 Q492 553 502 491.5 Q512 430 512 365 Q512 295 502 227 Q492 159 463.5 105 Q435 51 383.5 18 Q332 -15 249 -15 Q156 -15 105 36 Q54 87 47 170 L117 170 Z " />
<glyph glyph-name="colon" unicode="&#x3a;" horiz-adv-x="278" d="M179 502 L179 416 L99 416 L99 502 L179 502 Z M179 86 L179 0 L99 0 L99 86 L179 86 Z " />
<glyph glyph-name="semicolon" unicode="&#x3b;" horiz-adv-x="278" d="M202 81 L130 -124 L78 -124 L121 81 L202 81 Z M187 502 L187 416 L107 416 L107 502 L187 502 Z " />
<glyph glyph-name="less" unicode="&#x3c;" horiz-adv-x="660" d="M580 54 L580 -10 L80 225 L80 278 L580 501 L580 437 L159 251 L580 54 Z " />
<glyph glyph-name="equal" unicode="&#x3d;" horiz-adv-x="660" d="M580 318 L80 318 L80 378 L580 378 L580 318 Z M580 124 L80 124 L80 184 L580 184 L580 124 Z " />
<glyph glyph-name="greater" unicode="&#x3e;" horiz-adv-x="660" d="M80 448 L80 512 L580 277 L580 224 L80 1 L80 65 L501 251 L80 448 Z " />
<glyph glyph-name="question" unicode="&#x3f;" horiz-adv-x="500" d="M174 169 L174 277 Q175 301 189 322 Q203 343 223.5 363.5 Q244 384 268 405 Q292 426 312.5 449 Q333 472 346.5 498 Q360 524 360 556 Q360 591 346 614.5 Q332 638 309.5 652 Q287 666 258 671.5 Q229 677 198 677 Q174 677 150.5 673 Q127 669 104 662 L104 723 Q131 731 158.5 734 Q186 737 214 737 Q256 737 294.5 726 Q333 715 362 693 Q391 671 408 637.5 Q425 604 425 558 Q425 527 417 502 Q409 477 394.5 455.5 Q380 434 361.5 414.5 Q343 395 322 375 Q295 347 277.5 330.5 Q260 314 249.5 301 Q239 288 235.5 274.5 Q232 261 234 239 L234 169 L174 169 Z M244 86 L244 0 L164 0 L164 86 L244 86 Z " />
<glyph glyph-name="at" unicode="&#x40;" horiz-adv-x="800" d="M257 290 Q257 254 277 225 Q297 196 334 196 Q368 196 398 224 Q428 252 450 292 Q472 332 485 376.5 Q498 421 498 454 Q498 483 479 504 Q460 525 430 525 Q390 525 358 501 Q326 477 303.5 441.5 Q281 406 269 365 Q257 324 257 290 Z M554 566 L620 566 L520 266 Q514 250 510.5 235.5 Q507 221 508 211 Q509 201 515.5 195 Q522 189 537 189 Q568 189 596.5 211.5 Q625 234 646.5 268.5 Q668 303 681 345 Q694 387 694 427 Q694 487 671.5 535.5 Q649 584 610.5 617.5 Q572 651 521 669 Q470 687 414 687 Q345 687 287.5 661 Q230 635 188 590 Q146 545 123 485 Q100 425 100 357 Q100 290 124 231 Q148 172 190.5 128.5 Q233 85 291 60 Q349 35 416 35 Q493 35 563.5 70 Q634 105 679 170 L737 170 Q714 127 679 92.5 Q644 58 602 34 Q560 10 512.5 -2.5 Q465 -15 416 -15 Q336 -15 267.5 15 Q199 45 148.5 96.5 Q98 148 69 217 Q40 286 40 364 Q40 441 69.5 509 Q99 577 150 627.5 Q201 678 268.5 707.5 Q336 737 412 737 Q483 737 545.5 713.5 Q608 690 654.5 648.5 Q701 607 727.5 549.5 Q754 492 754 424 Q754 365 733 312.5 Q712 260 678.5 220 Q645 180 604 157 Q563 134 523 134 Q497 134 471.5 146.5 Q446 159 438 186 Q415 163 383 149.5 Q351 136 319 136 Q287 136 261.5 148 Q236 160 218.5 180 Q201 200 191.5 227 Q182 254 182 285 Q182 335 200 388 Q218 441 250 485 Q282 529 327.5 557 Q373 585 428 585 Q463 585 493.5 568.5 Q524 552 539 520 L554 566 Z " />
<glyph glyph-name="A" unicode="A" horiz-adv-x="667" d="M488 255 L332 662 L173 255 L488 255 Z M9 0 L295 722 L371 722 L659 0 L588 0 L511 195 L152 195 L76 0 L9 0 Z " />
<glyph glyph-name="B" unicode="B" horiz-adv-x="667" d="M165 60 L324 60 Q371 59 407 65.5 Q443 72 468.5 88.5 Q494 105 507 132.5 Q520 160 520 202 Q520 248 502.5 276 Q485 304 453.5 319 Q422 334 379 339 Q336 344 285 344 L165 344 L165 60 Z M322 404 Q354 404 384 410.5 Q414 417 437.5 432.5 Q461 448 475.5 473 Q490 498 490 535 Q490 574 475 599 Q460 624 436 637.5 Q412 651 381.5 656.5 Q351 662 319 662 L165 662 L165 404 L322 404 Z M100 0 L100 722 L359 721 Q399 721 435.5 709 Q472 697 499.5 674 Q527 651 543.5 617.5 Q560 584 560 541 Q560 511 550 484.5 Q540 458 522 436.5 Q504 415 479.5 400 Q455 385 426 378 L426 376 Q500 364 545 317.5 Q590 271 590 193 Q590 157 578.5 122.5 Q567 88 541.5 61 Q516 34 475 17 Q434 0 375 0 L100 0 Z " />
<glyph glyph-name="C" unicode="C" horiz-adv-x="667" d="M542 553 Q538 586 522 609.5 Q506 633 483 648 Q460 663 431.5 670 Q403 677 372 677 Q303 677 256.5 648.5 Q210 620 182 574.5 Q154 529 142.5 473 Q131 417 131 361 Q131 306 142.5 249.5 Q154 193 182 147.5 Q210 102 256.5 73.5 Q303 45 372 45 Q402 45 431 52.5 Q460 60 484 76 Q508 92 525.5 116.5 Q543 141 550 175 L620 175 Q612 130 588.5 94.5 Q565 59 531.5 34.5 Q498 10 457 -2.5 Q416 -15 372 -15 Q290 -15 231 15.5 Q172 46 134.5 98 Q97 150 79 218 Q61 286 61 361 Q61 435 79 503 Q97 571 135 623 Q173 675 231.5 706 Q290 737 372 737 Q416 737 458 726.5 Q500 716 533 693.5 Q566 671 587 636.5 Q608 602 612 553 L542 553 Z " />
<glyph glyph-name="D" unicode="D" horiz-adv-x="722" d="M302 60 Q378 60 432.5 81.5 Q487 103 521.5 142.5 Q556 182 572 237.5 Q588 293 588 361 Q588 441 565.5 499 Q543 557 500 594 Q457 631 396 647.5 Q335 664 258 662 L156 662 L156 60 L302 60 Z M286 722 Q464 722 561 631 Q658 540 658 361 Q658 182 561 91 Q464 0 286 0 L91 0 L91 722 L286 722 Z " />
<glyph glyph-name="E" unicode="E" horiz-adv-x="611" d="M102 0 L102 722 L531 722 L531 662 L167 662 L167 403 L517 403 L517 343 L167 343 L167 60 L546 60 L546 0 L102 0 Z " />
<glyph glyph-name="F" unicode="F" horiz-adv-x="556" d="M95 0 L95 722 L503 722 L503 662 L160 662 L160 407 L491 407 L491 347 L160 347 L160 0 L95 0 Z " />
<glyph glyph-name="G" unicode="G" horiz-adv-x="722" d="M631 368 L631 30 Q565 4 503.5 -5.5 Q442 -15 372 -15 Q298 -15 240.5 12.5 Q183 40 144 89.5 Q105 139 84.5 208.5 Q64 278 64 361 Q64 431 82.5 498.5 Q101 566 139.5 619 Q178 672 236 704.5 Q294 737 372 737 Q417 737 461 725 Q505 713 540 688.5 Q575 664 598.5 628 Q622 592 626 544 L552 544 Q547 579 530.5 604 Q514 629 489.5 645 Q465 661 434.5 669 Q404 677 372 677 Q307 677 262 648.5 Q217 620 188.5 575 Q160 530 147 473.5 Q134 417 134 361 Q134 292 149 234 Q164 176 197 134 Q230 92 281.5 68.5 Q333 45 406 45 Q447 45 487.5 54.5 Q528 64 566 75 L566 308 L385 308 L385 368 L631 368 Z " />
<glyph glyph-name="H" unicode="H" horiz-adv-x="722" d="M99 0 L99 722 L164 722 L164 405 L558 405 L558 722 L623 722 L623 0 L558 0 L558 345 L164 345 L164 0 L99 0 Z " />
<glyph glyph-name="I" unicode="I" horiz-adv-x="278" d="M107 0 L107 725 L172 725 L172 0 L107 0 Z " />
<glyph glyph-name="J" unicode="J" horiz-adv-x="500" d="M83 178 Q88 119 124.5 82 Q161 45 220 45 Q255 45 279 61 Q303 77 318 102.5 Q333 128 340 160 Q347 192 347 225 L347 722 L412 722 L412 235 Q412 215 411 192.5 Q410 170 405 147 Q400 124 390 100.5 Q380 77 362 56 Q331 18 288.5 1.5 Q246 -15 199 -15 Q155 -15 122.5 0.5 Q90 16 67.5 42 Q45 68 31.5 103.5 Q18 139 13 178 L83 178 Z " />
<glyph glyph-name="K" unicode="K" horiz-adv-x="611" d="M106 0 L106 722 L170 722 L171 404 L494 722 L576 722 L243 396 L606 0 L517 0 L171 377 L170 0 L106 0 Z " />
<glyph glyph-name="L" unicode="L" horiz-adv-x="556" d="M100 0 L100 722 L165 722 L165 60 L528 60 L528 0 L100 0 Z " />
<glyph glyph-name="M" unicode="M" horiz-adv-x="944" d="M97 0 L97 722 L201 722 L472 93 L749 722 L848 722 L848 0 L783 0 L783 667 L781 667 L505 0 L440 0 L164 664 L162 664 L162 0 L97 0 Z " />
<glyph glyph-name="N" unicode="N" horiz-adv-x="722" d="M92 722 L166 722 L564 87 L566 87 L566 722 L631 722 L631 0 L549 0 L159 624 L157 624 L157 0 L92 0 L92 722 Z " />
<glyph glyph-name="O" unicode="O" horiz-adv-x="778" d="M137 361 Q137 302 151 245 Q165 188 195.5 143.5 Q226 99 274 72 Q322 45 389 45 Q457 45 504.5 72 Q552 99 582.5 143.5 Q613 188 627 245 Q641 302 641 361 Q641 420 627 477 Q613 534 582.5 578.5 Q552 623 504.5 650 Q457 677 389 677 Q322 677 274 650 Q226 623 195.5 578.5 Q165 534 151 477 Q137 420 137 361 Z M711 361 Q711 277 690 207.5 Q669 138 628 88.5 Q587 39 527 12 Q467 -15 389 -15 Q311 -15 251 12 Q191 39 150 88.5 Q109 138 88 207.5 Q67 277 67 361 Q67 445 88 514.5 Q109 584 150 633.5 Q191 683 251 710 Q311 737 389 737 Q467 737 527 710 Q587 683 628 633.5 Q669 584 690 514.5 Q711 445 711 361 Z " />
<glyph glyph-name="P" unicode="P" horiz-adv-x="611" d="M165 374 L323 374 Q359 374 392.5 380.5 Q426 387 451 403.5 Q476 420 491 448 Q506 476 506 518 Q506 560 491 588 Q476 616 451 632.5 Q426 649 392.5 655.5 Q359 662 323 662 L165 662 L165 374 Z M100 0 L100 722 L281 722 Q333 723 385.5 715.5 Q438 708 480.5 685.5 Q523 663 549.5 623 Q576 583 576 518 Q576 454 549.5 413.5 Q523 373 480.5 350.5 Q438 328 385.5 320.5 Q333 313 281 314 L165 314 L165 0 L100 0 Z " />
<glyph glyph-name="Q" unicode="Q" horiz-adv-x="778" d="M591 0 Q579 0 563 1.5 Q547 3 530 3.5 Q513 4 495.5 3.5 Q478 3 463 -1 Q444 -7 424.5 -11 Q405 -15 389 -15 Q311 -15 251 12 Q191 39 150 88.5 Q109 138 88 207.5 Q67 277 67 361 Q67 445 88 514.5 Q109 584 150 633.5 Q191 683 251 710 Q311 737 389 737 Q467 737 527 710 Q587 683 628 633.5 Q669 584 690 514.5 Q711 445 711 361 Q711 317 703 273.5 Q695 230 679 190 Q663 150 638 115.5 Q613 81 579 55 L581 53 Q619 59 658.5 58.5 Q698 58 738 60 L738 0 L591 0 Z M137 361 Q137 302 151 245 Q165 188 195.5 143.5 Q226 99 274 72 Q322 45 389 45 Q457 45 504.5 72 Q552 99 582.5 143.5 Q613 188 627 245 Q641 302 641 361 Q641 420 627 477 Q613 534 582.5 578.5 Q552 623 504.5 650 Q457 677 389 677 Q322 677 274 650 Q226 623 195.5 578.5 Q165 534 151 477 Q137 420 137 361 Z " />
<glyph glyph-name="R" unicode="R" horiz-adv-x="667" d="M307 404 Q342 404 378.5 407 Q415 410 445 422.5 Q475 435 494 461 Q513 487 513 533 Q513 585 491.5 611.5 Q470 638 439.5 649.5 Q409 661 374.5 661.5 Q340 662 314 662 L168 662 L168 404 L307 404 Z M168 0 L103 0 L103 722 L339 722 Q387 722 427 716 Q467 710 509 684 Q547 661 565 623 Q583 585 583 533 Q583 474 545 434 Q507 394 444 378 L444 376 Q479 370 500.5 356 Q522 342 535.5 321 Q549 300 555.5 273.5 Q562 247 565 215 Q570 171 572.5 138 Q575 105 578 80 Q581 55 586.5 36 Q592 17 603 0 L528 0 Q515 36 510.5 74 Q506 112 503 150 Q497 212 490.5 250 Q484 288 468.5 309 Q453 330 424.5 337 Q396 344 347 344 L168 344 L168 0 Z " />
<glyph glyph-name="S" unicode="S" horiz-adv-x="611" d="M553 190 Q553 131 529.5 91.5 Q506 52 467 28.5 Q428 5 377.5 -5 Q327 -15 273 -15 Q230 -15 191.5 0 Q153 15 123.5 42 Q94 69 76.5 106 Q59 143 58 188 L128 188 Q129 146 143.5 118.5 Q158 91 183 74.5 Q208 58 240.5 51.5 Q273 45 309 45 Q339 45 370 54 Q401 63 426 80 Q451 97 467 123.5 Q483 150 483 184 Q483 211 474 231.5 Q465 252 449.5 267 Q434 282 413.5 292.5 Q393 303 370 310 Q326 325 274.5 341 Q223 357 178.5 382 Q134 407 104.5 445.5 Q75 484 75 542 Q75 589 95 625.5 Q115 662 147.5 687 Q180 712 221 724.5 Q262 737 305 737 Q341 737 379.5 729.5 Q418 722 452 703 Q486 684 510 650.5 Q534 617 540 565 L470 565 Q469 598 455 620 Q441 642 418.5 654.5 Q396 667 368.5 672 Q341 677 313 677 Q285 677 255 669.5 Q225 662 200.5 647 Q176 632 160.5 608 Q145 584 145 551 Q145 500 175 470.5 Q205 441 250.5 421.5 Q296 402 349 387 Q402 372 447.5 349 Q493 326 523 289 Q553 252 553 190 Z " />
<glyph glyph-name="T" unicode="T" horiz-adv-x="556" d="M247 662 L14 662 L14 722 L542 722 L542 662 L313 662 L312 0 L248 0 L247 662 Z " />
<glyph glyph-name="U" unicode="U" horiz-adv-x="722" d="M162 722 L162 255 Q166 156 218.5 100.5 Q271 45 361 45 Q451 45 503.5 100.5 Q556 156 560 255 L560 722 L625 722 L625 254 Q624 196 607.5 146.5 Q591 97 558 61 Q525 25 476 5 Q427 -15 361 -15 Q295 -15 246 5 Q197 25 164 61 Q131 97 114.5 146.5 Q98 196 97 254 L97 722 L162 722 Z " />
<glyph glyph-name="V" unicode="V" horiz-adv-x="611" d="M309 65 L311 65 L540 722 L605 722 L344 0 L270 0 L6 722 L77 722 L309 65 Z " />
<glyph glyph-name="W" unicode="W" horiz-adv-x="1000" d="M290 0 L198 0 L10 722 L79 722 L247 65 L249 65 L460 722 L539 722 L759 65 L761 65 L928 722 L991 722 L801 0 L712 0 L499 655 L497 655 L290 0 Z " />
<glyph glyph-name="X" unicode="X" horiz-adv-x="611" d="M82 0 L8 0 L265 372 L21 722 L106 722 L310 418 L522 722 L595 722 L345 372 L603 0 L520 0 L301 323 L82 0 Z " />
<glyph glyph-name="Y" unicode="Y" horiz-adv-x="611" d="M274 312 L8 722 L91 722 L312 373 L533 722 L603 722 L339 314 L339 0 L274 0 L274 312 Z " />
<glyph glyph-name="Z" unicode="Z" horiz-adv-x="556" d="M39 0 L39 60 L440 662 L39 662 L39 722 L517 722 L517 662 L115 60 L517 60 L517 0 L39 0 Z " />
<glyph glyph-name="bracketleft" unicode="&#x5b;" horiz-adv-x="278" d="M85 -96 L85 722 L222 722 L222 672 L150 672 L150 -46 L222 -46 L222 -96 L85 -96 Z " />
<glyph glyph-name="backslash" unicode="&#x5c;" horiz-adv-x="278" d="M-44 722 L21 722 L323 0 L258 0 L-44 722 Z " />
<glyph glyph-name="bracketright" unicode="&#x5d;" horiz-adv-x="278" d="M193 722 L193 -96 L56 -96 L56 -46 L128 -46 L128 672 L56 672 L56 722 L193 722 Z " />
<glyph glyph-name="asciicircum" unicode="&#x5e;" horiz-adv-x="660" d="M74 239 L304 692 L356 692 L587 239 L530 239 L329 631 L132 239 L74 239 Z " />
<glyph glyph-name="underscore" unicode="&#x5f;" horiz-adv-x="500" d="M0 -124 L0 -68 L500 -68 L500 -124 L0 -124 Z " />
<glyph glyph-name="grave" unicode="&#x60;" horiz-adv-x="278" d="M100 707 L191 564 L147 564 L20 707 L100 707 Z " />
<glyph glyph-name="a" unicode="a" horiz-adv-x="500" d="M101 140 Q101 89 134.5 64.5 Q168 40 214 40 Q263 40 293.5 58.5 Q324 77 340.5 107 Q357 137 361.5 175.5 Q366 214 364 253 Q332 252 287 252 Q242 252 200.5 243 Q159 234 130 210.5 Q101 187 101 140 Z M364 354 Q359 416 329 439 Q299 462 245 462 Q198 462 163 444 Q128 426 122 375 L58 375 Q64 414 80.5 441 Q97 468 121.5 485 Q146 502 178 509.5 Q210 517 246 517 Q330 517 378 477.5 Q426 438 424 351 L424 113 Q423 84 425 55 Q427 26 429 0 L367 0 L365 74 L363 74 L360 67 Q352 51 336 36.5 Q320 22 299 10.5 Q278 -1 253.5 -8 Q229 -15 203 -15 Q168 -15 137.5 -4.5 Q107 6 84.5 26 Q62 46 49 74.5 Q36 103 36 140 Q36 191 64 228.5 Q92 266 137 285 Q162 296 190.5 300.5 Q219 305 248.5 306 Q278 307 307.5 307 Q337 307 364 308 L364 354 Z " />
<glyph glyph-name="b" unicode="b" horiz-adv-x="556" d="M292 462 Q248 462 217.5 445 Q187 428 167.5 400 Q148 372 139 335.5 Q130 299 130 261 Q130 218 138.5 178.5 Q147 139 166.5 108 Q186 77 219 58.5 Q252 40 301 40 Q344 40 372 61 Q400 82 416 114 Q432 146 438.5 184.5 Q445 223 445 258 Q445 294 437 330.5 Q429 367 411 396 Q393 425 364 443.5 Q335 462 292 462 Z M127 0 L65 0 Q67 26 68.5 55 Q70 84 70 113 L70 722 L130 722 L130 428 L132 426 Q158 471 205.5 494 Q253 517 304 517 Q360 517 399 494 Q438 471 463 433.5 Q488 396 499 349 Q510 302 510 253 Q510 206 499 158 Q488 110 463.5 71.5 Q439 33 400.5 9 Q362 -15 307 -15 Q252 -15 207.5 9 Q163 33 132 78 L130 74 L127 0 Z " />
<glyph glyph-name="c" unicode="c" horiz-adv-x="500" d="M397 348 Q393 406 358 434 Q323 462 260 462 Q226 462 198 445 Q170 428 151 399.5 Q132 371 121.5 333 Q111 295 111 252 Q111 209 121.5 170.5 Q132 132 151 103 Q170 74 198 57 Q226 40 260 40 Q319 40 356 72.5 Q393 105 397 157 L462 157 Q438 -15 266 -15 Q210 -15 168.5 7.5 Q127 30 100 67 Q73 104 59.5 152 Q46 200 46 251 Q46 302 60 350 Q74 398 102 435 Q130 472 172 494.5 Q214 517 270 517 Q309 517 343 505.5 Q377 494 403 472.5 Q429 451 444.5 419.5 Q460 388 462 348 L397 348 Z " />
<glyph glyph-name="d" unicode="d" horiz-adv-x="556" d="M424 263 Q424 301 415 337 Q406 373 386.5 401 Q367 429 336.5 445.5 Q306 462 262 462 Q219 462 190 444 Q161 426 143.5 397 Q126 368 118.5 332 Q111 296 111 260 Q111 225 117 186.5 Q123 148 139 115.5 Q155 83 182.5 61.5 Q210 40 253 40 Q302 40 335 59 Q368 78 387.5 109 Q407 140 415.5 180 Q424 220 424 263 Z M426 74 L424 78 Q393 33 349 9 Q305 -15 252 -15 Q196 -15 157 9 Q118 33 93 71.5 Q68 110 57 158 Q46 206 46 253 Q46 302 57 349 Q68 396 93 433.5 Q118 471 157 494 Q196 517 252 517 Q303 517 350.5 494 Q398 471 424 426 L426 428 L426 722 L486 722 L486 113 Q486 84 487.5 55 Q489 26 491 0 L429 0 L426 74 Z " />
<glyph glyph-name="e" unicode="e" horiz-adv-x="556" d="M115 237 Q116 197 126 161 Q136 125 157 98 Q178 71 210.5 55.5 Q243 40 289 40 Q343 40 383 74 Q423 108 434 160 L497 160 Q474 69 417.5 27 Q361 -15 270 -15 Q214 -15 172.5 7.5 Q131 30 104 67 Q77 104 63.5 152 Q50 200 50 251 Q50 302 64 350 Q78 398 106 435 Q134 472 176 494.5 Q218 517 274 517 Q337 517 380.5 495.5 Q424 474 451.5 436 Q479 398 491 347 Q503 296 503 237 L115 237 Z M438 292 Q435 328 424 359.5 Q413 391 393 413.5 Q373 436 343.5 449 Q314 462 275 462 Q238 462 210 448 Q182 434 162.5 410 Q143 386 131.5 355.5 Q120 325 117 292 L438 292 Z " />
<glyph glyph-name="f" unicode="f" horiz-adv-x="333" d="M123 0 L123 447 L22 447 L22 502 L123 502 L123 609 Q123 674 151 704 Q179 734 244 734 Q258 734 272.5 730 Q287 726 301 723 L301 675 Q292 677 282.5 678 Q273 679 264 679 Q233 679 216 671.5 Q199 664 191.5 649.5 Q184 635 183 614 Q182 593 183 566 L183 502 L297 502 L297 447 L183 447 L183 0 L123 0 Z " />
<glyph glyph-name="g" unicode="g" horiz-adv-x="556" d="M426 262 Q426 298 416 334 Q406 370 386 398.5 Q366 427 336 444.5 Q306 462 265 462 Q224 462 194.5 443.5 Q165 425 146.5 395.5 Q128 366 119 330.5 Q110 295 110 260 Q110 226 119 189.5 Q128 153 147 124 Q166 95 196 76 Q226 57 267 57 Q310 57 340.5 75.5 Q371 94 390 123 Q409 152 417.5 188.5 Q426 225 426 262 Z M429 502 L491 502 Q489 476 487.5 447 Q486 418 486 389 L486 88 Q486 51 485 13 Q484 -25 474.5 -58.5 Q465 -92 443.5 -121 Q422 -150 380 -169 Q350 -183 325.5 -187.5 Q301 -192 266 -192 Q232 -192 196.5 -185.5 Q161 -179 132.5 -163.5 Q104 -148 85.5 -122 Q67 -96 67 -57 L132 -57 Q135 -80 148.5 -95 Q162 -110 182 -119.5 Q202 -129 226 -133 Q250 -137 274 -137 Q303 -137 330.5 -127 Q358 -117 379 -99 Q400 -81 412.5 -55.5 Q425 -30 426 2 L426 96 L424 96 Q402 51 356 26.5 Q310 2 261 2 Q204 2 163.5 22 Q123 42 96.5 76.5 Q70 111 57.5 157 Q45 203 45 255 Q45 306 57 353.5 Q69 401 94.5 437 Q120 473 161 495 Q202 517 259 517 Q314 517 354 492.5 Q394 468 424 424 L426 428 L429 502 Z " />
<glyph glyph-name="h" unicode="h" horiz-adv-x="556" d="M140 426 L142 426 Q168 473 209 495 Q250 517 299 517 Q361 517 396 493.5 Q431 470 449 437.5 Q467 405 471.5 370.5 Q476 336 476 314 L476 0 L416 0 L416 324 Q416 390 381 426 Q346 462 284 462 Q247 462 220 447.5 Q193 433 175 409 Q157 385 148.5 354 Q140 323 140 289 L140 0 L80 0 L80 722 L140 722 L140 426 Z " />
<glyph glyph-name="i" unicode="i" horiz-adv-x="222" d="M141 502 L141 0 L81 0 L81 502 L141 502 Z M146 647 L76 647 L76 722 L146 722 L146 647 Z " />
<glyph glyph-name="j" unicode="j" horiz-adv-x="222" d="M3 -137 Q36 -137 52.5 -131.5 Q69 -126 75 -109.5 Q81 -93 81 -62.5 Q81 -32 81 17 L81 502 L141 502 L141 -22 Q141 -70 138.5 -103.5 Q136 -137 122.5 -157 Q109 -177 81.5 -185.5 Q54 -194 3 -192 L3 -137 Z M146 647 L76 647 L76 722 L146 722 L146 647 Z " />
<glyph glyph-name="k" unicode="k" horiz-adv-x="500" d="M146 297 L389 502 L466 502 L212 285 L486 0 L410 0 L146 272 L146 0 L86 0 L86 722 L146 722 L146 297 Z " />
<glyph glyph-name="l" unicode="l" horiz-adv-x="222" d="M141 0 L81 0 L81 722 L141 722 L141 0 Z " />
<glyph glyph-name="m" unicode="m" horiz-adv-x="889" d="M139 428 L141 426 Q167 473 208 495 Q249 517 298 517 Q358 517 401 487 Q444 457 461 407 Q489 451 532.5 484 Q576 517 634 517 Q696 517 731 493.5 Q766 470 784 437.5 Q802 405 806.5 370.5 Q811 336 811 314 L811 0 L751 0 L751 324 Q751 390 716 426 Q681 462 619 462 Q582 462 555 447.5 Q528 433 510 409 Q492 385 483.5 354 Q475 323 475 289 L475 0 L415 0 L415 324 Q415 390 380 426 Q345 462 283 462 Q246 462 219 447.5 Q192 433 174 409 Q156 385 147.5 354 Q139 323 139 289 L139 0 L79 0 L79 389 Q79 418 77.5 447 Q76 476 74 502 L136 502 L139 428 Z " />
<glyph glyph-name="n" unicode="n" horiz-adv-x="556" d="M140 0 L80 0 L80 389 Q80 418 78.5 447 Q77 476 75 502 L137 502 L140 428 L142 426 Q168 473 209 495 Q250 517 299 517 Q361 517 396 493.5 Q431 470 449 437.5 Q467 405 471.5 370.5 Q476 336 476 314 L476 0 L416 0 L416 324 Q416 390 381 426 Q346 462 284 462 Q247 462 220 447.5 Q193 433 175 409 Q157 385 148.5 354 Q140 323 140 289 L140 0 Z " />
<glyph glyph-name="o" unicode="o" horiz-adv-x="556" d="M447 251 Q447 286 437.5 323.5 Q428 361 408 391.5 Q388 422 355.5 442 Q323 462 278 462 Q233 462 200.5 442 Q168 422 148 391.5 Q128 361 118.5 323.5 Q109 286 109 251 Q109 216 118.5 178.5 Q128 141 148 110.5 Q168 80 200.5 60 Q233 40 278 40 Q323 40 355.5 60 Q388 80 408 110.5 Q428 141 437.5 178.5 Q447 216 447 251 Z M278 517 Q338 517 382 494 Q426 471 455 433.5 Q484 396 498 348.5 Q512 301 512 251 Q512 202 498 154 Q484 106 455 68.5 Q426 31 382 8 Q338 -15 278 -15 Q218 -15 174 8 Q130 31 101 68.5 Q72 106 58 154 Q44 202 44 251 Q44 301 58 348.5 Q72 396 101 433.5 Q130 471 174 494 Q218 517 278 517 Z " />
<glyph glyph-name="p" unicode="p" horiz-adv-x="556" d="M130 263 Q130 220 138.5 180 Q147 140 166.5 109 Q186 78 219 59 Q252 40 301 40 Q344 40 372 61.5 Q400 83 416 115.5 Q432 148 438.5 186.5 Q445 225 445 260 Q445 296 437 332 Q429 368 411 397 Q393 426 364 444 Q335 462 292 462 Q248 462 217.5 445.5 Q187 429 167.5 401 Q148 373 139 337 Q130 301 130 263 Z M130 -192 L70 -192 L70 389 Q71 418 69 447 Q67 476 65 502 L127 502 L130 428 L132 426 Q158 471 205.5 494 Q253 517 304 517 Q360 517 399 494 Q438 471 463 433.5 Q488 396 499 349 Q510 302 510 253 Q510 206 499 158 Q488 110 463.5 71.5 Q439 33 400.5 9 Q362 -15 307 -15 Q252 -15 207.5 9 Q163 33 132 78 L130 78 L130 -192 Z " />
<glyph glyph-name="q" unicode="q" horiz-adv-x="556" d="M426 263 Q426 301 417 337 Q408 373 388.5 401 Q369 429 338.5 445.5 Q308 462 264 462 Q221 462 192 444 Q163 426 145 397 Q127 368 119 332 Q111 296 111 260 Q111 225 117.5 186.5 Q124 148 140 115.5 Q156 83 184 61.5 Q212 40 255 40 Q304 40 337 59 Q370 78 389.5 109 Q409 140 417.5 180 Q426 220 426 263 Z M429 502 L491 502 Q489 476 487.5 447 Q486 418 486 389 L486 -191 L426 -191 L426 78 L424 78 Q393 33 348.5 9 Q304 -15 249 -15 Q194 -15 155.5 9 Q117 33 92.5 71.5 Q68 110 57 158 Q46 206 46 253 Q46 302 57 349 Q68 396 93 433.5 Q118 471 157 494 Q196 517 252 517 Q303 517 350.5 494 Q398 471 424 428 L424 425 L426 425 L426 428 L429 502 Z " />
<glyph glyph-name="r" unicode="r" horiz-adv-x="333" d="M140 0 L80 0 L80 389 Q81 418 79 447 Q77 476 75 502 L137 502 L140 428 L142 428 Q156 466 186.5 490.5 Q217 515 255 517 Q270 518 285 517.5 Q300 517 315 516 L315 458 Q306 459 296.5 460.5 Q287 462 278 462 Q211 462 176.5 418 Q142 374 140 302 L140 0 Z " />
<glyph glyph-name="s" unicode="s" horiz-adv-x="500" d="M63 377 Q63 416 79.5 443 Q96 470 122 486.5 Q148 503 181 510 Q214 517 247 517 Q283 517 314.5 510 Q346 503 371 487 Q396 471 411.5 444.5 Q427 418 430 378 L365 378 Q363 402 352 418 Q341 434 324 443.5 Q307 453 285.5 457.5 Q264 462 241 462 Q220 462 199.5 457.5 Q179 453 163.5 443.5 Q148 434 138 418.5 Q128 403 128 381 Q128 353 145.5 338.5 Q163 324 193.5 314 Q224 304 267 294 Q310 284 361 266 Q400 252 423 221 Q446 190 446 149 Q446 107 428 76 Q410 45 380.5 24.5 Q351 4 313 -5.5 Q275 -15 235 -15 Q202 -15 169 -7 Q136 1 109 19 Q82 37 64.5 66 Q47 95 46 137 L111 137 Q113 109 125.5 90.5 Q138 72 157 60.5 Q176 49 200.5 44.5 Q225 40 250 40 Q274 40 297.5 46 Q321 52 339.5 64 Q358 76 369.5 95 Q381 114 381 140 Q381 167 367.5 184 Q354 201 331.5 211.5 Q309 222 280.5 228.5 Q252 235 222 242 Q192 249 163.5 258 Q135 267 112.5 282 Q90 297 76.5 319.5 Q63 342 63 377 Z " />
<glyph glyph-name="t" unicode="t" horiz-adv-x="333" d="M123 447 L23 447 L23 502 L123 502 L123 609 L183 635 L183 502 L297 502 L297 447 L183 447 L183 111 Q181 40 252 40 Q266 40 279 41 Q292 42 304 46 L304 -6 Q290 -10 274 -12.5 Q258 -15 243 -15 Q195 -15 170.5 -1.5 Q146 12 135.5 34 Q125 56 124 82.5 Q123 109 123 134 L123 447 Z " />
<glyph glyph-name="u" unicode="u" horiz-adv-x="556" d="M416 502 L476 502 L476 113 Q476 84 477.5 55 Q479 26 481 0 L419 0 L416 74 L414 76 Q388 29 347 7 Q306 -15 257 -15 Q196 -15 160.5 8.5 Q125 32 107 64.5 Q89 97 84.5 131.5 Q80 166 80 188 L80 502 L140 502 L140 178 Q140 112 175 76 Q210 40 272 40 Q309 40 336 54.5 Q363 69 381 93 Q399 117 407.5 148 Q416 179 416 213 L416 502 Z " />
<glyph glyph-name="v" unicode="v" horiz-adv-x="500" d="M80 502 L253 83 L420 502 L486 502 L287 0 L219 0 L14 502 L80 502 Z " />
<glyph glyph-name="w" unicode="w" horiz-adv-x="833" d="M232 79 L234 79 L386 502 L457 502 L605 83 L607 83 L752 502 L818 502 L631 0 L574 0 L420 433 L418 433 L261 0 L200 0 L16 502 L82 502 L232 79 Z " />
<glyph glyph-name="x" unicode="x" horiz-adv-x="500" d="M404 502 L467 502 L287 259 L483 0 L404 0 L243 218 L85 0 L17 0 L19 2 L211 257 L26 502 L106 502 L253 300 L404 502 Z " />
<glyph glyph-name="y" unicode="y" horiz-adv-x="500" d="M81 502 L250 82 L418 502 L483 502 L206 -192 L140 -192 L216 0 L8 502 L81 502 Z " />
<glyph glyph-name="z" unicode="z" horiz-adv-x="444" d="M40 55 L333 447 L40 447 L40 502 L404 502 L404 447 L113 55 L404 55 L404 0 L40 0 L40 55 Z " />
<glyph glyph-name="braceleft" unicode="&#x7b;" horiz-adv-x="278" d="M248 -96 L198 -96 Q183 -95 167.5 -87 Q152 -79 139 -65 Q126 -51 118 -31.5 Q110 -12 110 13 L110 156 Q110 211 97.5 245 Q85 279 38 284 L38 339 Q61 342 75.5 352 Q90 362 97.5 379 Q105 396 107.5 418.5 Q110 441 110 469 L110 613 Q110 638 118 657.5 Q126 677 139 691 Q152 705 167.5 713 Q183 721 198 722 L248 722 L248 672 L215 672 Q195 667 185 649.5 Q175 632 175 597 L175 454 Q175 418 166 392.5 Q157 367 145.5 350 Q134 333 123.5 324 Q113 315 110 312 Q113 310 123.5 301 Q134 292 145.5 275 Q157 258 166 232.5 Q175 207 175 171 L175 29 Q175 -6 185 -23.5 Q195 -41 215 -46 L248 -46 L248 -96 Z " />
<glyph glyph-name="bar" unicode="&#x7c;" horiz-adv-x="222" d="M81 750 L141 750 L141 -250 L81 -250 L81 750 Z " />
<glyph glyph-name="braceright" unicode="&#x7d;" horiz-adv-x="278" d="M30 722 L80 722 Q95 721 110.5 713 Q126 705 139 691 Q152 677 160 657.5 Q168 638 168 613 L168 470 Q168 415 181 380.5 Q194 346 240 341 L240 286 Q217 283 202.5 273 Q188 263 180.5 246.5 Q173 230 170.5 207 Q168 184 168 157 L168 13 Q168 -12 160 -31.5 Q152 -51 139 -65 Q126 -79 110.5 -87 Q95 -95 80 -96 L30 -96 L30 -46 L63 -46 Q83 -41 93 -23.5 Q103 -6 103 29 L103 172 Q103 208 112 233.5 Q121 259 132.5 276 Q144 293 154.5 302 Q165 311 168 314 Q165 316 154.5 325 Q144 334 132.5 351 Q121 368 112 393.5 Q103 419 103 455 L103 597 Q103 632 93 649.5 Q83 667 63 672 L30 672 L30 722 Z " />
<glyph glyph-name="asciitilde" unicode="&#x7e;" horiz-adv-x="660" d="M221 319 Q248 319 278.5 308 Q309 297 338 283 Q368 269 394.5 258 Q421 247 441 247 Q458 247 473 255.5 Q488 264 500.5 277 Q513 290 523 305.5 Q533 321 540 334 L580 300 Q570 280 556 260.5 Q542 241 524.5 225.5 Q507 210 486 200.5 Q465 191 440 191 Q426 191 408 195.5 Q390 200 371.5 206.5 Q353 213 335.5 220.5 Q318 228 305 233 Q285 241 264 252.5 Q243 264 221 264 Q201 264 185 254.5 Q169 245 156 231 Q143 217 132.5 200.5 Q122 184 113 169 L80 216 Q91 232 104.5 250 Q118 268 135 283.5 Q152 299 173 309 Q194 319 221 319 Z " />
<glyph glyph-name="uni00A0" unicode="&#xa0;" horiz-adv-x="278" d="" />
<glyph glyph-name="exclamdown" unicode="&#xa1;" horiz-adv-x="389" d="M235 542 L235 456 L155 456 L155 542 L235 542 Z M223 371 L236 -180 L154 -180 L167 371 L223 371 Z " />
<glyph glyph-name="cent" unicode="&#xa2;" horiz-adv-x="556" d="M313 460 Q305 461 298.5 461.5 Q292 462 284 462 Q250 462 222 445 Q194 428 175 399.5 Q156 371 145.5 333 Q135 295 135 252 Q135 195 153 146.5 Q171 98 204 71 L313 460 Z M363 639 L407 639 L369 505 Q419 488 451 448 Q483 408 486 348 L421 348 Q417 426 354 450 L242 48 Q263 40 284 40 Q343 40 380 72.5 Q417 105 421 157 L486 157 Q462 -15 290 -15 Q254 -15 227 -6 L191 -133 L146 -133 L187 11 Q128 44 99 109.5 Q70 175 70 251 Q70 302 84 350 Q98 398 126 435 Q154 472 196 494.5 Q238 517 294 517 Q313 517 328 514 L363 639 Z " />
<glyph glyph-name="sterling" unicode="&#xa3;" horiz-adv-x="556" d="M60 0 L60 60 L120 60 L120 372 L46 372 L46 432 L121 432 Q118 487 125 536.5 Q132 586 155.5 624 Q179 662 223.5 684.5 Q268 707 340 707 Q378 707 411.5 697.5 Q445 688 470.5 670 Q496 652 511 625.5 Q526 599 527 564 L457 564 Q455 603 420 625 Q385 647 332 647 Q293 647 265 633.5 Q237 620 219.5 597 Q202 574 193.5 542 Q185 510 185 474 L185 432 L347 432 L347 372 L185 372 L185 60 L505 60 L505 0 L60 0 Z " />
<glyph glyph-name="currency" unicode="&#xa4;" horiz-adv-x="556" d="M75 152 Q51 187 39 222 Q27 257 27 300 Q27 345 38 380 Q49 415 75 451 L32 494 L84 547 L128 504 Q162 530 201 541.5 Q240 553 282 553 Q324 553 359 540 Q394 527 428 504 L472 547 L524 494 L481 451 Q507 414 518 377.5 Q529 341 529 295 Q529 253 516.5 220 Q504 187 481 152 L524 110 L472 57 L428 100 Q360 50 273 50 Q231 50 196 63.5 Q161 77 128 100 L84 57 L32 110 L75 152 Z M276 120 Q314 120 347 134.5 Q380 149 405 173.5 Q430 198 444.5 231.5 Q459 265 459 303 Q459 339 445 371.5 Q431 404 407 429 Q383 454 350.5 469 Q318 484 282 483 Q243 484 209 470 Q175 456 150 431.5 Q125 407 110.5 373 Q96 339 97 300 Q96 264 110.5 231 Q125 198 150 173.5 Q175 149 207.5 134.5 Q240 120 276 120 Z " />
<glyph glyph-name="yen" unicode="&#xa5;" horiz-adv-x="556" d="M247 0 L247 136 L44 136 L44 196 L247 196 L247 256 L44 256 L44 316 L245 316 L1 692 L84 692 L285 373 L485 692 L555 692 L313 316 L512 316 L512 256 L312 256 L312 196 L512 196 L512 136 L312 136 L312 0 L247 0 Z " />
<glyph glyph-name="brokenbar" unicode="&#xa6;" horiz-adv-x="222" d="M81 175 L141 175 L141 -175 L81 -175 L81 175 Z M81 675 L141 675 L141 325 L81 325 L81 675 Z " />
<glyph glyph-name="section" unicode="&#xa7;" horiz-adv-x="556" d="M260 461 Q245 452 230 443 Q215 434 203 423.5 Q191 413 183.5 399 Q176 385 176 365 Q176 347 187 334 Q198 321 213.5 311 Q229 301 246.5 294.5 Q264 288 277 282 Q292 290 308.5 298.5 Q325 307 339.5 317.5 Q354 328 363.5 342.5 Q373 357 373 376 Q373 396 360.5 409 Q348 422 330 431 Q312 440 293 446.5 Q274 453 260 461 Z M405 663 Q396 667 383 670.5 Q370 674 356 676.5 Q342 679 328.5 680.5 Q315 682 306 682 Q287 682 266.5 678.5 Q246 675 229 666 Q212 657 200.5 642 Q189 627 189 604 Q189 578 207.5 560.5 Q226 543 253.5 530 Q281 517 313.5 505 Q346 493 373.5 477.5 Q401 462 419.5 441 Q438 420 438 388 Q438 366 428.5 347 Q419 328 403.5 313 Q388 298 369.5 286 Q351 274 333 266 Q356 257 376 246 Q396 235 411 220 Q426 205 435 185 Q444 165 444 139 Q444 99 427.5 69.5 Q411 40 384 21.5 Q357 3 322.5 -6 Q288 -15 252 -15 Q220 -15 186.5 -9.5 Q153 -4 123 7 L123 64 Q154 51 183.5 45.5 Q213 40 247 40 Q270 40 293.5 45 Q317 50 336 61.5 Q355 73 367 92 Q379 111 379 138 Q379 165 359 181 Q339 197 309.5 208.5 Q280 220 245 230.5 Q210 241 180.5 256.5 Q151 272 131 296 Q111 320 111 359 Q111 381 121 400 Q131 419 146.5 434 Q162 449 181 460.5 Q200 472 218 480 Q199 490 182 501.5 Q165 513 152 527.5 Q139 542 131.5 560 Q124 578 124 601 Q124 639 139.5 665 Q155 691 180 707 Q205 723 236.5 730 Q268 737 300 737 Q326 737 352.5 731 Q379 725 405 718 L405 663 Z " />
<glyph glyph-name="dieresis" unicode="&#xa8;" horiz-adv-x="278" d="M189 619 L189 707 L263 707 L263 619 L189 619 Z M15 619 L15 707 L89 707 L89 619 L15 619 Z " />
<glyph glyph-name="copyright" unicode="&#xa9;" horiz-adv-x="800" d="M401 -15 Q323 -15 254.5 14.5 Q186 44 134.5 95.5 Q83 147 53.5 215.5 Q24 284 24 362 Q24 439 53.5 507.5 Q83 576 134.5 627 Q186 678 254.5 707.5 Q323 737 401 737 Q479 737 547 707.5 Q615 678 666 627 Q717 576 746.5 507.5 Q776 439 776 362 Q776 284 746.5 215.5 Q717 147 666 95.5 Q615 44 547 14.5 Q479 -15 401 -15 Z M84 362 Q84 293 107.5 234.5 Q131 176 173.5 134 Q216 92 274 68.5 Q332 45 401 45 Q470 45 527.5 68.5 Q585 92 627 134 Q669 176 692.5 234.5 Q716 293 716 362 Q716 431 692.5 488.5 Q669 546 627 588 Q585 630 527.5 653.5 Q470 677 401 677 Q332 677 274 653.5 Q216 630 173.5 588 Q131 546 107.5 488.5 Q84 431 84 362 Z M591 294 Q588 260 572.5 233 Q557 206 533.5 187 Q510 168 480 158 Q450 148 418 148 Q371 148 332.5 164.5 Q294 181 267 210.5 Q240 240 225 279.5 Q210 319 210 365 Q210 412 224 451 Q238 490 264.5 519 Q291 548 329 564 Q367 580 415 580 Q483 580 532 543.5 Q581 507 591 438 L536 438 Q528 478 494.5 504 Q461 530 416 530 Q379 530 351.5 516.5 Q324 503 306 480.5 Q288 458 279 428 Q270 398 270 366 Q270 335 279.5 305 Q289 275 307.5 251 Q326 227 354 212.5 Q382 198 418 198 Q462 198 496 225 Q530 252 536 294 L591 294 Z " />
<glyph glyph-name="ordfeminine" unicode="&#xaa;" horiz-adv-x="300" d="M232 572 Q213 571 185.5 571 Q158 571 133 566.5 Q108 562 90.5 549.5 Q73 537 73 511 Q73 480 91 469 Q109 458 139 458 Q169 458 188 468 Q207 478 217.5 494.5 Q228 511 231.5 531.5 Q235 552 234 574 L232 574 L232 572 Z M232 639 Q229 677 211.5 687 Q194 697 159 697 Q132 697 110.5 690 Q89 683 84 652 L38 652 Q45 699 79 718 Q113 737 160 737 Q214 737 245.5 713.5 Q277 690 276 638 L276 473 Q276 461 277.5 449.5 Q279 438 280 427 L234 427 L231 467 L229 467 Q218 448 191.5 433 Q165 418 132 418 Q87 418 55 442 Q23 466 23 511 Q23 542 41.5 564.5 Q60 587 89 598 Q122 611 161 610.5 Q200 610 232 612 L232 639 Z " />
<glyph glyph-name="guillemotleft" unicode="&#xab;" horiz-adv-x="556" d="M439 462 L346 267 L438 72 L388 72 L282 267 L388 462 L439 462 Z M259 462 L166 267 L258 72 L208 72 L102 267 L208 462 L259 462 Z " />
<glyph glyph-name="logicalnot" unicode="&#xac;" horiz-adv-x="660" d="M520 318 L80 318 L80 378 L580 378 L580 112 L520 112 L520 318 Z " />
<glyph glyph-name="uni00AD" unicode="&#xad;" horiz-adv-x="278" d="M13 297 L265 297 L265 237 L13 237 L13 297 Z " />
<glyph glyph-name="registered" unicode="&#xae;" horiz-adv-x="800" d="M401 -15 Q323 -15 254.5 14.5 Q186 44 134.5 95.5 Q83 147 53.5 215.5 Q24 284 24 362 Q24 439 53.5 507.5 Q83 576 134.5 627 Q186 678 254.5 707.5 Q323 737 401 737 Q479 737 547 707.5 Q615 678 666 627 Q717 576 746.5 507.5 Q776 439 776 362 Q776 284 746.5 215.5 Q717 147 666 95.5 Q615 44 547 14.5 Q479 -15 401 -15 Z M401 45 Q470 45 527.5 68.5 Q585 92 627 134 Q669 176 692.5 234.5 Q716 293 716 362 Q716 431 692.5 488.5 Q669 546 627 588 Q585 630 527.5 653.5 Q470 677 401 677 Q332 677 274 653.5 Q216 630 173.5 588 Q131 546 107.5 488.5 Q84 431 84 362 Q84 293 107.5 234.5 Q131 176 173.5 134 Q216 92 274 68.5 Q332 45 401 45 Z M315 149 L260 149 L260 579 L445 579 Q529 579 562 548.5 Q595 518 595 460 Q595 429 585 407 Q575 385 557 371 Q539 357 514.5 349.5 Q490 342 462 340 L590 149 L528 149 L407 340 L315 340 L315 149 Z M391 390 Q414 390 439 389.5 Q464 389 485.5 395 Q507 401 521 416 Q535 431 535 461 Q535 484 526.5 497 Q518 510 503.5 517.5 Q489 525 471 527 Q453 529 433 529 L315 529 L315 390 L391 390 Z " />
<glyph glyph-name="macron" unicode="&#xaf;" horiz-adv-x="278" d="M17 647 L17 707 L262 707 L262 647 L17 647 Z " />
<glyph glyph-name="degree" unicode="&#xb0;" horiz-adv-x="400" d="M350 557 Q350 526 338 498.5 Q326 471 305.5 451 Q285 431 258 419 Q231 407 200 407 Q169 407 141.5 419 Q114 431 94 451 Q74 471 62 498.5 Q50 526 50 557 Q50 588 61.5 615 Q73 642 93.5 662.5 Q114 683 141.5 695 Q169 707 200 707 Q231 707 258 695 Q285 683 305.5 662.5 Q326 642 338 615 Q350 588 350 557 Z M95 557 Q95 511 124.5 481.5 Q154 452 200 452 Q245 452 275 481.5 Q305 511 305 557 Q305 602 275 632 Q245 662 199 662 Q154 662 124 632 Q94 602 95 557 Z " />
<glyph glyph-name="plusminus" unicode="&#xb1;" horiz-adv-x="660" d="M300 502 L360 502 L360 330 L580 330 L580 270 L360 270 L360 100 L300 100 L300 270 L80 270 L80 330 L300 330 L300 502 Z M80 60 L580 60 L580 0 L80 0 L80 60 Z " />
<glyph glyph-name="twosuperior" unicode="&#xb2;" horiz-adv-x="333" d="M33 283 L33 324 Q55 342 92.5 376.5 Q130 411 166 451 Q202 491 228.5 530 Q255 569 255 597 Q255 625 232.5 642 Q210 659 174 659 Q133 659 109 637.5 Q85 616 85 588 L37 588 Q37 644 77 675.5 Q117 707 175 707 Q202 707 226.5 700.5 Q251 694 269 680.5 Q287 667 298 647 Q309 627 309 600 Q309 564 285 524.5 Q261 485 228.5 448 Q196 411 163 380.5 Q130 350 113 331 L315 331 L315 283 L33 283 Z " />
<glyph glyph-name="threesuperior" unicode="&#xb3;" horiz-adv-x="333" d="M146 524 Q168 522 188.5 524.5 Q209 527 225.5 536 Q242 545 252 560 Q262 575 262 597 Q262 624 236.5 641.5 Q211 659 171 659 Q128 659 107 641.5 Q86 624 81 597 L27 597 Q27 623 38.5 643.5 Q50 664 69.5 678 Q89 692 114 699.5 Q139 707 165 707 Q194 707 221 701 Q248 695 269 681.5 Q290 668 303 646.5 Q316 625 316 595 Q316 557 289 533 Q262 509 224 501 L224 499 Q267 491 295 464 Q323 437 323 395 Q323 366 309.5 344 Q296 322 274 307 Q252 292 224.5 284.5 Q197 277 169 277 Q139 277 112.5 284 Q86 291 66 305.5 Q46 320 34 342 Q22 364 21 394 L75 394 Q76 364 102.5 344.5 Q129 325 168 325 Q213 325 241 344.5 Q269 364 269 400 Q269 424 258.5 440 Q248 456 231 465 Q214 474 191.5 476.5 Q169 479 146 476 L146 524 Z " />
<glyph glyph-name="acute" unicode="&#xb4;" horiz-adv-x="278" d="M258 707 L131 564 L87 564 L178 707 L258 707 Z " />
<glyph glyph-name="mu" unicode="&#xb5;" horiz-adv-x="556" d="M416 502 L476 502 L476 113 Q476 84 477.5 55 Q479 26 481 0 L419 0 L416 74 L414 76 Q388 29 347 7 Q306 -15 257 -15 Q228 -15 198.5 -8 Q169 -1 140 10 L140 -192 L80 -192 L80 502 L140 502 L140 178 Q140 112 175 76 Q210 40 272 40 Q309 40 336 54.5 Q363 69 381 93 Q399 117 407.5 148 Q416 179 416 213 L416 502 Z " />
<glyph glyph-name="paragraph" unicode="&#xb6;" horiz-adv-x="650" d="M258 336 Q220 336 185 351 Q150 366 123.5 392 Q97 418 81.5 452.5 Q66 487 66 526 Q66 621 124.5 671.5 Q183 722 289 722 L506 722 L506 -146 L441 -146 L441 662 L323 662 L323 -146 L258 -146 L258 336 Z " />
<glyph glyph-name="periodcentered" unicode="&#xb7;" horiz-adv-x="278" d="M179 208 L99 208 L99 294 L179 294 L179 208 Z " />
<glyph glyph-name="cedilla" unicode="&#xb8;" horiz-adv-x="278" d="M35 -133 Q57 -141 79 -147.5 Q101 -154 124 -158 Q131 -159 145.5 -155.5 Q160 -152 166 -147 Q174 -139 176 -132.5 Q178 -126 178 -115 Q178 -94 162.5 -86.5 Q147 -79 130 -79 Q122 -79 113.5 -80 Q105 -81 97 -82 L125 5 L148 5 L133 -50 Q152 -50 170 -52 Q188 -54 202.5 -61 Q217 -68 225.5 -81.5 Q234 -95 234 -117 Q234 -135 225 -147.5 Q216 -160 202.5 -168 Q189 -176 172.5 -179.5 Q156 -183 141 -183 Q122 -183 108.5 -181.5 Q95 -180 83 -177 Q71 -174 58.5 -170 Q46 -166 28 -161 L35 -133 Z " />
<glyph glyph-name="onesuperior" unicode="&#xb9;" horiz-adv-x="333" d="M176 283 L176 644 Q153 624 127.5 609 Q102 594 74 582 L74 627 Q103 638 129.5 655 Q156 672 178 692 L227 692 L227 283 L176 283 Z " />
<glyph glyph-name="ordmasculine" unicode="&#xba;" horiz-adv-x="334" d="M65 578 Q65 557 71 535.5 Q77 514 89.5 497 Q102 480 121 469 Q140 458 167 458 Q193 458 212.5 469 Q232 480 244.5 497 Q257 514 263 535.5 Q269 557 269 578 Q269 599 263 620 Q257 641 244.5 658 Q232 675 212.5 686 Q193 697 167 697 Q140 697 121 686 Q102 675 89.5 658 Q77 641 71 620 Q65 599 65 578 Z M167 737 Q206 737 234.5 723.5 Q263 710 282 687.5 Q301 665 310 636.5 Q319 608 319 578 Q319 548 310 519.5 Q301 491 282 468.5 Q263 446 234.5 432 Q206 418 167 418 Q128 418 99.5 432 Q71 446 52 468.5 Q33 491 24 519.5 Q15 548 15 578 Q15 608 24 636.5 Q33 665 52 687.5 Q71 710 99.5 723.5 Q128 737 167 737 Z " />
<glyph glyph-name="guillemotright" unicode="&#xbb;" horiz-adv-x="556" d="M117 72 L210 267 L118 462 L168 462 L274 267 L168 72 L117 72 Z M297 72 L390 267 L298 462 L348 462 L454 267 L348 72 L297 72 Z " />
<glyph glyph-name="onequarter" unicode="&#xbc;" horiz-adv-x="834" d="M626 97 L414 97 L414 128 L615 415 L677 415 L677 145 L740 145 L740 97 L677 97 L677 0 L626 0 L626 97 Z M237 0 L182 0 L599 707 L652 707 L237 0 Z M626 358 L624 358 L484 145 L626 145 L626 358 Z M208 283 L208 644 Q185 624 159.5 609 Q134 594 106 582 L106 627 Q135 638 161.5 655 Q188 672 210 692 L259 692 L259 283 L208 283 Z " />
<glyph glyph-name="onehalf" unicode="&#xbd;" horiz-adv-x="834" d="M237 0 L182 0 L599 707 L652 707 L237 0 Z M208 283 L208 644 Q185 624 159.5 609 Q134 594 106 582 L106 627 Q135 638 161.5 655 Q188 672 210 692 L259 692 L259 283 L208 283 Z M503 0 L503 41 Q525 59 562.5 93.5 Q600 128 636 168 Q672 208 698.5 247 Q725 286 725 314 Q725 342 702.5 359 Q680 376 644 376 Q603 376 579 354.5 Q555 333 555 305 L507 305 Q507 361 547 392.5 Q587 424 645 424 Q672 424 696.5 417.5 Q721 411 739 397.5 Q757 384 768 364 Q779 344 779 317 Q779 281 755 241.5 Q731 202 698.5 165 Q666 128 633 97.5 Q600 67 583 48 L785 48 L785 0 L503 0 Z " />
<glyph glyph-name="threequarters" unicode="&#xbe;" horiz-adv-x="834" d="M626 97 L414 97 L414 128 L615 415 L677 415 L677 145 L740 145 L740 97 L677 97 L677 0 L626 0 L626 97 Z M237 0 L182 0 L599 707 L652 707 L237 0 Z M626 358 L624 358 L484 145 L626 145 L626 358 Z M146 524 Q168 522 188.5 524.5 Q209 527 225.5 536 Q242 545 252 560 Q262 575 262 597 Q262 624 236.5 641.5 Q211 659 171 659 Q128 659 107 641.5 Q86 624 81 597 L27 597 Q27 623 38.5 643.5 Q50 664 69.5 678 Q89 692 114 699.5 Q139 707 165 707 Q194 707 221 701 Q248 695 269 681.5 Q290 668 303 646.5 Q316 625 316 595 Q316 557 289 533 Q262 509 224 501 L224 499 Q267 491 295 464 Q323 437 323 395 Q323 366 309.5 344 Q296 322 274 307 Q252 292 224.5 284.5 Q197 277 169 277 Q139 277 112.5 284 Q86 291 66 305.5 Q46 320 34 342 Q22 364 21 394 L75 394 Q76 364 102.5 344.5 Q129 325 168 325 Q213 325 241 344.5 Q269 364 269 400 Q269 424 258.5 440 Q248 456 231 465 Q214 474 191.5 476.5 Q169 479 146 476 L146 524 Z " />
<glyph glyph-name="questiondown" unicode="&#xbf;" horiz-adv-x="500" d="M325 376 L325 268 Q324 244 310 223 Q296 202 275.5 181.5 Q255 161 231 140 Q207 119 186.5 96 Q166 73 152.5 46.5 Q139 20 139 -11 Q139 -46 153 -69.5 Q167 -93 189.5 -107 Q212 -121 241 -126.5 Q270 -132 301 -132 Q325 -132 348.5 -128 Q372 -124 395 -117 L395 -178 Q368 -186 340.5 -189 Q313 -192 285 -192 Q243 -192 204.5 -181 Q166 -170 137 -148 Q108 -126 91 -92.5 Q74 -59 74 -13 Q74 19 82 43.5 Q90 68 104.5 89.5 Q119 111 137.5 130.5 Q156 150 177 170 Q204 198 221.5 214.5 Q239 231 249.5 244 Q260 257 263.5 270.5 Q267 284 265 306 L265 376 L325 376 Z M335 542 L335 456 L255 456 L255 542 L335 542 Z " />
<glyph glyph-name="Agrave" unicode="&#xc0;" horiz-adv-x="667" d="M488 255 L332 662 L173 255 L488 255 Z M9 0 L295 722 L371 722 L659 0 L588 0 L511 195 L152 195 L76 0 L9 0 Z M295 927 L386 784 L342 784 L215 927 L295 927 Z " />
<glyph glyph-name="Aacute" unicode="&#xc1;" horiz-adv-x="667" d="M488 255 L332 662 L173 255 L488 255 Z M9 0 L295 722 L371 722 L659 0 L588 0 L511 195 L152 195 L76 0 L9 0 Z M453 927 L326 784 L282 784 L373 927 L453 927 Z " />
<glyph glyph-name="Acircumflex" unicode="&#xc2;" horiz-adv-x="667" d="M488 255 L332 662 L173 255 L488 255 Z M9 0 L295 722 L371 722 L659 0 L588 0 L511 195 L152 195 L76 0 L9 0 Z M298 927 L371 927 L470 782 L423 782 L334 888 L244 782 L198 782 L298 927 Z " />
<glyph glyph-name="Atilde" unicode="&#xc3;" horiz-adv-x="667" d="M488 255 L332 662 L173 255 L488 255 Z M9 0 L295 722 L371 722 L659 0 L588 0 L511 195 L152 195 L76 0 L9 0 Z M472 915 Q464 881 441.5 855.5 Q419 830 381 830 Q370 830 359 833 Q348 836 336 841 Q325 845 311.5 848 Q298 851 282 851 Q267 851 253 844 Q239 837 235 822 L197 822 Q206 863 233.5 886 Q261 909 305 902 Q312 901 323 898 Q334 895 345 891 Q356 888 367 885 Q378 882 384 882 Q401 882 414.5 890.5 Q428 899 434 915 L472 915 Z " />
<glyph glyph-name="Adieresis" unicode="&#xc4;" horiz-adv-x="667" d="M488 255 L332 662 L173 255 L488 255 Z M9 0 L295 722 L371 722 L659 0 L588 0 L511 195 L152 195 L76 0 L9 0 Z M384 839 L384 927 L458 927 L458 839 L384 839 Z M210 839 L210 927 L284 927 L284 839 L210 839 Z " />
<glyph glyph-name="Aring" unicode="&#xc5;" horiz-adv-x="667" d="M488 255 L332 662 L173 255 L488 255 Z M9 0 L295 722 L371 722 L659 0 L588 0 L511 195 L152 195 L76 0 L9 0 Z M246 869 Q246 887 253 903 Q260 919 272 931 Q284 943 300 950 Q316 957 334 957 Q370 957 396 931 Q422 905 422 869 Q422 851 415 835 Q408 819 396 807 Q384 795 368 788 Q352 781 334 781 Q316 781 300 788 Q284 795 272 807 Q260 819 253 835 Q246 851 246 869 Z M389 869 Q389 890 372 907 Q355 924 334 924 Q313 924 296 907.5 Q279 891 279 869 Q279 849 296 831.5 Q313 814 334 814 Q354 814 371.5 831.5 Q389 849 389 869 Z " />
<glyph glyph-name="AE" unicode="&#xc6;" horiz-adv-x="1000" d="M925 722 L925 662 L536 662 L579 403 L907 403 L907 343 L588 343 L635 60 L934 60 L934 0 L578 0 L544 196 L194 196 L80 0 L8 0 L426 722 L925 722 Z M228 256 L536 256 L467 662 L465 662 L228 256 Z " />
<glyph glyph-name="Ccedilla" unicode="&#xc7;" horiz-adv-x="667" d="M255 -133 Q277 -141 299 -147.5 Q321 -154 344 -158 Q351 -159 365.5 -155.5 Q380 -152 386 -147 Q394 -139 396 -132.5 Q398 -126 398 -115 Q398 -94 382.5 -86.5 Q367 -79 350 -79 Q342 -79 333.5 -80 Q325 -81 317 -82 L340 -12 Q267 -6 214 26.5 Q161 59 127 109.5 Q93 160 77 225 Q61 290 61 361 Q61 435 79 503 Q97 571 135 623 Q173 675 231.5 706 Q290 737 372 737 Q416 737 458 726.5 Q500 716 533 693.5 Q566 671 587 636.5 Q608 602 612 553 L542 553 Q538 586 522 609.5 Q506 633 483 648 Q460 663 431.5 670 Q403 677 372 677 Q303 677 256.5 648.5 Q210 620 182 574.5 Q154 529 142.5 473 Q131 417 131 361 Q131 306 142.5 249.5 Q154 193 182 147.5 Q210 102 256.5 73.5 Q303 45 372 45 Q402 45 431 52.5 Q460 60 484 76 Q508 92 525.5 116.5 Q543 141 550 175 L620 175 Q612 130 588.5 94.5 Q565 59 531.5 34.5 Q498 10 457 -2.5 Q416 -15 372 -15 Q365 -15 363 -14 L353 -50 Q372 -50 390 -52 Q408 -54 422.5 -61 Q437 -68 445.5 -81.5 Q454 -95 454 -117 Q454 -135 445 -147.5 Q436 -160 422.5 -168 Q409 -176 392.5 -179.5 Q376 -183 361 -183 Q342 -183 328.5 -181.5 Q315 -180 303 -177 Q291 -174 278.5 -170 Q266 -166 248 -161 L255 -133 Z " />
<glyph glyph-name="Egrave" unicode="&#xc8;" horiz-adv-x="611" d="M102 0 L102 722 L531 722 L531 662 L167 662 L167 403 L517 403 L517 343 L167 343 L167 60 L546 60 L546 0 L102 0 Z M267 927 L358 784 L314 784 L187 927 L267 927 Z " />
<glyph glyph-name="Eacute" unicode="&#xc9;" horiz-adv-x="611" d="M102 0 L102 722 L531 722 L531 662 L167 662 L167 403 L517 403 L517 343 L167 343 L167 60 L546 60 L546 0 L102 0 Z M425 927 L298 784 L254 784 L345 927 L425 927 Z " />
<glyph glyph-name="Ecircumflex" unicode="&#xca;" horiz-adv-x="611" d="M102 0 L102 722 L531 722 L531 662 L167 662 L167 403 L517 403 L517 343 L167 343 L167 60 L546 60 L546 0 L102 0 Z M270 927 L343 927 L442 782 L395 782 L306 888 L216 782 L170 782 L270 927 Z " />
<glyph glyph-name="Edieresis" unicode="&#xcb;" horiz-adv-x="611" d="M102 0 L102 722 L531 722 L531 662 L167 662 L167 403 L517 403 L517 343 L167 343 L167 60 L546 60 L546 0 L102 0 Z M356 839 L356 927 L430 927 L430 839 L356 839 Z M182 839 L182 927 L256 927 L256 839 L182 839 Z " />
<glyph glyph-name="Igrave" unicode="&#xcc;" horiz-adv-x="278" d="M107 0 L107 725 L172 725 L172 0 L107 0 Z M100 927 L191 784 L147 784 L20 927 L100 927 Z " />
<glyph glyph-name="Iacute" unicode="&#xcd;" horiz-adv-x="278" d="M107 0 L107 725 L172 725 L172 0 L107 0 Z M258 927 L131 784 L87 784 L178 927 L258 927 Z " />
<glyph glyph-name="Icircumflex" unicode="&#xce;" horiz-adv-x="278" d="M107 0 L107 725 L172 725 L172 0 L107 0 Z M103 927 L176 927 L275 782 L228 782 L139 888 L49 782 L3 782 L103 927 Z " />
<glyph glyph-name="Idieresis" unicode="&#xcf;" horiz-adv-x="278" d="M107 0 L107 725 L172 725 L172 0 L107 0 Z M189 839 L189 927 L263 927 L263 839 L189 839 Z M15 839 L15 927 L89 927 L89 839 L15 839 Z " />
<glyph glyph-name="Eth" unicode="&#xd0;" horiz-adv-x="722" d="M156 420 L372 420 L372 375 L156 375 L156 60 L302 60 Q378 60 432.5 81.5 Q487 103 521.5 142.5 Q556 182 572 237.5 Q588 293 588 361 Q588 441 565.5 499 Q543 557 500 594 Q457 631 396 647.5 Q335 664 258 662 L156 662 L156 420 Z M91 375 L23 375 L23 420 L91 420 L91 722 L286 722 Q464 722 561 631 Q658 540 658 361 Q658 182 561 91 Q464 0 286 0 L91 0 L91 375 Z " />
<glyph glyph-name="Ntilde" unicode="&#xd1;" horiz-adv-x="722" d="M92 722 L166 722 L564 87 L566 87 L566 722 L631 722 L631 0 L549 0 L159 624 L157 624 L157 0 L92 0 L92 722 Z M499 915 Q491 881 468.5 855.5 Q446 830 408 830 Q397 830 386 833 Q375 836 363 841 Q352 845 338.5 848 Q325 851 309 851 Q294 851 280 844 Q266 837 262 822 L224 822 Q233 863 260.5 886 Q288 909 332 902 Q339 901 350 898 Q361 895 372 891 Q383 888 394 885 Q405 882 411 882 Q428 882 441.5 890.5 Q455 899 461 915 L499 915 Z " />
<glyph glyph-name="Ograve" unicode="&#xd2;" horiz-adv-x="778" d="M137 361 Q137 302 151 245 Q165 188 195.5 143.5 Q226 99 274 72 Q322 45 389 45 Q457 45 504.5 72 Q552 99 582.5 143.5 Q613 188 627 245 Q641 302 641 361 Q641 420 627 477 Q613 534 582.5 578.5 Q552 623 504.5 650 Q457 677 389 677 Q322 677 274 650 Q226 623 195.5 578.5 Q165 534 151 477 Q137 420 137 361 Z M711 361 Q711 277 690 207.5 Q669 138 628 88.5 Q587 39 527 12 Q467 -15 389 -15 Q311 -15 251 12 Q191 39 150 88.5 Q109 138 88 207.5 Q67 277 67 361 Q67 445 88 514.5 Q109 584 150 633.5 Q191 683 251 710 Q311 737 389 737 Q467 737 527 710 Q587 683 628 633.5 Q669 584 690 514.5 Q711 445 711 361 Z M350 927 L441 784 L397 784 L270 927 L350 927 Z " />
<glyph glyph-name="Oacute" unicode="&#xd3;" horiz-adv-x="778" d="M137 361 Q137 302 151 245 Q165 188 195.5 143.5 Q226 99 274 72 Q322 45 389 45 Q457 45 504.5 72 Q552 99 582.5 143.5 Q613 188 627 245 Q641 302 641 361 Q641 420 627 477 Q613 534 582.5 578.5 Q552 623 504.5 650 Q457 677 389 677 Q322 677 274 650 Q226 623 195.5 578.5 Q165 534 151 477 Q137 420 137 361 Z M711 361 Q711 277 690 207.5 Q669 138 628 88.5 Q587 39 527 12 Q467 -15 389 -15 Q311 -15 251 12 Q191 39 150 88.5 Q109 138 88 207.5 Q67 277 67 361 Q67 445 88 514.5 Q109 584 150 633.5 Q191 683 251 710 Q311 737 389 737 Q467 737 527 710 Q587 683 628 633.5 Q669 584 690 514.5 Q711 445 711 361 Z M508 927 L381 784 L337 784 L428 927 L508 927 Z " />
<glyph glyph-name="Ocircumflex" unicode="&#xd4;" horiz-adv-x="778" d="M137 361 Q137 302 151 245 Q165 188 195.5 143.5 Q226 99 274 72 Q322 45 389 45 Q457 45 504.5 72 Q552 99 582.5 143.5 Q613 188 627 245 Q641 302 641 361 Q641 420 627 477 Q613 534 582.5 578.5 Q552 623 504.5 650 Q457 677 389 677 Q322 677 274 650 Q226 623 195.5 578.5 Q165 534 151 477 Q137 420 137 361 Z M711 361 Q711 277 690 207.5 Q669 138 628 88.5 Q587 39 527 12 Q467 -15 389 -15 Q311 -15 251 12 Q191 39 150 88.5 Q109 138 88 207.5 Q67 277 67 361 Q67 445 88 514.5 Q109 584 150 633.5 Q191 683 251 710 Q311 737 389 737 Q467 737 527 710 Q587 683 628 633.5 Q669 584 690 514.5 Q711 445 711 361 Z M353 927 L426 927 L525 782 L478 782 L389 888 L299 782 L253 782 L353 927 Z " />
<glyph glyph-name="Otilde" unicode="&#xd5;" horiz-adv-x="778" d="M137 361 Q137 302 151 245 Q165 188 195.5 143.5 Q226 99 274 72 Q322 45 389 45 Q457 45 504.5 72 Q552 99 582.5 143.5 Q613 188 627 245 Q641 302 641 361 Q641 420 627 477 Q613 534 582.5 578.5 Q552 623 504.5 650 Q457 677 389 677 Q322 677 274 650 Q226 623 195.5 578.5 Q165 534 151 477 Q137 420 137 361 Z M711 361 Q711 277 690 207.5 Q669 138 628 88.5 Q587 39 527 12 Q467 -15 389 -15 Q311 -15 251 12 Q191 39 150 88.5 Q109 138 88 207.5 Q67 277 67 361 Q67 445 88 514.5 Q109 584 150 633.5 Q191 683 251 710 Q311 737 389 737 Q467 737 527 710 Q587 683 628 633.5 Q669 584 690 514.5 Q711 445 711 361 Z M527 915 Q519 881 496.5 855.5 Q474 830 436 830 Q425 830 414 833 Q403 836 391 841 Q380 845 366.5 848 Q353 851 337 851 Q322 851 308 844 Q294 837 290 822 L252 822 Q261 863 288.5 886 Q316 909 360 902 Q367 901 378 898 Q389 895 400 891 Q411 888 422 885 Q433 882 439 882 Q456 882 469.5 890.5 Q483 899 489 915 L527 915 Z " />
<glyph glyph-name="Odieresis" unicode="&#xd6;" horiz-adv-x="778" d="M137 361 Q137 302 151 245 Q165 188 195.5 143.5 Q226 99 274 72 Q322 45 389 45 Q457 45 504.5 72 Q552 99 582.5 143.5 Q613 188 627 245 Q641 302 641 361 Q641 420 627 477 Q613 534 582.5 578.5 Q552 623 504.5 650 Q457 677 389 677 Q322 677 274 650 Q226 623 195.5 578.5 Q165 534 151 477 Q137 420 137 361 Z M711 361 Q711 277 690 207.5 Q669 138 628 88.5 Q587 39 527 12 Q467 -15 389 -15 Q311 -15 251 12 Q191 39 150 88.5 Q109 138 88 207.5 Q67 277 67 361 Q67 445 88 514.5 Q109 584 150 633.5 Q191 683 251 710 Q311 737 389 737 Q467 737 527 710 Q587 683 628 633.5 Q669 584 690 514.5 Q711 445 711 361 Z M439 839 L439 927 L513 927 L513 839 L439 839 Z M265 839 L265 927 L339 927 L339 839 L265 839 Z " />
<glyph glyph-name="multiply" unicode="&#xd7;" horiz-adv-x="660" d="M117 6 L80 42 L294 253 L80 464 L117 502 L331 290 L543 502 L580 464 L368 253 L580 42 L543 6 L331 216 L117 6 Z " />
<glyph glyph-name="Oslash" unicode="&#xd8;" horiz-adv-x="778" d="M571 593 Q540 632 495 654.5 Q450 677 389 677 Q322 677 274 650 Q226 623 195.5 578.5 Q165 534 151 477 Q137 420 137 361 Q137 306 148.5 254 Q160 202 186 160 L571 593 Z M83 -15 L54 12 L138 106 Q103 154 85 218.5 Q67 283 67 361 Q67 445 88 514.5 Q109 584 150 633.5 Q191 683 251 710 Q311 737 389 737 Q462 737 519 713 Q576 689 617 645 L699 737 L726 712 L641 615 Q711 518 711 361 Q711 277 690 207.5 Q669 138 628 88.5 Q587 39 527 12 Q467 -15 389 -15 Q317 -15 261 8 Q205 31 163 76 L83 -15 Z M209 127 Q239 89 283.5 67 Q328 45 389 45 Q457 45 504.5 72 Q552 99 582.5 143.5 Q613 188 627 245 Q641 302 641 361 Q641 415 629.5 466.5 Q618 518 593 561 L209 127 Z " />
<glyph glyph-name="Ugrave" unicode="&#xd9;" horiz-adv-x="722" d="M162 722 L162 255 Q166 156 218.5 100.5 Q271 45 361 45 Q451 45 503.5 100.5 Q556 156 560 255 L560 722 L625 722 L625 254 Q624 196 607.5 146.5 Q591 97 558 61 Q525 25 476 5 Q427 -15 361 -15 Q295 -15 246 5 Q197 25 164 61 Q131 97 114.5 146.5 Q98 196 97 254 L97 722 L162 722 Z M322 927 L413 784 L369 784 L242 927 L322 927 Z " />
<glyph glyph-name="Uacute" unicode="&#xda;" horiz-adv-x="722" d="M162 722 L162 255 Q166 156 218.5 100.5 Q271 45 361 45 Q451 45 503.5 100.5 Q556 156 560 255 L560 722 L625 722 L625 254 Q624 196 607.5 146.5 Q591 97 558 61 Q525 25 476 5 Q427 -15 361 -15 Q295 -15 246 5 Q197 25 164 61 Q131 97 114.5 146.5 Q98 196 97 254 L97 722 L162 722 Z M480 927 L353 784 L309 784 L400 927 L480 927 Z " />
<glyph glyph-name="Ucircumflex" unicode="&#xdb;" horiz-adv-x="722" d="M162 722 L162 255 Q166 156 218.5 100.5 Q271 45 361 45 Q451 45 503.5 100.5 Q556 156 560 255 L560 722 L625 722 L625 254 Q624 196 607.5 146.5 Q591 97 558 61 Q525 25 476 5 Q427 -15 361 -15 Q295 -15 246 5 Q197 25 164 61 Q131 97 114.5 146.5 Q98 196 97 254 L97 722 L162 722 Z M325 927 L398 927 L497 782 L450 782 L361 888 L271 782 L225 782 L325 927 Z " />
<glyph glyph-name="Udieresis" unicode="&#xdc;" horiz-adv-x="722" d="M162 722 L162 255 Q166 156 218.5 100.5 Q271 45 361 45 Q451 45 503.5 100.5 Q556 156 560 255 L560 722 L625 722 L625 254 Q624 196 607.5 146.5 Q591 97 558 61 Q525 25 476 5 Q427 -15 361 -15 Q295 -15 246 5 Q197 25 164 61 Q131 97 114.5 146.5 Q98 196 97 254 L97 722 L162 722 Z M411 839 L411 927 L485 927 L485 839 L411 839 Z M237 839 L237 927 L311 927 L311 839 L237 839 Z " />
<glyph glyph-name="Yacute" unicode="&#xdd;" horiz-adv-x="611" d="M274 312 L8 722 L91 722 L312 373 L533 722 L603 722 L339 314 L339 0 L274 0 L274 312 Z M425 927 L298 784 L254 784 L345 927 L425 927 Z " />
<glyph glyph-name="Thorn" unicode="&#xde;" horiz-adv-x="611" d="M165 219 L323 219 Q359 219 392.5 225.5 Q426 232 451 248.5 Q476 265 491 293 Q506 321 506 363 Q506 405 491 433 Q476 461 451 477.5 Q426 494 392.5 500.5 Q359 507 323 507 L165 507 L165 219 Z M100 722 L165 722 L165 567 L308 567 Q358 567 406.5 559.5 Q455 552 492.5 529.5 Q530 507 553 467.5 Q576 428 576 363 Q576 299 553 259 Q530 219 492.5 196.5 Q455 174 406.5 166.5 Q358 159 308 159 L165 159 L165 0 L100 0 L100 722 Z " />
<glyph glyph-name="germandbls" unicode="&#xdf;" horiz-adv-x="611" d="M147 0 L87 0 L87 509 Q87 560 99.5 602 Q112 644 137 674 Q162 704 200.5 720.5 Q239 737 292 737 Q327 737 359.5 727 Q392 717 417 697.5 Q442 678 457 649 Q472 620 472 582 Q472 552 453.5 527.5 Q435 503 413 481 Q391 459 372.5 439.5 Q354 420 354 402 Q354 378 370 360.5 Q386 343 410 328.5 Q434 314 462 299.5 Q490 285 514 265.5 Q538 246 554 219.5 Q570 193 570 154 Q570 114 556.5 82.5 Q543 51 519.5 29.5 Q496 8 464.5 -3.5 Q433 -15 398 -15 Q326 -15 282.5 26.5 Q239 68 236 141 L301 141 Q299 95 326 67.5 Q353 40 396 40 Q446 40 475.5 67 Q505 94 505 151 Q505 180 489 200 Q473 220 449 236 Q425 252 397 267 Q369 282 345 299.5 Q321 317 305 339.5 Q289 362 289 395 Q289 427 307.5 451 Q326 475 348 496 Q370 517 388.5 537.5 Q407 558 407 584 Q407 609 396 627.5 Q385 646 368 658 Q351 670 329 676 Q307 682 285 682 Q244 682 217.5 664 Q191 646 175.5 618 Q160 590 153.5 555.5 Q147 521 147 488 L147 0 Z " />
<glyph glyph-name="agrave" unicode="&#xe0;" horiz-adv-x="500" d="M101 140 Q101 89 134.5 64.5 Q168 40 214 40 Q263 40 293.5 58.5 Q324 77 340.5 107 Q357 137 361.5 175.5 Q366 214 364 253 Q332 252 287 252 Q242 252 200.5 243 Q159 234 130 210.5 Q101 187 101 140 Z M364 354 Q359 416 329 439 Q299 462 245 462 Q198 462 163 444 Q128 426 122 375 L58 375 Q64 414 80.5 441 Q97 468 121.5 485 Q146 502 178 509.5 Q210 517 246 517 Q330 517 378 477.5 Q426 438 424 351 L424 113 Q423 84 425 55 Q427 26 429 0 L367 0 L365 74 L363 74 L360 67 Q352 51 336 36.5 Q320 22 299 10.5 Q278 -1 253.5 -8 Q229 -15 203 -15 Q168 -15 137.5 -4.5 Q107 6 84.5 26 Q62 46 49 74.5 Q36 103 36 140 Q36 191 64 228.5 Q92 266 137 285 Q162 296 190.5 300.5 Q219 305 248.5 306 Q278 307 307.5 307 Q337 307 364 308 L364 354 Z M211 707 L302 564 L258 564 L131 707 L211 707 Z " />
<glyph glyph-name="aacute" unicode="&#xe1;" horiz-adv-x="500" d="M101 140 Q101 89 134.5 64.5 Q168 40 214 40 Q263 40 293.5 58.5 Q324 77 340.5 107 Q357 137 361.5 175.5 Q366 214 364 253 Q332 252 287 252 Q242 252 200.5 243 Q159 234 130 210.5 Q101 187 101 140 Z M364 354 Q359 416 329 439 Q299 462 245 462 Q198 462 163 444 Q128 426 122 375 L58 375 Q64 414 80.5 441 Q97 468 121.5 485 Q146 502 178 509.5 Q210 517 246 517 Q330 517 378 477.5 Q426 438 424 351 L424 113 Q423 84 425 55 Q427 26 429 0 L367 0 L365 74 L363 74 L360 67 Q352 51 336 36.5 Q320 22 299 10.5 Q278 -1 253.5 -8 Q229 -15 203 -15 Q168 -15 137.5 -4.5 Q107 6 84.5 26 Q62 46 49 74.5 Q36 103 36 140 Q36 191 64 228.5 Q92 266 137 285 Q162 296 190.5 300.5 Q219 305 248.5 306 Q278 307 307.5 307 Q337 307 364 308 L364 354 Z M369 707 L242 564 L198 564 L289 707 L369 707 Z " />
<glyph glyph-name="acircumflex" unicode="&#xe2;" horiz-adv-x="500" d="M101 140 Q101 89 134.5 64.5 Q168 40 214 40 Q263 40 293.5 58.5 Q324 77 340.5 107 Q357 137 361.5 175.5 Q366 214 364 253 Q332 252 287 252 Q242 252 200.5 243 Q159 234 130 210.5 Q101 187 101 140 Z M364 354 Q359 416 329 439 Q299 462 245 462 Q198 462 163 444 Q128 426 122 375 L58 375 Q64 414 80.5 441 Q97 468 121.5 485 Q146 502 178 509.5 Q210 517 246 517 Q330 517 378 477.5 Q426 438 424 351 L424 113 Q423 84 425 55 Q427 26 429 0 L367 0 L365 74 L363 74 L360 67 Q352 51 336 36.5 Q320 22 299 10.5 Q278 -1 253.5 -8 Q229 -15 203 -15 Q168 -15 137.5 -4.5 Q107 6 84.5 26 Q62 46 49 74.5 Q36 103 36 140 Q36 191 64 228.5 Q92 266 137 285 Q162 296 190.5 300.5 Q219 305 248.5 306 Q278 307 307.5 307 Q337 307 364 308 L364 354 Z M214 707 L287 707 L386 562 L339 562 L250 668 L160 562 L114 562 L214 707 Z " />
<glyph glyph-name="atilde" unicode="&#xe3;" horiz-adv-x="500" d="M101 140 Q101 89 134.5 64.5 Q168 40 214 40 Q263 40 293.5 58.5 Q324 77 340.5 107 Q357 137 361.5 175.5 Q366 214 364 253 Q332 252 287 252 Q242 252 200.5 243 Q159 234 130 210.5 Q101 187 101 140 Z M364 354 Q359 416 329 439 Q299 462 245 462 Q198 462 163 444 Q128 426 122 375 L58 375 Q64 414 80.5 441 Q97 468 121.5 485 Q146 502 178 509.5 Q210 517 246 517 Q330 517 378 477.5 Q426 438 424 351 L424 113 Q423 84 425 55 Q427 26 429 0 L367 0 L365 74 L363 74 L360 67 Q352 51 336 36.5 Q320 22 299 10.5 Q278 -1 253.5 -8 Q229 -15 203 -15 Q168 -15 137.5 -4.5 Q107 6 84.5 26 Q62 46 49 74.5 Q36 103 36 140 Q36 191 64 228.5 Q92 266 137 285 Q162 296 190.5 300.5 Q219 305 248.5 306 Q278 307 307.5 307 Q337 307 364 308 L364 354 Z M388 695 Q380 661 357.5 635.5 Q335 610 297 610 Q286 610 275 613 Q264 616 252 621 Q241 625 227.5 628 Q214 631 198 631 Q183 631 169 624 Q155 617 151 602 L113 602 Q122 643 149.5 666 Q177 689 221 682 Q228 681 239 678 Q250 675 261 671 Q272 668 283 665 Q294 662 300 662 Q317 662 330.5 670.5 Q344 679 350 695 L388 695 Z " />
<glyph glyph-name="adieresis" unicode="&#xe4;" horiz-adv-x="500" d="M101 140 Q101 89 134.5 64.5 Q168 40 214 40 Q263 40 293.5 58.5 Q324 77 340.5 107 Q357 137 361.5 175.5 Q366 214 364 253 Q332 252 287 252 Q242 252 200.5 243 Q159 234 130 210.5 Q101 187 101 140 Z M364 354 Q359 416 329 439 Q299 462 245 462 Q198 462 163 444 Q128 426 122 375 L58 375 Q64 414 80.5 441 Q97 468 121.5 485 Q146 502 178 509.5 Q210 517 246 517 Q330 517 378 477.5 Q426 438 424 351 L424 113 Q423 84 425 55 Q427 26 429 0 L367 0 L365 74 L363 74 L360 67 Q352 51 336 36.5 Q320 22 299 10.5 Q278 -1 253.5 -8 Q229 -15 203 -15 Q168 -15 137.5 -4.5 Q107 6 84.5 26 Q62 46 49 74.5 Q36 103 36 140 Q36 191 64 228.5 Q92 266 137 285 Q162 296 190.5 300.5 Q219 305 248.5 306 Q278 307 307.5 307 Q337 307 364 308 L364 354 Z M300 619 L300 707 L374 707 L374 619 L300 619 Z M126 619 L126 707 L200 707 L200 619 L126 619 Z " />
<glyph glyph-name="aring" unicode="&#xe5;" horiz-adv-x="500" d="M101 140 Q101 89 134.5 64.5 Q168 40 214 40 Q263 40 293.5 58.5 Q324 77 340.5 107 Q357 137 361.5 175.5 Q366 214 364 253 Q332 252 287 252 Q242 252 200.5 243 Q159 234 130 210.5 Q101 187 101 140 Z M364 354 Q359 416 329 439 Q299 462 245 462 Q198 462 163 444 Q128 426 122 375 L58 375 Q64 414 80.5 441 Q97 468 121.5 485 Q146 502 178 509.5 Q210 517 246 517 Q330 517 378 477.5 Q426 438 424 351 L424 113 Q423 84 425 55 Q427 26 429 0 L367 0 L365 74 L363 74 L360 67 Q352 51 336 36.5 Q320 22 299 10.5 Q278 -1 253.5 -8 Q229 -15 203 -15 Q168 -15 137.5 -4.5 Q107 6 84.5 26 Q62 46 49 74.5 Q36 103 36 140 Q36 191 64 228.5 Q92 266 137 285 Q162 296 190.5 300.5 Q219 305 248.5 306 Q278 307 307.5 307 Q337 307 364 308 L364 354 Z M162 649 Q162 667 169 683 Q176 699 188 711 Q200 723 216 730 Q232 737 250 737 Q286 737 312 711 Q338 685 338 649 Q338 631 331 615 Q324 599 312 587 Q300 575 284 568 Q268 561 250 561 Q232 561 216 568 Q200 575 188 587 Q176 599 169 615 Q162 631 162 649 Z M305 649 Q305 670 288 687 Q271 704 250 704 Q229 704 212 687.5 Q195 671 195 649 Q195 629 212 611.5 Q229 594 250 594 Q270 594 287.5 611.5 Q305 629 305 649 Z " />
<glyph glyph-name="ae" unicode="&#xe6;" horiz-adv-x="833" d="M713 299 Q713 332 705 361.5 Q697 391 679.5 413.5 Q662 436 634.5 449 Q607 462 567 462 Q533 462 507 447 Q481 432 463 408.5 Q445 385 436 356 Q427 327 428 299 L713 299 Z M58 375 Q64 414 80.5 441 Q97 468 121.5 485 Q146 502 178 509.5 Q210 517 246 517 Q271 515 296.5 508 Q322 501 344 488 Q366 475 381.5 456.5 Q397 438 403 412 L405 412 Q428 466 471.5 490.5 Q515 515 559 517 Q618 517 660 495.5 Q702 474 728 437 Q754 400 766 350 Q778 300 778 244 L428 244 Q427 206 433.5 169.5 Q440 133 456 104 Q472 75 498.5 57.5 Q525 40 564 40 Q618 40 658 74 Q698 108 709 160 L772 160 Q749 69 695 27 Q641 -15 565 -15 Q511 -10 466 18.5 Q421 47 398 104 Q376 45 323.5 17.5 Q271 -10 203 -15 Q168 -15 137.5 -4.5 Q107 6 84.5 26 Q62 46 49 74.5 Q36 103 36 140 Q36 191 65 224.5 Q94 258 137 277 Q162 288 190.5 292.5 Q219 297 248 298 Q277 299 306.5 298.5 Q336 298 363 299 L363 354 Q358 416 328.5 439 Q299 462 245 462 Q198 462 163 444 Q128 426 122 375 L58 375 Z M363 243 L286 244 Q252 244 218.5 241.5 Q185 239 159 227.5 Q133 216 117 192.5 Q101 169 101 126 Q101 104 112 87.5 Q123 71 140 60.5 Q157 50 177 45 Q197 40 216 40 Q264 40 293.5 57 Q323 74 338.5 102.5 Q354 131 359 167.5 Q364 204 363 243 Z " />
<glyph glyph-name="ccedilla" unicode="&#xe7;" horiz-adv-x="500" d="M165 -133 Q187 -141 209 -147.5 Q231 -154 254 -158 Q261 -159 275.5 -155.5 Q290 -152 296 -147 Q304 -139 306 -132.5 Q308 -126 308 -115 Q308 -94 292.5 -86.5 Q277 -79 260 -79 Q252 -79 243.5 -80 Q235 -81 227 -82 L249 -14 Q197 -11 158.5 12.5 Q120 36 95 72.5 Q70 109 58 155.5 Q46 202 46 251 Q46 302 60 350 Q74 398 102 435 Q130 472 172 494.5 Q214 517 270 517 Q309 517 343 505.5 Q377 494 403 472.5 Q429 451 444.5 419.5 Q460 388 462 348 L397 348 Q393 406 358 434 Q323 462 260 462 Q226 462 198 445 Q170 428 151 399.5 Q132 371 121.5 333 Q111 295 111 252 Q111 209 121.5 170.5 Q132 132 151 103 Q170 74 198 57 Q226 40 260 40 Q319 40 356 72.5 Q393 105 397 157 L462 157 Q438 -12 273 -14 L263 -50 Q282 -50 300 -52 Q318 -54 332.5 -61 Q347 -68 355.5 -81.5 Q364 -95 364 -117 Q364 -135 355 -147.5 Q346 -160 332.5 -168 Q319 -176 302.5 -179.5 Q286 -183 271 -183 Q252 -183 238.5 -181.5 Q225 -180 213 -177 Q201 -174 188.5 -170 Q176 -166 158 -161 L165 -133 Z " />
<glyph glyph-name="egrave" unicode="&#xe8;" horiz-adv-x="556" d="M115 237 Q116 197 126 161 Q136 125 157 98 Q178 71 210.5 55.5 Q243 40 289 40 Q343 40 383 74 Q423 108 434 160 L497 160 Q474 69 417.5 27 Q361 -15 270 -15 Q214 -15 172.5 7.5 Q131 30 104 67 Q77 104 63.5 152 Q50 200 50 251 Q50 302 64 350 Q78 398 106 435 Q134 472 176 494.5 Q218 517 274 517 Q337 517 380.5 495.5 Q424 474 451.5 436 Q479 398 491 347 Q503 296 503 237 L115 237 Z M438 292 Q435 328 424 359.5 Q413 391 393 413.5 Q373 436 343.5 449 Q314 462 275 462 Q238 462 210 448 Q182 434 162.5 410 Q143 386 131.5 355.5 Q120 325 117 292 L438 292 Z M239 707 L330 564 L286 564 L159 707 L239 707 Z " />
<glyph glyph-name="eacute" unicode="&#xe9;" horiz-adv-x="556" d="M115 237 Q116 197 126 161 Q136 125 157 98 Q178 71 210.5 55.5 Q243 40 289 40 Q343 40 383 74 Q423 108 434 160 L497 160 Q474 69 417.5 27 Q361 -15 270 -15 Q214 -15 172.5 7.5 Q131 30 104 67 Q77 104 63.5 152 Q50 200 50 251 Q50 302 64 350 Q78 398 106 435 Q134 472 176 494.5 Q218 517 274 517 Q337 517 380.5 495.5 Q424 474 451.5 436 Q479 398 491 347 Q503 296 503 237 L115 237 Z M438 292 Q435 328 424 359.5 Q413 391 393 413.5 Q373 436 343.5 449 Q314 462 275 462 Q238 462 210 448 Q182 434 162.5 410 Q143 386 131.5 355.5 Q120 325 117 292 L438 292 Z M397 707 L270 564 L226 564 L317 707 L397 707 Z " />
<glyph glyph-name="ecircumflex" unicode="&#xea;" horiz-adv-x="556" d="M115 237 Q116 197 126 161 Q136 125 157 98 Q178 71 210.5 55.5 Q243 40 289 40 Q343 40 383 74 Q423 108 434 160 L497 160 Q474 69 417.5 27 Q361 -15 270 -15 Q214 -15 172.5 7.5 Q131 30 104 67 Q77 104 63.5 152 Q50 200 50 251 Q50 302 64 350 Q78 398 106 435 Q134 472 176 494.5 Q218 517 274 517 Q337 517 380.5 495.5 Q424 474 451.5 436 Q479 398 491 347 Q503 296 503 237 L115 237 Z M438 292 Q435 328 424 359.5 Q413 391 393 413.5 Q373 436 343.5 449 Q314 462 275 462 Q238 462 210 448 Q182 434 162.5 410 Q143 386 131.5 355.5 Q120 325 117 292 L438 292 Z M242 707 L315 707 L414 562 L367 562 L278 668 L188 562 L142 562 L242 707 Z " />
<glyph glyph-name="edieresis" unicode="&#xeb;" horiz-adv-x="556" d="M115 237 Q116 197 126 161 Q136 125 157 98 Q178 71 210.5 55.5 Q243 40 289 40 Q343 40 383 74 Q423 108 434 160 L497 160 Q474 69 417.5 27 Q361 -15 270 -15 Q214 -15 172.5 7.5 Q131 30 104 67 Q77 104 63.5 152 Q50 200 50 251 Q50 302 64 350 Q78 398 106 435 Q134 472 176 494.5 Q218 517 274 517 Q337 517 380.5 495.5 Q424 474 451.5 436 Q479 398 491 347 Q503 296 503 237 L115 237 Z M438 292 Q435 328 424 359.5 Q413 391 393 413.5 Q373 436 343.5 449 Q314 462 275 462 Q238 462 210 448 Q182 434 162.5 410 Q143 386 131.5 355.5 Q120 325 117 292 L438 292 Z M328 619 L328 707 L402 707 L402 619 L328 619 Z M154 619 L154 707 L228 707 L228 619 L154 619 Z " />
<glyph glyph-name="igrave" unicode="&#xec;" horiz-adv-x="222" d="M81 0 L81 502 L141 502 L141 0 L81 0 Z M72 707 L163 564 L119 564 L-8 707 L72 707 Z " />
<glyph glyph-name="iacute" unicode="&#xed;" horiz-adv-x="222" d="M81 0 L81 502 L141 502 L141 0 L81 0 Z M230 707 L103 564 L59 564 L150 707 L230 707 Z " />
<glyph glyph-name="icircumflex" unicode="&#xee;" horiz-adv-x="222" d="M81 0 L81 502 L141 502 L141 0 L81 0 Z M75 707 L148 707 L247 562 L200 562 L111 668 L21 562 L-25 562 L75 707 Z " />
<glyph glyph-name="idieresis" unicode="&#xef;" horiz-adv-x="222" d="M81 0 L81 502 L141 502 L141 0 L81 0 Z M161 619 L161 707 L235 707 L235 619 L161 619 Z M-13 619 L-13 707 L61 707 L61 619 L-13 619 Z " />
<glyph glyph-name="eth" unicode="&#xf0;" horiz-adv-x="556" d="M172 737 Q195 732 211.5 727.5 Q228 723 241.5 718 Q255 713 268.5 707 Q282 701 299 692 L392 750 L422 722 L337 669 Q361 653 391 625 Q421 597 448 550 Q475 503 493.5 434.5 Q512 366 512 268 Q512 135 452.5 60 Q393 -15 278 -15 Q218 -15 174 7 Q130 29 101 64.5 Q72 100 58 145 Q44 190 44 237 Q44 284 58 329.5 Q72 375 100 410.5 Q128 446 170.5 468 Q213 490 270 490 Q314 490 344.5 476 Q375 462 396 441.5 Q417 421 429.5 399 Q442 377 448 361 L450 363 Q447 396 437 434 Q427 472 408.5 508.5 Q390 545 360.5 579 Q331 613 289 639 L196 582 L167 611 L250 662 Q238 668 228.5 672.5 Q219 677 209 680.5 Q199 684 186.5 688 Q174 692 155 697 L172 737 Z M109 237 Q109 204 118.5 168.5 Q128 133 148 104 Q168 75 200.5 56 Q233 37 278 37 Q323 37 355.5 56 Q388 75 408 104 Q428 133 437.5 168.5 Q447 204 447 237 Q447 270 437.5 306 Q428 342 408 371 Q388 400 355.5 419 Q323 438 278 438 Q233 438 200.5 419 Q168 400 148 371 Q128 342 118.5 306 Q109 270 109 237 Z " />
<glyph glyph-name="ntilde" unicode="&#xf1;" horiz-adv-x="556" d="M140 0 L80 0 L80 389 Q80 418 78.5 447 Q77 476 75 502 L137 502 L140 428 L142 426 Q168 473 209 495 Q250 517 299 517 Q361 517 396 493.5 Q431 470 449 437.5 Q467 405 471.5 370.5 Q476 336 476 314 L476 0 L416 0 L416 324 Q416 390 381 426 Q346 462 284 462 Q247 462 220 447.5 Q193 433 175 409 Q157 385 148.5 354 Q140 323 140 289 L140 0 Z M416 695 Q408 661 385.5 635.5 Q363 610 325 610 Q314 610 303 613 Q292 616 280 621 Q269 625 255.5 628 Q242 631 226 631 Q211 631 197 624 Q183 617 179 602 L141 602 Q150 643 177.5 666 Q205 689 249 682 Q256 681 267 678 Q278 675 289 671 Q300 668 311 665 Q322 662 328 662 Q345 662 358.5 670.5 Q372 679 378 695 L416 695 Z " />
<glyph glyph-name="ograve" unicode="&#xf2;" horiz-adv-x="556" d="M447 251 Q447 286 437.5 323.5 Q428 361 408 391.5 Q388 422 355.5 442 Q323 462 278 462 Q233 462 200.5 442 Q168 422 148 391.5 Q128 361 118.5 323.5 Q109 286 109 251 Q109 216 118.5 178.5 Q128 141 148 110.5 Q168 80 200.5 60 Q233 40 278 40 Q323 40 355.5 60 Q388 80 408 110.5 Q428 141 437.5 178.5 Q447 216 447 251 Z M278 517 Q338 517 382 494 Q426 471 455 433.5 Q484 396 498 348.5 Q512 301 512 251 Q512 202 498 154 Q484 106 455 68.5 Q426 31 382 8 Q338 -15 278 -15 Q218 -15 174 8 Q130 31 101 68.5 Q72 106 58 154 Q44 202 44 251 Q44 301 58 348.5 Q72 396 101 433.5 Q130 471 174 494 Q218 517 278 517 Z M239 707 L330 564 L286 564 L159 707 L239 707 Z " />
<glyph glyph-name="oacute" unicode="&#xf3;" horiz-adv-x="556" d="M447 251 Q447 286 437.5 323.5 Q428 361 408 391.5 Q388 422 355.5 442 Q323 462 278 462 Q233 462 200.5 442 Q168 422 148 391.5 Q128 361 118.5 323.5 Q109 286 109 251 Q109 216 118.5 178.5 Q128 141 148 110.5 Q168 80 200.5 60 Q233 40 278 40 Q323 40 355.5 60 Q388 80 408 110.5 Q428 141 437.5 178.5 Q447 216 447 251 Z M278 517 Q338 517 382 494 Q426 471 455 433.5 Q484 396 498 348.5 Q512 301 512 251 Q512 202 498 154 Q484 106 455 68.5 Q426 31 382 8 Q338 -15 278 -15 Q218 -15 174 8 Q130 31 101 68.5 Q72 106 58 154 Q44 202 44 251 Q44 301 58 348.5 Q72 396 101 433.5 Q130 471 174 494 Q218 517 278 517 Z M397 707 L270 564 L226 564 L317 707 L397 707 Z " />
<glyph glyph-name="ocircumflex" unicode="&#xf4;" horiz-adv-x="556" d="M447 251 Q447 286 437.5 323.5 Q428 361 408 391.5 Q388 422 355.5 442 Q323 462 278 462 Q233 462 200.5 442 Q168 422 148 391.5 Q128 361 118.5 323.5 Q109 286 109 251 Q109 216 118.5 178.5 Q128 141 148 110.5 Q168 80 200.5 60 Q233 40 278 40 Q323 40 355.5 60 Q388 80 408 110.5 Q428 141 437.5 178.5 Q447 216 447 251 Z M278 517 Q338 517 382 494 Q426 471 455 433.5 Q484 396 498 348.5 Q512 301 512 251 Q512 202 498 154 Q484 106 455 68.5 Q426 31 382 8 Q338 -15 278 -15 Q218 -15 174 8 Q130 31 101 68.5 Q72 106 58 154 Q44 202 44 251 Q44 301 58 348.5 Q72 396 101 433.5 Q130 471 174 494 Q218 517 278 517 Z M242 707 L315 707 L414 562 L367 562 L278 668 L188 562 L142 562 L242 707 Z " />
<glyph glyph-name="otilde" unicode="&#xf5;" horiz-adv-x="556" d="M447 251 Q447 286 437.5 323.5 Q428 361 408 391.5 Q388 422 355.5 442 Q323 462 278 462 Q233 462 200.5 442 Q168 422 148 391.5 Q128 361 118.5 323.5 Q109 286 109 251 Q109 216 118.5 178.5 Q128 141 148 110.5 Q168 80 200.5 60 Q233 40 278 40 Q323 40 355.5 60 Q388 80 408 110.5 Q428 141 437.5 178.5 Q447 216 447 251 Z M278 517 Q338 517 382 494 Q426 471 455 433.5 Q484 396 498 348.5 Q512 301 512 251 Q512 202 498 154 Q484 106 455 68.5 Q426 31 382 8 Q338 -15 278 -15 Q218 -15 174 8 Q130 31 101 68.5 Q72 106 58 154 Q44 202 44 251 Q44 301 58 348.5 Q72 396 101 433.5 Q130 471 174 494 Q218 517 278 517 Z M416 695 Q408 661 385.5 635.5 Q363 610 325 610 Q314 610 303 613 Q292 616 280 621 Q269 625 255.5 628 Q242 631 226 631 Q211 631 197 624 Q183 617 179 602 L141 602 Q150 643 177.5 666 Q205 689 249 682 Q256 681 267 678 Q278 675 289 671 Q300 668 311 665 Q322 662 328 662 Q345 662 358.5 670.5 Q372 679 378 695 L416 695 Z " />
<glyph glyph-name="odieresis" unicode="&#xf6;" horiz-adv-x="556" d="M447 251 Q447 286 437.5 323.5 Q428 361 408 391.5 Q388 422 355.5 442 Q323 462 278 462 Q233 462 200.5 442 Q168 422 148 391.5 Q128 361 118.5 323.5 Q109 286 109 251 Q109 216 118.5 178.5 Q128 141 148 110.5 Q168 80 200.5 60 Q233 40 278 40 Q323 40 355.5 60 Q388 80 408 110.5 Q428 141 437.5 178.5 Q447 216 447 251 Z M278 517 Q338 517 382 494 Q426 471 455 433.5 Q484 396 498 348.5 Q512 301 512 251 Q512 202 498 154 Q484 106 455 68.5 Q426 31 382 8 Q338 -15 278 -15 Q218 -15 174 8 Q130 31 101 68.5 Q72 106 58 154 Q44 202 44 251 Q44 301 58 348.5 Q72 396 101 433.5 Q130 471 174 494 Q218 517 278 517 Z M328 619 L328 707 L402 707 L402 619 L328 619 Z M154 619 L154 707 L228 707 L228 619 L154 619 Z " />
<glyph glyph-name="divide" unicode="&#xf7;" horiz-adv-x="660" d="M80 281 L580 281 L580 221 L80 221 L80 281 Z M293 0 L293 88 L368 88 L368 0 L293 0 Z M293 414 L293 502 L368 502 L368 414 L293 414 Z " />
<glyph glyph-name="oslash" unicode="&#xf8;" horiz-adv-x="556" d="M395 407 Q375 432 346 447 Q317 462 278 462 Q233 462 200.5 442 Q168 422 148 391.5 Q128 361 118.5 323.5 Q109 286 109 251 Q109 221 116 188.5 Q123 156 140 127 L395 407 Z M159 97 Q179 72 208 56 Q237 40 278 40 Q323 40 355.5 60 Q388 80 408 110.5 Q428 141 437.5 178.5 Q447 216 447 251 Q447 283 439.5 315.5 Q432 348 415 377 L159 97 Z M95 78 Q69 115 56.5 159.5 Q44 204 44 251 Q44 301 58 348.5 Q72 396 101 433.5 Q130 471 174 494 Q218 517 278 517 Q330 517 369.5 499.5 Q409 482 437 453 L496 517 L520 492 L460 426 Q486 389 499 344 Q512 299 512 251 Q512 202 498 154 Q484 106 455 68.5 Q426 31 382 8 Q338 -15 278 -15 Q225 -15 185 3 Q145 21 117 50 L57 -15 L33 10 L95 78 Z " />
<glyph glyph-name="ugrave" unicode="&#xf9;" horiz-adv-x="556" d="M416 502 L476 502 L476 113 Q476 84 477.5 55 Q479 26 481 0 L419 0 L416 74 L414 76 Q388 29 347 7 Q306 -15 257 -15 Q196 -15 160.5 8.5 Q125 32 107 64.5 Q89 97 84.5 131.5 Q80 166 80 188 L80 502 L140 502 L140 178 Q140 112 175 76 Q210 40 272 40 Q309 40 336 54.5 Q363 69 381 93 Q399 117 407.5 148 Q416 179 416 213 L416 502 Z M239 707 L330 564 L286 564 L159 707 L239 707 Z " />
<glyph glyph-name="uacute" unicode="&#xfa;" horiz-adv-x="556" d="M416 502 L476 502 L476 113 Q476 84 477.5 55 Q479 26 481 0 L419 0 L416 74 L414 76 Q388 29 347 7 Q306 -15 257 -15 Q196 -15 160.5 8.5 Q125 32 107 64.5 Q89 97 84.5 131.5 Q80 166 80 188 L80 502 L140 502 L140 178 Q140 112 175 76 Q210 40 272 40 Q309 40 336 54.5 Q363 69 381 93 Q399 117 407.5 148 Q416 179 416 213 L416 502 Z M397 707 L270 564 L226 564 L317 707 L397 707 Z " />
<glyph glyph-name="ucircumflex" unicode="&#xfb;" horiz-adv-x="556" d="M416 502 L476 502 L476 113 Q476 84 477.5 55 Q479 26 481 0 L419 0 L416 74 L414 76 Q388 29 347 7 Q306 -15 257 -15 Q196 -15 160.5 8.5 Q125 32 107 64.5 Q89 97 84.5 131.5 Q80 166 80 188 L80 502 L140 502 L140 178 Q140 112 175 76 Q210 40 272 40 Q309 40 336 54.5 Q363 69 381 93 Q399 117 407.5 148 Q416 179 416 213 L416 502 Z M242 707 L315 707 L414 562 L367 562 L278 668 L188 562 L142 562 L242 707 Z " />
<glyph glyph-name="udieresis" unicode="&#xfc;" horiz-adv-x="556" d="M416 502 L476 502 L476 113 Q476 84 477.5 55 Q479 26 481 0 L419 0 L416 74 L414 76 Q388 29 347 7 Q306 -15 257 -15 Q196 -15 160.5 8.5 Q125 32 107 64.5 Q89 97 84.5 131.5 Q80 166 80 188 L80 502 L140 502 L140 178 Q140 112 175 76 Q210 40 272 40 Q309 40 336 54.5 Q363 69 381 93 Q399 117 407.5 148 Q416 179 416 213 L416 502 Z M328 619 L328 707 L402 707 L402 619 L328 619 Z M154 619 L154 707 L228 707 L228 619 L154 619 Z " />
<glyph glyph-name="yacute" unicode="&#xfd;" horiz-adv-x="500" d="M81 502 L250 82 L418 502 L483 502 L206 -192 L140 -192 L216 0 L8 502 L81 502 Z M369 707 L242 564 L198 564 L289 707 L369 707 Z " />
<glyph glyph-name="thorn" unicode="&#xfe;" horiz-adv-x="556" d="M130 263 Q130 220 138.5 180 Q147 140 166.5 109 Q186 78 219 59 Q252 40 301 40 Q344 40 372 61.5 Q400 83 416 115.5 Q432 148 438.5 186.5 Q445 225 445 260 Q445 296 437 332 Q429 368 411 397 Q393 426 364 444 Q335 462 292 462 Q248 462 217.5 445.5 Q187 429 167.5 401 Q148 373 139 337 Q130 301 130 263 Z M130 -192 L70 -192 L70 722 L130 722 L130 428 L132 426 Q158 471 205.5 494 Q253 517 304 517 Q360 517 399 494 Q438 471 463 433.5 Q488 396 499 349 Q510 302 510 253 Q510 206 499 158 Q488 110 463.5 71.5 Q439 33 400.5 9 Q362 -15 307 -15 Q252 -15 207.5 9 Q163 33 132 78 L130 78 L130 -192 Z " />
<glyph glyph-name="ydieresis" unicode="&#xff;" horiz-adv-x="500" d="M81 502 L250 82 L418 502 L483 502 L206 -192 L140 -192 L216 0 L8 502 L81 502 Z M300 619 L300 707 L374 707 L374 619 L300 619 Z M126 619 L126 707 L200 707 L200 619 L126 619 Z " />
<glyph glyph-name="dotlessi" unicode="&#x131;" horiz-adv-x="222" d="M81 0 L81 502 L141 502 L141 0 L81 0 Z " />
<glyph glyph-name="Lslash" unicode="&#x141;" horiz-adv-x="556" d="M100 0 L100 399 L6 362 L6 402 L100 439 L100 722 L165 722 L165 465 L259 502 L259 462 L165 425 L165 60 L528 60 L528 0 L100 0 Z " />
<glyph glyph-name="lslash" unicode="&#x142;" horiz-adv-x="222" d="M141 722 L141 472 L217 502 L217 468 L141 437 L141 0 L81 0 L81 413 L5 383 L5 417 L81 448 L81 722 L141 722 Z " />
<glyph glyph-name="OE" unicode="&#x152;" horiz-adv-x="1000" d="M131 361 Q131 302 145 245 Q159 188 187.5 143.5 Q216 99 259.5 72 Q303 45 363 45 Q451 48 502 92.5 Q553 137 553 221 L553 474 Q554 584 504.5 630.5 Q455 677 363 677 Q303 677 259.5 650 Q216 623 187.5 578.5 Q159 534 145 477 Q131 420 131 361 Z M555 69 L551 69 Q535 47 513 31.5 Q491 16 466 5.5 Q441 -5 414.5 -10 Q388 -15 363 -15 Q293 -15 237 12 Q181 39 142 88.5 Q103 138 82 207.5 Q61 277 61 361 Q61 445 82 514.5 Q103 584 142 633.5 Q181 683 237 710 Q293 737 363 737 Q415 737 462.5 721 Q510 705 555 659 L555 722 L931 722 L931 662 L620 662 L620 403 L917 403 L917 343 L620 343 L620 60 L946 60 L946 0 L555 0 L555 69 Z " />
<glyph glyph-name="oe" unicode="&#x153;" horiz-adv-x="889" d="M425 256 Q425 291 417.5 328 Q410 365 392 395 Q374 425 344 444 Q314 463 269 462 Q227 462 197 442 Q167 422 147.5 391.5 Q128 361 118.5 323.5 Q109 286 109 251 Q109 216 118.5 178.5 Q128 141 147.5 110.5 Q167 80 197 60 Q227 40 269 40 Q316 40 346 59.5 Q376 79 393.5 110 Q411 141 418 179.5 Q425 218 425 256 Z M775 292 Q775 328 767 359 Q759 390 741.5 413 Q724 436 696.5 449 Q669 462 629 462 Q595 462 569 447 Q543 432 525 407.5 Q507 383 498 352.5 Q489 322 490 292 L775 292 Z M490 237 Q489 202 495.5 166.5 Q502 131 518 102.5 Q534 74 560.5 56.5 Q587 39 626 40 Q680 40 720 74 Q760 108 771 160 L834 160 Q811 69 757 27 Q703 -15 627 -15 Q599 -15 572 -7.5 Q545 0 522 15.5 Q499 31 482 54.5 Q465 78 457 110 L455 110 Q432 47 383.5 16 Q335 -15 278 -15 Q218 -15 174 8 Q130 31 101 68.5 Q72 106 58 154 Q44 202 44 251 Q44 301 58 348.5 Q72 396 101 433.5 Q130 471 174 494 Q218 517 278 517 Q339 517 385.5 484 Q432 451 456 392 Q466 424 484 447 Q502 470 524.5 486 Q547 502 572 509.5 Q597 517 621 517 Q680 517 722 495.5 Q764 474 790 436 Q816 398 828 347 Q840 296 840 237 L490 237 Z " />
<glyph glyph-name="Scaron" unicode="&#x160;" horiz-adv-x="611" d="M553 190 Q553 131 529.5 91.5 Q506 52 467 28.5 Q428 5 377.5 -5 Q327 -15 273 -15 Q230 -15 191.5 0 Q153 15 123.5 42 Q94 69 76.5 106 Q59 143 58 188 L128 188 Q129 146 143.5 118.5 Q158 91 183 74.5 Q208 58 240.5 51.5 Q273 45 309 45 Q339 45 370 54 Q401 63 426 80 Q451 97 467 123.5 Q483 150 483 184 Q483 211 474 231.5 Q465 252 449.5 267 Q434 282 413.5 292.5 Q393 303 370 310 Q326 325 274.5 341 Q223 357 178.5 382 Q134 407 104.5 445.5 Q75 484 75 542 Q75 589 95 625.5 Q115 662 147.5 687 Q180 712 221 724.5 Q262 737 305 737 Q341 737 379.5 729.5 Q418 722 452 703 Q486 684 510 650.5 Q534 617 540 565 L470 565 Q469 598 455 620 Q441 642 418.5 654.5 Q396 667 368.5 672 Q341 677 313 677 Q285 677 255 669.5 Q225 662 200.5 647 Q176 632 160.5 608 Q145 584 145 551 Q145 500 175 470.5 Q205 441 250.5 421.5 Q296 402 349 387 Q402 372 447.5 349 Q493 326 523 289 Q553 252 553 190 Z M342 782 L269 782 L170 927 L217 927 L306 821 L396 927 L442 927 L342 782 Z " />
<glyph glyph-name="scaron" unicode="&#x161;" horiz-adv-x="500" d="M63 377 Q63 416 79.5 443 Q96 470 122 486.5 Q148 503 181 510 Q214 517 247 517 Q283 517 314.5 510 Q346 503 371 487 Q396 471 411.5 444.5 Q427 418 430 378 L365 378 Q363 402 352 418 Q341 434 324 443.5 Q307 453 285.5 457.5 Q264 462 241 462 Q220 462 199.5 457.5 Q179 453 163.5 443.5 Q148 434 138 418.5 Q128 403 128 381 Q128 353 145.5 338.5 Q163 324 193.5 314 Q224 304 267 294 Q310 284 361 266 Q400 252 423 221 Q446 190 446 149 Q446 107 428 76 Q410 45 380.5 24.5 Q351 4 313 -5.5 Q275 -15 235 -15 Q202 -15 169 -7 Q136 1 109 19 Q82 37 64.5 66 Q47 95 46 137 L111 137 Q113 109 125.5 90.5 Q138 72 157 60.5 Q176 49 200.5 44.5 Q225 40 250 40 Q274 40 297.5 46 Q321 52 339.5 64 Q358 76 369.5 95 Q381 114 381 140 Q381 167 367.5 184 Q354 201 331.5 211.5 Q309 222 280.5 228.5 Q252 235 222 242 Q192 249 163.5 258 Q135 267 112.5 282 Q90 297 76.5 319.5 Q63 342 63 377 Z M286 562 L213 562 L114 707 L161 707 L250 601 L340 707 L386 707 L286 562 Z " />
<glyph glyph-name="Ydieresis" unicode="&#x178;" horiz-adv-x="611" d="M274 312 L8 722 L91 722 L312 373 L533 722 L603 722 L339 314 L339 0 L274 0 L274 312 Z M356 839 L356 927 L430 927 L430 839 L356 839 Z M182 839 L182 927 L256 927 L256 839 L182 839 Z " />
<glyph glyph-name="Zcaron" unicode="&#x17d;" horiz-adv-x="556" d="M39 0 L39 60 L440 662 L39 662 L39 722 L517 722 L517 662 L115 60 L517 60 L517 0 L39 0 Z M314 782 L241 782 L142 927 L189 927 L278 821 L368 927 L414 927 L314 782 Z " />
<glyph glyph-name="zcaron" unicode="&#x17e;" horiz-adv-x="444" d="M40 55 L333 447 L40 447 L40 502 L404 502 L404 447 L113 55 L404 55 L404 0 L40 0 L40 55 Z M258 562 L185 562 L86 707 L133 707 L222 601 L312 707 L358 707 L258 562 Z " />
<glyph glyph-name="florin" unicode="&#x192;" horiz-adv-x="556" d="M139 408 L148 468 L242 468 L258 548 Q263 574 270 602 Q277 630 291.5 653.5 Q306 677 330 692 Q354 707 392 707 Q410 707 427.5 705 Q445 703 463 700 L455 643 Q444 645 433 646 Q422 647 411 647 Q366 647 350 625 Q334 603 328 568 L308 468 L414 468 L406 408 L299 408 L229 45 Q222 10 215.5 -31.5 Q209 -73 194.5 -108.5 Q180 -144 153 -168 Q126 -192 78 -192 Q55 -192 32 -186 L43 -132 Q71 -139 91 -133 Q106 -129 115.5 -116.5 Q125 -104 131.5 -88 Q138 -72 142 -55 Q146 -38 149 -24 L233 408 L139 408 Z " />
<glyph glyph-name="circumflex" unicode="&#x2c6;" horiz-adv-x="278" d="M103 707 L176 707 L275 562 L228 562 L139 668 L49 562 L3 562 L103 707 Z " />
<glyph glyph-name="caron" unicode="&#x2c7;" horiz-adv-x="278" d="M175 562 L102 562 L3 707 L50 707 L139 601 L229 707 L275 707 L175 562 Z " />
<glyph glyph-name="uni02C9" unicode="&#x2c9;" horiz-adv-x="278" d="M17 647 L17 707 L262 707 L262 647 L17 647 Z " />
<glyph glyph-name="breve" unicode="&#x2d8;" horiz-adv-x="278" d="M261 707 Q259 677 249.5 658 Q240 639 223.5 628 Q207 617 185 613 Q163 609 136 609 Q112 609 90.5 614 Q69 619 52.5 630.5 Q36 642 26.5 661 Q17 680 17 707 L36 707 Q40 691 51 680.5 Q62 670 76 664.5 Q90 659 106 657 Q122 655 136 655 Q151 655 167.5 657 Q184 659 199 665 Q214 671 226 681 Q238 691 243 707 L261 707 Z " />
<glyph glyph-name="dotaccent" unicode="&#x2d9;" horiz-adv-x="278" d="M102 619 L102 707 L176 707 L176 619 L102 619 Z " />
<glyph glyph-name="ring" unicode="&#x2da;" horiz-adv-x="278" d="M51 649 Q51 667 58 683 Q65 699 77 711 Q89 723 105 730 Q121 737 139 737 Q175 737 201 711 Q227 685 227 649 Q227 631 220 615 Q213 599 201 587 Q189 575 173 568 Q157 561 139 561 Q121 561 105 568 Q89 575 77 587 Q65 599 58 615 Q51 631 51 649 Z M194 649 Q194 670 177 687 Q160 704 139 704 Q118 704 101 687.5 Q84 671 84 649 Q84 629 101 611.5 Q118 594 139 594 Q159 594 176.5 611.5 Q194 629 194 649 Z " />
<glyph glyph-name="ogonek" unicode="&#x2db;" horiz-adv-x="278" d="M246 -169 Q236 -173 220.5 -177 Q205 -181 187.5 -184 Q170 -187 153.5 -189 Q137 -191 124 -191 Q106 -191 87.5 -186 Q69 -181 54 -170 Q39 -159 29.5 -141.5 Q20 -124 20 -98 Q20 -80 31.5 -64 Q43 -48 61 -35.5 Q79 -23 99.5 -14 Q120 -5 138 0 L191 0 L191 -2 Q144 -20 109.5 -43.5 Q75 -67 75 -89 Q75 -103 82 -113.5 Q89 -124 99.5 -131 Q110 -138 122 -142 Q134 -146 144 -146 Q179 -146 199.5 -141 Q220 -136 246 -126 L246 -169 Z " />
<glyph glyph-name="tilde" unicode="&#x2dc;" horiz-adv-x="278" d="M277 695 Q269 661 246.5 635.5 Q224 610 186 610 Q175 610 164 613 Q153 616 141 621 Q130 625 116.5 628 Q103 631 87 631 Q72 631 58 624 Q44 617 40 602 L2 602 Q11 643 38.5 666 Q66 689 110 682 Q117 681 128 678 Q139 675 150 671 Q161 668 172 665 Q183 662 189 662 Q206 662 219.5 670.5 Q233 679 239 695 L277 695 Z " />
<glyph glyph-name="hungarumlaut" unicode="&#x2dd;" horiz-adv-x="556" d="M220 707 L301 707 L172 566 L125 566 L220 707 Z M351 707 L432 707 L303 566 L256 566 L351 707 Z " />
<glyph glyph-name="uni03A9" unicode="&#x3a9;" horiz-adv-x="724" d="M204 55 Q177 79 152 111.5 Q127 144 108 184 Q89 224 77.5 271 Q66 318 66 371 Q66 446 89 508 Q112 570 152.5 614 Q193 658 247.5 682.5 Q302 707 365 707 Q431 707 485 680 Q539 653 577 607.5 Q615 562 636 502 Q657 442 657 375 Q657 319 645 270 Q633 221 613 180.5 Q593 140 568 108 Q543 76 517 55 L517 52 L671 52 L671 0 L436 0 L436 39 Q466 59 494.5 89.5 Q523 120 544.5 161 Q566 202 579.5 253 Q593 304 593 364 Q593 414 578.5 465.5 Q564 517 535.5 559 Q507 601 464 627.5 Q421 654 364 654 Q310 654 267 631 Q224 608 193 568.5 Q162 529 145.5 475.5 Q129 422 129 362 Q129 306 142.5 255.5 Q156 205 178.5 163 Q201 121 229 89.5 Q257 58 287 39 L287 0 L52 0 L52 52 L204 52 L204 55 Z " />
<glyph glyph-name="uni03BC" unicode="&#x3bc;" horiz-adv-x="556" d="M416 502 L476 502 L476 113 Q476 84 477.5 55 Q479 26 481 0 L419 0 L416 74 L414 76 Q388 29 347 7 Q306 -15 257 -15 Q228 -15 198.5 -8 Q169 -1 140 10 L140 -192 L80 -192 L80 502 L140 502 L140 178 Q140 112 175 76 Q210 40 272 40 Q309 40 336 54.5 Q363 69 381 93 Q399 117 407.5 148 Q416 179 416 213 L416 502 Z " />
<glyph glyph-name="pi" unicode="&#x3c0;" horiz-adv-x="564" d="M453 462 L453 147 Q453 83 458 51.5 Q463 20 468 0 L407 0 Q400 11 395 43.5 Q390 76 390 140 L390 462 L199 462 Q197 412 190 346.5 Q183 281 173 215.5 Q163 150 150 92.5 Q137 35 123 0 L61 0 Q76 39 88.5 97 Q101 155 111 218.5 Q121 282 127.5 346 Q134 410 136 462 Q86 462 61.5 458.5 Q37 455 21 449 L10 491 Q29 502 61 509 Q93 516 149 516 L543 516 L536 462 L453 462 Z " />
<glyph glyph-name="endash" unicode="&#x2013;" horiz-adv-x="500" d="M0 237 L0 297 L500 297 L500 237 L0 237 Z " />
<glyph glyph-name="emdash" unicode="&#x2014;" horiz-adv-x="1000" d="M0 237 L0 297 L1000 297 L1000 237 L0 237 Z " />
<glyph glyph-name="quoteleft" unicode="&#x2018;" horiz-adv-x="278" d="M73 517 L145 722 L197 722 L154 517 L73 517 Z " />
<glyph glyph-name="quoteright" unicode="&#x2019;" horiz-adv-x="278" d="M205 722 L133 517 L81 517 L124 722 L205 722 Z " />
<glyph glyph-name="quotesinglbase" unicode="&#x201a;" horiz-adv-x="278" d="M205 81 L133 -124 L81 -124 L124 81 L205 81 Z " />
<glyph glyph-name="quotedblleft" unicode="&#x201c;" horiz-adv-x="556" d="M303 517 L375 722 L427 722 L384 517 L303 517 Z M119 517 L191 722 L243 722 L200 517 L119 517 Z " />
<glyph glyph-name="quotedblright" unicode="&#x201d;" horiz-adv-x="556" d="M437 722 L365 517 L313 517 L356 722 L437 722 Z M253 722 L181 517 L129 517 L172 722 L253 722 Z " />
<glyph glyph-name="quotedblbase" unicode="&#x201e;" horiz-adv-x="556" d="M435 81 L363 -124 L311 -124 L354 81 L435 81 Z M251 81 L179 -124 L127 -124 L170 81 L251 81 Z " />
<glyph glyph-name="dagger" unicode="&#x2020;" horiz-adv-x="556" d="M76 487 L76 542 L248 542 L248 722 L308 722 L308 542 L480 542 L480 487 L308 487 L308 0 L248 0 L248 487 L76 487 Z " />
<glyph glyph-name="daggerdbl" unicode="&#x2021;" horiz-adv-x="556" d="M76 487 L76 542 L248 542 L248 722 L308 722 L308 542 L480 542 L480 487 L308 487 L308 232 L480 232 L480 177 L308 177 L308 0 L248 0 L248 177 L76 177 L76 232 L248 232 L248 487 L76 487 Z " />
<glyph glyph-name="bullet" unicode="&#x2022;" horiz-adv-x="500" d="M430 361 Q430 324 416 291.5 Q402 259 377 234.5 Q352 210 319.5 195.5 Q287 181 249 181 Q212 181 179.5 195.5 Q147 210 122.5 234.5 Q98 259 84 291.5 Q70 324 70 361 Q70 399 84 431.5 Q98 464 122.5 488.5 Q147 513 179.5 527 Q212 541 249 541 Q287 541 319.5 527 Q352 513 377 488.5 Q402 464 416 431.5 Q430 399 430 361 Z " />
<glyph glyph-name="ellipsis" unicode="&#x2026;" horiz-adv-x="1000" d="M207 86 L207 0 L127 0 L127 86 L207 86 Z M540 86 L540 0 L460 0 L460 86 L540 86 Z M873 86 L873 0 L793 0 L793 86 L873 86 Z " />
<glyph glyph-name="perthousand" unicode="&#x2030;" horiz-adv-x="1000" d="M509 707 L562 707 L147 -15 L91 -15 L509 707 Z M175 662 Q151 662 134 651.5 Q117 641 106.5 624 Q96 607 91 586.5 Q86 566 86 545 Q86 524 91 503.5 Q96 483 106.5 466 Q117 449 134 438.5 Q151 428 175 428 Q199 428 216 438.5 Q233 449 243.5 466 Q254 483 259 503.5 Q264 524 264 545 Q264 566 259 586.5 Q254 607 243.5 624 Q233 641 216 651.5 Q199 662 175 662 Z M478 264 Q454 264 437 253.5 Q420 243 409.5 226 Q399 209 394 188.5 Q389 168 389 147 Q389 126 394 105.5 Q399 85 409.5 68 Q420 51 437 40.5 Q454 30 478 30 Q502 30 519 40.5 Q536 51 546.5 68 Q557 85 562 105.5 Q567 126 567 147 Q567 168 562 188.5 Q557 209 546.5 226 Q536 243 519 253.5 Q502 264 478 264 Z M478 -15 Q406 -15 370 31 Q334 77 334 147 Q334 218 370 263.5 Q406 309 478 309 Q550 309 586 263.5 Q622 218 622 147 Q622 77 586 31 Q550 -15 478 -15 Z M175 383 Q103 383 67 429 Q31 475 31 545 Q31 616 67 661.5 Q103 707 175 707 Q247 707 283 661.5 Q319 616 319 545 Q319 475 283 429 Q247 383 175 383 Z M825 -15 Q753 -15 717 31 Q681 77 681 147 Q681 218 717 263.5 Q753 309 825 309 Q897 309 933 263.5 Q969 218 969 147 Q969 77 933 31 Q897 -15 825 -15 Z M825 264 Q801 264 784 253.5 Q767 243 756.5 226 Q746 209 741 188.5 Q736 168 736 147 Q736 126 741 105.5 Q746 85 756.5 68 Q767 51 784 40.5 Q801 30 825 30 Q849 30 866 40.5 Q883 51 893.5 68 Q904 85 909 105.5 Q914 126 914 147 Q914 168 909 188.5 Q904 209 893.5 226 Q883 243 866 253.5 Q849 264 825 264 Z " />
<glyph glyph-name="guilsinglleft" unicode="&#x2039;" horiz-adv-x="278" d="M215 462 L122 267 L214 72 L164 72 L58 267 L164 462 L215 462 Z " />
<glyph glyph-name="guilsinglright" unicode="&#x203a;" horiz-adv-x="278" d="M63 72 L156 267 L64 462 L114 462 L220 267 L114 72 L63 72 Z " />
<glyph glyph-name="fraction" unicode="&#x2044;" horiz-adv-x="167" d="M-96 0 L-151 0 L266 707 L319 707 L-96 0 Z " />
<glyph glyph-name="Euro" unicode="&#x20ac;" horiz-adv-x="556" d="M88 331 L88 346 Q88 355 88 363.5 Q88 372 89 381 L29 381 L46 437 L95 437 Q102 491 121 540 Q140 589 171.5 626 Q203 663 248 685 Q293 707 351 707 Q406 707 450 687.5 Q494 668 527 623 L500 535 Q482 593 440.5 620 Q399 647 350 647 Q306 647 273.5 629 Q241 611 219 582 Q197 553 184 515 Q171 477 165 437 L471 437 L454 381 L159 381 Q158 372 158 363.5 Q158 355 158 346 L158 331 L438 331 L421 275 L162 275 Q167 231 179.5 189.5 Q192 148 214 116 Q236 84 269.5 64.5 Q303 45 350 45 Q398 45 434.5 68.5 Q471 92 502 130 L502 47 Q471 16 432 0.5 Q393 -15 351 -15 Q290 -15 244 8 Q198 31 166.5 70.5 Q135 110 116.5 163 Q98 216 92 275 L27 275 L44 331 L88 331 Z " />
<glyph glyph-name="afii61289" unicode="&#x2113;" horiz-adv-x="478" d="M454 112 Q390 -10 272 -10 Q230 -10 200 5.5 Q170 21 150.5 47 Q131 73 121.5 107.5 Q112 142 110 179 L110 192 Q96 181 81 168.5 Q66 156 51 144 L30 182 Q52 200 72 216.5 Q92 233 110 251 L110 528 Q110 597 123 642.5 Q136 688 157 715 Q178 742 204.5 753 Q231 764 257 764 Q288 764 310.5 751.5 Q333 739 348 718 Q363 697 370.5 668 Q378 639 378 606 Q378 511 320.5 419 Q263 327 169 236 L169 205 Q169 160 179 129 Q189 98 205 78 Q221 58 241.5 49 Q262 40 284 40 Q308 40 329.5 49 Q351 58 368.5 72.5 Q386 87 399.5 104.5 Q413 122 422 139 L454 112 Z M169 300 Q203 337 233 374 Q263 411 285 449 Q307 487 319.5 526 Q332 565 332 604 Q332 654 315.5 685 Q299 716 257 716 Q242 716 226.5 706.5 Q211 697 198 676 Q185 655 177 620.5 Q169 586 169 535 L169 300 Z " />
<glyph glyph-name="trademark" unicode="&#x2122;" horiz-adv-x="940" d="M349 682 L217 682 L217 301 L162 301 L162 682 L29 682 L29 722 L349 722 L349 682 Z M643 411 L645 411 L763 722 L862 722 L862 301 L807 301 L807 678 L805 678 L660 301 L626 301 L481 678 L479 678 L479 301 L424 301 L424 722 L523 722 L643 411 Z " />
<glyph glyph-name="Omega" unicode="&#x2126;" horiz-adv-x="724" d="M204 55 Q177 79 152 111.5 Q127 144 108 184 Q89 224 77.5 271 Q66 318 66 371 Q66 446 89 508 Q112 570 152.5 614 Q193 658 247.5 682.5 Q302 707 365 707 Q431 707 485 680 Q539 653 577 607.5 Q615 562 636 502 Q657 442 657 375 Q657 319 645 270 Q633 221 613 180.5 Q593 140 568 108 Q543 76 517 55 L517 52 L671 52 L671 0 L436 0 L436 39 Q466 59 494.5 89.5 Q523 120 544.5 161 Q566 202 579.5 253 Q593 304 593 364 Q593 414 578.5 465.5 Q564 517 535.5 559 Q507 601 464 627.5 Q421 654 364 654 Q310 654 267 631 Q224 608 193 568.5 Q162 529 145.5 475.5 Q129 422 129 362 Q129 306 142.5 255.5 Q156 205 178.5 163 Q201 121 229 89.5 Q257 58 287 39 L287 0 L52 0 L52 52 L204 52 L204 55 Z " />
<glyph glyph-name="estimated" unicode="&#x212e;" horiz-adv-x="870" d="M186 336 Q181 336 181 332 L181 135 Q181 122 190 113 Q238 64 300.5 35 Q363 6 435 6 Q513 6 579.5 38.5 Q646 71 694 125 L751 125 Q697 62 614 24 Q531 -14 434 -14 Q351 -14 278 14.5 Q205 43 151 91.5 Q97 140 65.5 205.5 Q34 271 34 346 Q34 421 65.5 486.5 Q97 552 151 601 Q205 650 278 678.5 Q351 707 434 707 Q517 707 590.5 678.5 Q664 650 718.5 601 Q773 552 804.5 486.5 Q836 421 836 346 L836 336 L186 336 Z M688 559 Q688 573 679 583 Q631 630 569 657.5 Q507 685 435 685 Q363 685 301 656 Q239 627 191 579 Q181 570 181 555 L181 362 Q181 355 186 355 L684 355 Q688 355 688 362 L688 559 Z " />
<glyph glyph-name="partialdiff" unicode="&#x2202;" horiz-adv-x="540" d="M78 721 Q103 741 142 758.5 Q181 776 241 776 Q288 776 332.5 753.5 Q377 731 411.5 684.5 Q446 638 467 567 Q488 496 488 400 Q488 314 472 239 Q456 164 424 108.5 Q392 53 344 21 Q296 -11 232 -11 Q184 -11 148.5 9 Q113 29 90 61 Q67 93 55.5 134 Q44 175 44 218 Q44 276 61.5 323 Q79 370 108 403 Q137 436 175 453.5 Q213 471 255 471 Q291 471 319.5 459.5 Q348 448 369.5 432.5 Q391 417 405 400 Q419 383 425 371 L426 371 Q427 380 427 393.5 Q427 407 427 417 Q427 487 411.5 544 Q396 601 369.5 641 Q343 681 308 702.5 Q273 724 235 724 Q188 724 155 708.5 Q122 693 102 676 L78 721 Z M238 42 Q276 42 306.5 63.5 Q337 85 360 121 Q383 157 397.5 204.5 Q412 252 417 304 Q411 322 398 342 Q385 362 365.5 379 Q346 396 320 407.5 Q294 419 264 419 Q232 419 203 403.5 Q174 388 152.5 361 Q131 334 118.5 297.5 Q106 261 106 219 Q106 180 115.5 147.5 Q125 115 142 91.5 Q159 68 183 55 Q207 42 237 42 L238 42 Z " />
<glyph glyph-name="Delta" unicode="&#x2206;" horiz-adv-x="646" d="M32 46 L288 715 L360 715 L614 46 L614 0 L32 0 L32 46 Z M546 52 L392 453 Q385 473 375.5 498.5 Q366 524 356 549.5 Q346 575 337.5 599 Q329 623 324 640 L319 640 Q316 626 308.5 605 Q301 584 292 561 Q283 538 274 514 Q265 490 258 470 L96 52 L546 52 Z " />
<glyph glyph-name="product" unicode="&#x220f;" horiz-adv-x="694" d="M556 638 L556 -96 L494 -96 L494 638 L199 638 L199 -96 L137 -96 L137 638 L26 638 L26 695 L667 695 L667 638 L556 638 Z " />
<glyph glyph-name="summation" unicode="&#x2211;" horiz-adv-x="552" d="M23 -96 L23 -53 L298 298 L35 651 L35 695 L514 695 L514 641 L124 641 L124 637 L371 307 L105 -33 L105 -36 L529 -36 L529 -96 L23 -96 Z " />
<glyph glyph-name="minus" unicode="&#x2212;" horiz-adv-x="660" d="M80 281 L580 281 L580 221 L80 221 L80 281 Z " />
<glyph glyph-name="uni2215" unicode="&#x2215;" horiz-adv-x="167" d="M-96 0 L-151 0 L266 707 L319 707 L-96 0 Z " />
<glyph glyph-name="uni2219" unicode="&#x2219;" horiz-adv-x="278" d="M179 208 L99 208 L99 294 L179 294 L179 208 Z " />
<glyph glyph-name="radical" unicode="&#x221a;" horiz-adv-x="566" d="M343 -151 L286 -151 L123 317 L48 289 L34 329 L163 378 L296 -5 Q301 -22 305.5 -41 Q310 -60 313 -74 L314 -75 Q316 -61 320 -42 Q324 -23 327 -6 L517 825 L565 825 L343 -151 Z " />
<glyph glyph-name="infinity" unicode="&#x221e;" horiz-adv-x="775" d="M724 289 Q724 253 711.5 224.5 Q699 196 678 175.5 Q657 155 629.5 144 Q602 133 573 133 Q525 133 483.5 164 Q442 195 389 253 Q369 231 348.5 209.5 Q328 188 305 171 Q282 154 256 143.5 Q230 133 199 133 Q169 133 142 145 Q115 157 95 177.5 Q75 198 63 225.5 Q51 253 51 285 Q51 318 62.5 346.5 Q74 375 95 396 Q116 417 144.5 428.5 Q173 440 206 440 Q234 440 259 430 Q284 420 307 403 Q330 386 351 364 Q372 342 392 319 Q412 342 432.5 363.5 Q453 385 475.5 402.5 Q498 420 524 430 Q550 440 581 440 Q646 440 685 398 Q724 356 724 290 L724 289 Z M206 175 Q231 175 253 186 Q275 197 294.5 213 Q314 229 331.5 248.5 Q349 268 365 284 Q348 304 330.5 325 Q313 346 292.5 362.5 Q272 379 249 389.5 Q226 400 198 400 Q174 400 155 390.5 Q136 381 123 365 Q110 349 103.5 328 Q97 307 97 284 Q97 239 126.5 207 Q156 175 205 175 L206 175 Z M575 400 Q549 400 526 387.5 Q503 375 482.5 357.5 Q462 340 445.5 321 Q429 302 415 288 Q441 261 461.5 239.5 Q482 218 501 204 Q520 190 538 182.5 Q556 175 577 175 Q601 175 620 184.5 Q639 194 652 210 Q665 226 672 245.5 Q679 265 679 286 Q679 340 649.5 370 Q620 400 576 400 L575 400 Z " />
<glyph glyph-name="integral" unicode="&#x222b;" horiz-adv-x="348" d="M321 789 Q315 794 304.5 797 Q294 800 284 800 Q272 800 257.5 795 Q243 790 233 777 Q213 754 205.5 711.5 Q198 669 198 596 Q198 538 200 474 Q202 410 204.5 344.5 Q207 279 209 214.5 Q211 150 211 90 Q211 8 197.5 -39 Q184 -86 166 -111 Q151 -134 126.5 -146 Q102 -158 74 -158 Q56 -158 38 -152 Q20 -146 12 -141 L24 -95 Q31 -98 43 -102.5 Q55 -107 70 -107 Q83 -107 95.5 -101 Q108 -95 117 -84 Q132 -65 142.5 -26 Q153 13 153 91 Q153 151 151 216.5 Q149 282 146 348.5 Q143 415 141 479.5 Q139 544 139 602 Q139 683 150.5 732 Q162 781 191 810 Q210 830 233 839 Q256 848 280 848 Q295 848 310 843 Q325 838 333 833 L321 789 Z " />
<glyph glyph-name="approxequal" unicode="&#x2248;" horiz-adv-x="566" d="M517 401 Q497 363 467.5 335.5 Q438 308 390 308 Q359 308 334 319.5 Q309 331 272 351 Q249 364 226 374.5 Q203 385 177 385 Q142 385 118.5 362.5 Q95 340 76 310 L47 333 Q70 377 105 401.5 Q140 426 183 426 Q220 426 248 410.5 Q276 395 297 384 Q323 370 344 360 Q365 350 393 350 Q425 350 447 368.5 Q469 387 490 425 L517 401 Z M517 234 Q497 196 467.5 169 Q438 142 390 142 Q359 142 334 153 Q309 164 272 184 Q248 198 225.5 208.5 Q203 219 177 219 Q141 219 118 195.5 Q95 172 76 143 L47 166 Q70 211 105.5 235.5 Q141 260 183 260 Q221 260 248.5 245 Q276 230 297 219 Q322 205 343.5 194 Q365 183 394 183 Q425 183 446.5 202 Q468 221 490 258 L517 234 Z " />
<glyph glyph-name="notequal" unicode="&#x2260;" horiz-adv-x="566" d="M352 400 L514 400 L514 357 L334 357 L265 208 L514 208 L514 166 L247 166 L192 47 L158 63 L205 166 L52 166 L52 208 L224 208 L293 357 L52 357 L52 400 L310 400 L364 517 L399 501 L352 400 Z " />
<glyph glyph-name="lessequal" unicode="&#x2264;" horiz-adv-x="566" d="M58 320 L58 365 L511 590 L511 538 L105 344 L105 342 L511 146 L511 95 L58 320 Z M52 9 L52 53 L514 53 L514 9 L52 9 Z " />
<glyph glyph-name="greaterequal" unicode="&#x2265;" horiz-adv-x="566" d="M512 365 L512 320 L58 95 L58 146 L464 341 L464 343 L58 538 L58 590 L512 365 Z M52 9 L52 53 L513 53 L513 9 L52 9 Z " />
<glyph glyph-name="lozenge" unicode="&#x25ca;" horiz-adv-x="567" d="M308 -45 L257 -45 L56 347 L258 740 L310 740 L511 347 L308 -45 Z M303 635 Q297 647 292 661 Q287 675 284 685 L281 685 Q278 674 273.5 661.5 Q269 649 262 635 L114 349 L264 58 Q271 43 275.5 30 Q280 17 282 8 L285 8 Q288 18 293 32.5 Q298 47 303 57 L452 346 L303 635 Z " />
<glyph glyph-name="fi" unicode="&#xfb01;" horiz-adv-x="556" d="M466 502 L466 0 L406 0 L406 502 L466 502 Z M471 647 L401 647 L401 722 L471 722 L471 647 Z M123 0 L123 447 L22 447 L22 502 L123 502 L123 609 Q123 674 151 704 Q179 734 244 734 Q258 734 272.5 730 Q287 726 301 723 L301 675 Q292 677 282.5 678 Q273 679 264 679 Q233 679 216 671.5 Q199 664 191.5 649.5 Q184 635 183 614 Q182 593 183 566 L183 502 L297 502 L297 447 L183 447 L183 0 L123 0 Z " />
<glyph glyph-name="fl" unicode="&#xfb02;" horiz-adv-x="556" d="M125 0 L125 447 L24 447 L24 502 L125 502 L125 609 Q125 674 153 704 Q181 734 246 734 Q260 734 274.5 730 Q289 726 303 723 L303 675 Q294 677 284.5 678 Q275 679 266 679 Q235 679 218 671.5 Q201 664 193.5 649.5 Q186 635 185 614 Q184 593 185 566 L185 502 L299 502 L299 447 L185 447 L185 0 L125 0 Z M470 0 L410 0 L410 722 L470 722 L470 0 Z " />
</font>
</svg>
